{
.appVersion = "998";
copyright = "Copyright 2017 Google Inc. All Rights Reserved.";
customParameters = (
{
name = licenseURL;
value = "http://scripts.sil.org/OFL";
},
{
name = description;
value = "Designed by Monotype design team.";
},
{
name = fsType;
value = (
);
},
{
name = glyphOrder;
value = (
.notdef,
NULL,
CR,
space,
uni200B,
uni25CC,
A_indi,
AA_indi,
I_indi,
II_indi,
U_indi,
UU_indi,
VocR_indi,
VocRR_indi,
VocL_indi,
E_indi,
AI_indi,
O_indi,
AU_indi,
Ka,
Kha,
Ga,
Gha,
Nga,
Ca,
Cha,
Ja,
Jha,
Nya,
Tta,
Ttha,
Dda,
Ddha,
Nna,
Ta,
Tha,
Da,
Dha,
Na,
Pa,
Pa.alt,
Pha,
Ba,
Bha,
Ma,
Ya,
Ra,
La,
Va,
Sha,
Ssa,
Sa,
Ha,
AA_vwl,
AA_vwl.alt,
AA_vwl.alt2,
I_vwl,
II_vwl,
U_vwl,
U_vwl.alt,
UU_vwl,
UU_vwl.alt,
VocR,
VocRR,
VocL,
E_vwl,
E_vwl.alt,
E_vwl.alt2,
AI_vwl,
AI_vwl.alt,
O_vwl,
O_vwl.alt,
AU_vwl,
AU_vwl.alt,
Candrabindu,
Candrabindu.alt,
Anusvara,
Anusvara.alt,
Visarga,
Virama,
Avagraha,
Danda,
DblDanda,
WordSep,
GapFiller_1,
GapFiller_2,
u11C50,
u11C51,
u11C52,
u11C53,
u11C54,
u11C55,
u11C56,
u11C57,
u11C58,
u11C59,
NumberOne,
NumberTwo,
NumberThree,
NumberFour,
NumberFive,
NumberSix,
NumberSeven,
NumberEight,
NumberNine,
NumberTen,
NumberTwenty,
NumberThirty,
NumberForty,
NumberFifty,
NumberSixty,
NumberSeventy,
NumberEighty,
NumberNinety,
OneHundredUnit,
OneHundred,
TwoHundred,
ThreeHundred,
FourHundred,
FiveHundred,
SixHundred,
SevenHundred,
EightHundred,
NineHundred,
NumberTenSolo,
NumberTwentySolo,
NumberThirtySolo,
NumberFortySolo,
NumberFiftySolo,
NumberSixtySolo,
NumberSeventySolo,
NumberEightySolo,
NumberNinetySolo,
NumberTwentySolo.mark,
NumberThirtySolo.mark,
NumberFortySolo.mark,
NumberFiftySolo.mark,
NumberSixtySolo.mark,
NumberSeventySolo.mark,
NumberEightySolo.mark,
NumberNinetySolo.mark,
NumberOne.mark,
NumberTwo.mark,
NumberThree.mark,
NumberFour.mark,
NumberFive.mark,
NumberSix.mark,
NumberSeven.mark,
NumberEight.mark,
NumberNine.mark,
NumberTen.alt.mark,
NumberTwenty.mark,
NumberThirty.mark,
NumberForty.mark,
NumberFifty.mark,
NumberSixty.mark,

glyphs = (
{
glyphname = .notdef;
lastChange = "2017-07-03 19:48:37 +0000";
layers = (
{
layerId = UUID0;
paths = (
{
closed = 1;
nodes = (
"505 0 LINE",
"505 714 LINE",
"94 714 LINE",
"94 0 LINE"
);
},
{
closed = 1;
nodes = (
"145 663 LINE",
"454 663 LINE",
"454 51 LINE",
"145 51 LINE"
);
}
);
width = 600;
}
);
},
{
glyphname = uni25CC;
lastChange = "2017-07-03 19:48:37 +0000";
layers = (
{
layerId = UUID0;
paths = (
{
closed = 1;
nodes = (
"479 425 OFFCURVE",
"471 433 OFFCURVE",
"455 433 CURVE SMOOTH",
"438 433 OFFCURVE",
"430 425 OFFCURVE",
"430 408 CURVE SMOOTH",
"430 392 OFFCURVE",
"438 384 OFFCURVE",
"455 384 CURVE SMOOTH",
"471 384 OFFCURVE",
"479 392 OFFCURVE",
"479 408 CURVE SMOOTH"
);
},
{
closed = 1;
nodes = (
"406 473 OFFCURVE",
"398 481 OFFCURVE",
"383 481 CURVE SMOOTH",
"366 481 OFFCURVE",
"357 473 OFFCURVE",
"357 456 CURVE SMOOTH",
"357 440 OFFCURVE",
"366 432 OFFCURVE",
"383 432 CURVE SMOOTH",
"398 432 OFFCURVE",
"406 440 OFFCURVE",
"406 456 CURVE SMOOTH"
);
},
{
closed = 1;
nodes = (
"527 352 OFFCURVE",
"519 360 OFFCURVE",
"503 360 CURVE SMOOTH",
"486 360 OFFCURVE",
"478 352 OFFCURVE",
"478 336 CURVE SMOOTH",
"478 319 OFFCURVE",
"486 311 OFFCURVE",
"502 311 CURVE SMOOTH",
"519 311 OFFCURVE",
"527 319 OFFCURVE",
"527 336 CURVE SMOOTH"
);
},
{
closed = 1;
nodes = (
"544 267 OFFCURVE",
"536 275 OFFCURVE",
"521 275 CURVE SMOOTH",
"504 275 OFFCURVE",
"496 267 OFFCURVE",
"496 251 CURVE SMOOTH",
"496 235 OFFCURVE",
"504 227 OFFCURVE",
"521 227 CURVE SMOOTH",
"536 227 OFFCURVE",
"544 235 OFFCURVE",
"544 251 CURVE SMOOTH"
);
},
{
closed = 1;
nodes = (
"321 490 OFFCURVE",
"313 498 OFFCURVE",
"297 498 CURVE SMOOTH",
"280 498 OFFCURVE",
"272 490 OFFCURVE",
"272 474 CURVE SMOOTH",
"272 457 OFFCURVE",
"280 449 OFFCURVE",
"297 449 CURVE SMOOTH",
"313 449 OFFCURVE",
"321 457 OFFCURVE",
"321 474 CURVE SMOOTH"
);
},
{
closed = 1;
nodes = (
"237 473 OFFCURVE",
"229 481 OFFCURVE",
"212 481 CURVE SMOOTH",
"196 481 OFFCURVE",
"188 473 OFFCURVE",
"188 456 CURVE SMOOTH",
"188 440 OFFCURVE",
"196 432 OFFCURVE",
"212 432 CURVE SMOOTH",
"229 432 OFFCURVE",
"237 440 OFFCURVE",
"237 456 CURVE SMOOTH"
);
},
{
closed = 1;
nodes = (
"527 183 OFFCURVE",
"519 191 OFFCURVE",
"502 191 CURVE SMOOTH",
"486 191 OFFCURVE",
"478 183 OFFCURVE",
"478 166 CURVE SMOOTH",
"478 150 OFFCURVE",
"486 142 OFFCURVE",
"502 142 CURVE SMOOTH",
"519 142 OFFCURVE",
"527 150 OFFCURVE",
"527 166 CURVE SMOOTH"
);
},
{
closed = 1;
nodes = (
"165 425 OFFCURVE",
"157 433 OFFCURVE",
"140 433 CURVE SMOOTH",
"124 433 OFFCURVE",
"116 424 OFFCURVE",
"116 407 CURVE SMOOTH",
"116 392 OFFCURVE",
"124 384 OFFCURVE",
"140 384 CURVE SMOOTH",
"157 384 OFFCURVE",
"165 392 OFFCURVE",
"165 408 CURVE SMOOTH"
);
},
{
closed = 1;
nodes = (
"479 110 OFFCURVE",
"471 118 OFFCURVE",
"455 118 CURVE SMOOTH",
"438 118 OFFCURVE",
"430 110 OFFCURVE",
"430 93 CURVE SMOOTH",
"430 77 OFFCURVE",
"438 69 OFFCURVE",
"455 69 CURVE SMOOTH",
"471 69 OFFCURVE",
"479 77 OFFCURVE",
"479 93 CURVE SMOOTH"
);
},
{
closed = 1;
nodes = (
"406 62 OFFCURVE",
"398 70 OFFCURVE",
"383 70 CURVE SMOOTH",
"366 70 OFFCURVE",
"357 62 OFFCURVE",
"357 45 CURVE SMOOTH",
"357 30 OFFCURVE",
"366 22 OFFCURVE",
"383 22 CURVE SMOOTH",
"398 22 OFFCURVE",
"406 30 OFFCURVE",
"406 45 CURVE SMOOTH"
);
},
{
closed = 1;
nodes = (
"116 352 OFFCURVE",
"108 360 OFFCURVE",
"92 360 CURVE SMOOTH",
"75 360 OFFCURVE",
"67 352 OFFCURVE",
"67 336 CURVE SMOOTH",
"67 319 OFFCURVE",
"76 311 OFFCURVE",
"93 311 CURVE SMOOTH",
"108 311 OFFCURVE",
"116 319 OFFCURVE",
"116 336 CURVE SMOOTH"
);
},
{
closed = 1;
nodes = (
"99 267 OFFCURVE",
"91 275 OFFCURVE",
"75 275 CURVE SMOOTH",
"58 275 OFFCURVE",
"50 267 OFFCURVE",
"50 251 CURVE SMOOTH",
"50 235 OFFCURVE",
"58 227 OFFCURVE",
"75 227 CURVE SMOOTH",
"91 227 OFFCURVE",
"99 235 OFFCURVE",
"99 251 CURVE SMOOTH"
);
},
{
closed = 1;
nodes = (
"321 45 OFFCURVE",
"313 53 OFFCURVE",
"297 53 CURVE SMOOTH",
"280 53 OFFCURVE",
"272 45 OFFCURVE",
"272 29 CURVE SMOOTH",
"272 12 OFFCURVE",
"280 4 OFFCURVE",
"297 4 CURVE SMOOTH",
"313 4 OFFCURVE",
"321 12 OFFCURVE",
"321 29 CURVE SMOOTH"
);
},
{
closed = 1;
nodes = (
"116 183 OFFCURVE",
"108 191 OFFCURVE",
"92 191 CURVE SMOOTH",
"75 191 OFFCURVE",
"67 183 OFFCURVE",
"67 166 CURVE SMOOTH",
"67 150 OFFCURVE",
"75 142 OFFCURVE",
"92 142 CURVE SMOOTH",
"108 142 OFFCURVE",
"116 150 OFFCURVE",
"116 166 CURVE SMOOTH"
);
},
{
closed = 1;
nodes = (
"237 62 OFFCURVE",
"229 70 OFFCURVE",
"212 70 CURVE SMOOTH",
"196 70 OFFCURVE",
"188 62 OFFCURVE",
"188 45 CURVE SMOOTH",
"188 30 OFFCURVE",
"196 22 OFFCURVE",
"212 22 CURVE SMOOTH",
"229 22 OFFCURVE",
"237 30 OFFCURVE",
"237 47 CURVE SMOOTH"
);
},
{
closed = 1;
nodes = (
"165 110 OFFCURVE",
"157 118 OFFCURVE",
"140 118 CURVE SMOOTH",
"124 118 OFFCURVE",
"116 110 OFFCURVE",
"116 93 CURVE SMOOTH",
"116 77 OFFCURVE",
"124 69 OFFCURVE",
"140 69 CURVE SMOOTH",
"157 69 OFFCURVE",
"165 77 OFFCURVE",
"165 93 CURVE SMOOTH"
);
}
);
width = 594;
}
);
unicode = 25CC;
},
{
glyphname = A_indi;
lastChange = "2017-07-03 19:48:37 +0000";
layers = (
{
layerId = UUID0;
paths = (
{
closed = 1;
nodes = (
"436 -10 LINE",
"469 4 OFFCURVE",
"534 111 OFFCURVE",
"534 170 CURVE SMOOTH",
"534 219 OFFCURVE",
"519 330 OFFCURVE",
"500 388 CURVE",
"656 388 LINE",
"656 408 LINE",
"495 560 LINE",
"473 560 LINE",
"338 434 LINE",
"205 560 LINE",
"184 560 LINE",
"20 408 LINE",
"20 388 LINE",
"149 388 LINE",
"143 298 OFFCURVE",
"128 293 OFFCURVE",
"118 276 CURVE",
"131 261 OFFCURVE",
"132 260 OFFCURVE",
"137 234 CURVE",
"187 234 OFFCURVE",
"370 212 OFFCURVE",
"453 185 CURVE",
"453 181 LINE SMOOTH",
"453 129 OFFCURVE",
"429 91 OFFCURVE",
"412 72 CURVE",
"374 95 OFFCURVE",
"319 129 OFFCURVE",
"242 129 CURVE SMOOTH",
"170 129 OFFCURVE",
"81 57 OFFCURVE",
"26 12 CURVE",
"43 -8 LINE",
"143 50 OFFCURVE",
"180 57 OFFCURVE",
"230 57 CURVE SMOOTH",
"319 57 OFFCURVE",
"365 14 OFFCURVE",
"417 -10 CURVE"
);
},
{
closed = 1;
nodes = (
"378 270 OFFCURVE",
"266 276 OFFCURVE",
"196 276 CURVE",
"214 309 OFFCURVE",
"223 341 OFFCURVE",
"226 388 CURVE",
"422 388 LINE",
"432 356 OFFCURVE",
"441 304 OFFCURVE",
"447 258 CURVE"
);
}
);
width = 676;
}
);
unicode = 11C00;
},
{
glyphname = AA_indi;
lastChange = "2017-07-03 19:48:37 +0000";
layers = (
{
layerId = UUID0;
paths = (
{
closed = 1;
nodes = (
"507 -101 OFFCURVE",
"665 -65 OFFCURVE",
"716 9 CURVE",
"700 62 OFFCURVE",
"649 143 OFFCURVE",
"544 181 CURVE",
"544 241 OFFCURVE",
"534 328 OFFCURVE",
"522 388 CURVE",
"656 388 LINE",
"656 408 LINE",
"495 560 LINE",
"473 560 LINE",
"338 434 LINE",
"205 560 LINE",
"184 560 LINE",
"20 408 LINE",
"20 388 LINE",
"164 388 LINE",
"157 317 OFFCURVE",
"143 312 OFFCURVE",
"134 296 CURVE",
"147 281 OFFCURVE",
"148 280 OFFCURVE",
"153 254 CURVE",
"206 254 OFFCURVE",
"389 245 OFFCURVE",
"461 220 CURVE",
"461 214 OFFCURVE",
"462 207 OFFCURVE",
"462 201 CURVE",
"445 203 OFFCURVE",
"427 204 OFFCURVE",
"409 204 CURVE SMOOTH",
"322 204 OFFCURVE",
"191 132 OFFCURVE",
"145 96 CURVE",
"158 69 LINE",
"227 63 OFFCURVE",
"281 -10 OFFCURVE",
"366 -10 CURVE SMOOTH",
"470 -10 OFFCURVE",
"521 32 OFFCURVE",
"538 113 CURVE",
"581 90 OFFCURVE",
"611 58 OFFCURVE",
"616 24 CURVE",
"590 -16 OFFCURVE",
"524 -48 OFFCURVE",
"379 -69 CURVE",
"388 -102 LINE"
);
},
{
closed = 1;
nodes = (
"329 60 OFFCURVE",
"290 88 OFFCURVE",
"274 105 CURVE",
"299 126 OFFCURVE",
"359 145 OFFCURVE",
"402 145 CURVE SMOOTH",
"422 145 OFFCURVE",
"441 142 OFFCURVE",
"460 139 CURVE",
"449 64 OFFCURVE",
"408 60 OFFCURVE",
"375 60 CURVE SMOOTH"
);
},
{
closed = 1;
nodes = (
"396 302 OFFCURVE",
"286 306 OFFCURVE",
"212 306 CURVE",
"227 334 OFFCURVE",
"236 355 OFFCURVE",
"240 388 CURVE",
"444 388 LINE",
"449 359 OFFCURVE",
"455 328 OFFCURVE",
"458 290 CURVE"
);
}
);
width = 716;
}
);
unicode = 11C01;
},
{
glyphname = I_indi;
lastChange = "2017-07-03 19:48:37 +0000";
layers = (
{
layerId = UUID0;
paths = (
{
closed = 1;
nodes = (
"130 313 OFFCURVE",
"158 337 OFFCURVE",
"192 356 CURVE",
"157 372 OFFCURVE",
"144 388 OFFCURVE",
"144 410 CURVE SMOOTH",
"144 428 OFFCURVE",
"199 468 OFFCURVE",
"249 490 CURVE",
"267 475 OFFCURVE",
"340 438 OFFCURVE",
"348 319 CURVE",
"376 340 OFFCURVE",
"403 358 OFFCURVE",
"434 369 CURVE",
"434 375 OFFCURVE",
"433 381 OFFCURVE",
"431 388 CURVE",
"686 388 LINE",
"686 408 LINE",
"525 560 LINE",
"503 560 LINE",
"391 455 LINE",
"354 499 OFFCURVE",
"302 540 OFFCURVE",
"272 560 CURVE",
"255 560 LINE",
"216 541 OFFCURVE",
"40 430 OFFCURVE",
"40 388 CURVE SMOOTH",
"40 357 OFFCURVE",
"59 322 OFFCURVE",
"106 284 CURVE"
);
},
{
closed = 1;
nodes = (
"242 -10 OFFCURVE",
"285 38 OFFCURVE",
"299 57 CURVE",
"280 84 LINE",
"267 73 OFFCURVE",
"235 62 OFFCURVE",
"197 62 CURVE SMOOTH",
"165 62 OFFCURVE",
"137 84 OFFCURVE",
"137 127 CURVE SMOOTH",
"137 142 OFFCURVE",
"176 185 OFFCURVE",
"200 185 CURVE SMOOTH",
"236 185 OFFCURVE",
"255 171 OFFCURVE",
"274 160 CURVE",
"283 181 OFFCURVE",
"296 207 OFFCURVE",
"310 224 CURVE",
"294 246 OFFCURVE",
"247 259 OFFCURVE",
"217 259 CURVE SMOOTH",
"157 259 OFFCURVE",
"65 169 OFFCURVE",
"65 116 CURVE SMOOTH",
"65 41 OFFCURVE",
"121 -10 OFFCURVE",
"180 -10 CURVE SMOOTH"
);
},
{
closed = 1;
nodes = (
"573 33 OFFCURVE",
"633 88 OFFCURVE",
"633 173 CURVE SMOOTH",
"633 244 OFFCURVE",
"563 302 OFFCURVE",
"512 302 CURVE SMOOTH",
"456 302 OFFCURVE",
"423 260 OFFCURVE",
"406 239 CURVE",
"429 203 LINE",
"449 214 OFFCURVE",
"467 228 OFFCURVE",
"503 228 CURVE SMOOTH",
"534 228 OFFCURVE",
"561 183 OFFCURVE",
"561 167 CURVE SMOOTH",
"561 129 OFFCURVE",
"538 105 OFFCURVE",
"506 105 CURVE SMOOTH",
"479 105 OFFCURVE",
"450 111 OFFCURVE",
"436 117 CURVE",
"433 95 OFFCURVE",
"428 75 OFFCURVE",
"421 54 CURVE",
"438 43 OFFCURVE",
"476 33 OFFCURVE",
"518 33 CURVE SMOOTH"
);
}
);
width = 706;
}
);
unicode = 11C02;
},
{
glyphname = II_indi;
lastChange = "2017-07-03 19:48:37 +0000";
layers = (
{
layerId = UUID0;
paths = (
{
closed = 1;
nodes = (
"58 -18 OFFCURVE",
"137 36 OFFCURVE",
"188 36 CURVE SMOOTH",
"251 36 OFFCURVE",
"285 -10 OFFCURVE",
"308 -10 CURVE SMOOTH",
"335 -10 OFFCURVE",
"449 101 OFFCURVE",
"449 132 CURVE SMOOTH",
"449 179 OFFCURVE",
"418 317 OFFCURVE",
"394 388 CURVE",
"526 388 LINE",
"526 408 LINE",
"365 560 LINE",
"343 560 LINE",
"180 408 LINE",
"180 388 LINE",
"315 388 LINE",
"336 319 OFFCURVE",
"367 166 OFFCURVE",
"367 123 CURVE SMOOTH",
"367 96 OFFCURVE",
"338 63 OFFCURVE",
"326 56 CURVE",
"301 82 OFFCURVE",
"250 108 OFFCURVE",
"215 108 CURVE SMOOTH",
"131 108 OFFCURVE",
"32 9 OFFCURVE",
"-20 -51 CURVE",
"2 -72 LINE"
);
},
{
closed = 1;
nodes = (
"232 138 OFFCURVE",
"264 178 OFFCURVE",
"277 194 CURVE",
"259 217 LINE",
"246 208 OFFCURVE",
"225 199 OFFCURVE",
"188 199 CURVE SMOOTH",
"157 199 OFFCURVE",
"130 217 OFFCURVE",
"130 253 CURVE SMOOTH",
"130 266 OFFCURVE",
"158 294 OFFCURVE",
"181 294 CURVE SMOOTH",
"216 294 OFFCURVE",
"234 282 OFFCURVE",
"253 273 CURVE",
"262 290 OFFCURVE",
"272 306 OFFCURVE",
"286 321 CURVE",
"270 339 OFFCURVE",
"227 356 OFFCURVE",
"198 356 CURVE SMOOTH",
"139 356 OFFCURVE",
"60 289 OFFCURVE",
"60 244 CURVE SMOOTH",
"60 181 OFFCURVE",
"114 138 OFFCURVE",
"171 138 CURVE SMOOTH"
);
},
{
closed = 1;
nodes = (
"633 138 OFFCURVE",
"691 184 OFFCURVE",
"691 256 CURVE SMOOTH",
"691 316 OFFCURVE",
"633 356 OFFCURVE",
"583 356 CURVE SMOOTH",
"529 356 OFFCURVE",
"497 321 OFFCURVE",
"481 303 CURVE",
"503 273 LINE",
"522 282 OFFCURVE",
"540 294 OFFCURVE",
"575 294 CURVE SMOOTH",
"605 294 OFFCURVE",
"621 264 OFFCURVE",
"621 251 CURVE SMOOTH",
"621 219 OFFCURVE",
"599 199 OFFCURVE",
"568 199 CURVE SMOOTH",
"542 199 OFFCURVE",
"523 204 OFFCURVE",
"510 209 CURVE",
"507 190 OFFCURVE",
"502 173 OFFCURVE",
"495 156 CURVE",
"512 146 OFFCURVE",
"539 138 OFFCURVE",
"580 138 CURVE SMOOTH"
);
}
);
width = 731;
}
);
unicode = 11C03;
},
{
glyphname = U_indi;
lastChange = "2017-07-03 19:48:37 +0000";
layers = (
{
layerId = UUID0;
paths = (
{
closed = 1;
nodes = (
"402 -10 OFFCURVE",
"515 104 OFFCURVE",
"515 156 CURVE SMOOTH",
"515 210 OFFCURVE",
"487 247 OFFCURVE",
"405 279 CURVE",
"435 295 OFFCURVE",
"469 338 OFFCURVE",
"473 388 CURVE",
"624 388 LINE",
"624 410 LINE",
"430 560 LINE",
"408 560 LINE",
"203 410 LINE",
"203 388 LINE",
"388 388 LINE",
"386 336 OFFCURVE",
"372 299 OFFCURVE",
"322 299 CURVE",
"312 260 LINE",
"355 250 OFFCURVE",
"433 222 OFFCURVE",
"433 159 CURVE SMOOTH",
"433 110 OFFCURVE",
"374 60 OFFCURVE",
"301 60 CURVE SMOOTH",
"188 60 OFFCURVE",
"140 162 OFFCURVE",
"133 282 CURVE",
"99 259 OFFCURVE",
"61 254 OFFCURVE",
"30 245 CURVE",
"30 198 OFFCURVE",
"91 -10 OFFCURVE",
"285 -10 CURVE SMOOTH"
);
}
);
width = 644;
}
);
unicode = 11C04;
},
{
glyphname = UU_indi;
lastChange = "2017-07-03 19:48:37 +0000";
layers = (
{
layerId = UUID0;
paths = (
{
closed = 1;
nodes = (
"590 -142 OFFCURVE",
"617 -130 OFFCURVE",
"642 -122 CURVE",
"631 -70 OFFCURVE",
"585 18 OFFCURVE",
"550 36 CURVE",
"521 29 OFFCURVE",
"496 15 OFFCURVE",
"470 -3 CURVE",
"480 -9 OFFCURVE",
"496 -31 OFFCURVE",
"512 -56 CURVE",
"489 -68 OFFCURVE",
"461 -80 OFFCURVE",
"440 -80 CURVE SMOOTH",
"388 -80 OFFCURVE",
"344 -47 OFFCURVE",
"325 -5 CURVE",
"427 16 OFFCURVE",
"515 110 OFFCURVE",
"515 156 CURVE SMOOTH",
"515 210 OFFCURVE",
"487 247 OFFCURVE",
"405 279 CURVE",
"435 295 OFFCURVE",
"469 338 OFFCURVE",
"473 388 CURVE",
"624 388 LINE",
"624 410 LINE",
"430 560 LINE",
"408 560 LINE",
"203 410 LINE",
"203 388 LINE",
"388 388 LINE",
"386 336 OFFCURVE",
"372 299 OFFCURVE",
"322 299 CURVE",
"312 260 LINE",
"355 250 OFFCURVE",
"433 222 OFFCURVE",
"433 159 CURVE SMOOTH",
"433 110 OFFCURVE",
"374 60 OFFCURVE",
"301 60 CURVE SMOOTH",
"188 60 OFFCURVE",
"140 162 OFFCURVE",
"133 282 CURVE",
"99 259 OFFCURVE",
"61 254 OFFCURVE",
"30 245 CURVE",
"30 202 OFFCURVE",
"81 24 OFFCURVE",
"239 -5 CURVE",
"258 -90 OFFCURVE",
"330 -150 OFFCURVE",
"431 -150 CURVE SMOOTH",
"453 -150 OFFCURVE",
"505 -124 OFFCURVE",
"538 -103 CURVE",
"550 -128 OFFCURVE",
"560 -150 OFFCURVE",
"563 -161 CURVE"
);
}
);
width = 662;
}
);
unicode = 11C05;
},
{
glyphname = VocR_indi;
lastChange = "2017-07-03 19:48:37 +0000";
layers = (
{
layerId = UUID0;
paths = (
{
closed = 1;
nodes = (
"433 -10 OFFCURVE",
"531 117 OFFCURVE",
"531 166 CURVE SMOOTH",
"531 223 OFFCURVE",
"516 280 OFFCURVE",
"491 324 CURVE",
"660 324 LINE",
"660 346 LINE",
"466 500 LINE",
"444 500 LINE",
"239 346 LINE",
"239 324 LINE",
"394 324 LINE",
"431 279 OFFCURVE",
"449 210 OFFCURVE",
"449 154 CURVE SMOOTH",
"449 111 OFFCURVE",
"404 60 OFFCURVE",
"337 60 CURVE SMOOTH",
"194 60 OFFCURVE",
"130 237 OFFCURVE",
"130 339 CURVE SMOOTH",
"130 399 OFFCURVE",
"144 457 OFFCURVE",
"191 494 CURVE",
"153 516 OFFCURVE",
"121 537 OFFCURVE",
"96 560 CURVE",
"69 533 OFFCURVE",
"40 468 OFFCURVE",
"40 369 CURVE SMOOTH",
"40 236 OFFCURVE",
"109 -10 OFFCURVE",
"329 -10 CURVE SMOOTH"
);
}
);
width = 680;
}
);
unicode = 11C06;
},
{
glyphname = VocRR_indi;
lastChange = "2017-07-03 19:48:37 +0000";
layers = (
{
layerId = UUID0;
paths = (
{
closed = 1;
nodes = (
"523 -172 OFFCURVE",
"611 -55 OFFCURVE",
"632 63 CURVE",
"661 98 OFFCURVE",
"681 137 OFFCURVE",
"681 158 CURVE SMOOTH",
"681 203 OFFCURVE",
"669 255 OFFCURVE",
"653 293 CURVE",
"779 293 LINE",
"779 313 LINE",
"618 465 LINE",
"596 465 LINE",
"433 313 LINE",
"433 293 LINE",
"564 293 LINE",
"584 253 OFFCURVE",
"599 186 OFFCURVE",
"599 143 CURVE SMOOTH",
"599 98 OFFCURVE",
"543 60 OFFCURVE",
"519 60 CURVE SMOOTH",
"462 60 OFFCURVE",
"338 131 OFFCURVE",
"338 317 CURVE SMOOTH",
"338 366 OFFCURVE",
"350 408 OFFCURVE",
"397 450 CURVE",
"361 469 OFFCURVE",
"329 490 OFFCURVE",
"304 515 CURVE",
"285 499 OFFCURVE",
"250 465 OFFCURVE",
"250 345 CURVE SMOOTH",
"250 247 OFFCURVE",
"306 -10 OFFCURVE",
"505 -10 CURVE SMOOTH",
"518 -10 OFFCURVE",
"531 -7 OFFCURVE",
"543 -2 CURVE",
"520 -55 OFFCURVE",
"471 -102 OFFCURVE",
"442 -102 CURVE SMOOTH",
"282 -102 OFFCURVE",
"130 81 OFFCURVE",
"130 319 CURVE SMOOTH",
"130 384 OFFCURVE",
"136 446 OFFCURVE",
"184 491 CURVE",
"151 509 OFFCURVE",
"122 531 OFFCURVE",
"100 560 CURVE",
"80 546 OFFCURVE",
"40 491 OFFCURVE",
"40 359 CURVE SMOOTH",
"40 113 OFFCURVE",
"181 -172 OFFCURVE",
"434 -172 CURVE SMOOTH"
);
}
);
width = 799;
}
);
unicode = 11C07;
},
{
glyphname = VocL_indi;
lastChange = "2017-07-03 19:48:37 +0000";
layers = (
{
layerId = UUID0;
paths = (
{
closed = 1;
nodes = (
"340 -10 OFFCURVE",
"416 34 OFFCURVE",
"451 61 CURVE",
"429 88 LINE",
"394 72 OFFCURVE",
"326 60 OFFCURVE",
"258 60 CURVE SMOOTH",
"177 60 OFFCURVE",
"126 131 OFFCURVE",
"126 154 CURVE SMOOTH",
"126 202 OFFCURVE",
"185 226 OFFCURVE",
"221 226 CURVE SMOOTH",
"285 226 OFFCURVE",
"331 200 OFFCURVE",
"383 177 CURVE",
"402 184 OFFCURVE",
"448 225 OFFCURVE",
"454 248 CURVE",
"454 274 OFFCURVE",
"401 488 OFFCURVE",
"334 560 CURVE",
"307 560 LINE",
"219 521 OFFCURVE",
"40 451 OFFCURVE",
"40 390 CURVE SMOOTH",
"40 364 OFFCURVE",
"62 327 OFFCURVE",
"101 302 CURVE",
"126 331 OFFCURVE",
"152 350 OFFCURVE",
"182 371 CURVE",
"154 386 OFFCURVE",
"144 392 OFFCURVE",
"144 411 CURVE SMOOTH",
"144 433 OFFCURVE",
"263 485 OFFCURVE",
"288 492 CURVE",
"304 482 OFFCURVE",
"366 331 OFFCURVE",
"372 259 CURVE",
"344 273 OFFCURVE",
"272 295 OFFCURVE",
"235 295 CURVE SMOOTH",
"152 295 OFFCURVE",
"44 190 OFFCURVE",
"44 143 CURVE SMOOTH",
"44 64 OFFCURVE",
"149 -10 OFFCURVE",
"256 -10 CURVE SMOOTH"
);
}
);
width = 494;
}
);
unicode = 11C08;
},
{
glyphname = E_indi;
lastChange = "2017-07-03 19:48:37 +0000";
layers = (
{
layerId = UUID0;
paths = (
{
closed = 1;
nodes = (
"528 -10 OFFCURVE",
"623 120 OFFCURVE",
"623 174 CURVE SMOOTH",
"623 238 OFFCURVE",
"608 331 OFFCURVE",
"592 388 CURVE",
"726 388 LINE",
"726 408 LINE",
"565 560 LINE",
"543 560 LINE",
"380 408 LINE",
"380 388 LINE",
"506 388 LINE",
"524 328 OFFCURVE",
"541 216 OFFCURVE",
"541 125 CURVE SMOOTH",
"541 108 OFFCURVE",
"509 60 OFFCURVE",
"496 60 CURVE SMOOTH",
"429 60 OFFCURVE",
"377 165 OFFCURVE",
"350 165 CURVE SMOOTH",
"334 165 OFFCURVE",
"269 103 OFFCURVE",
"237 103 CURVE SMOOTH",
"206 103 OFFCURVE",
"122 230 OFFCURVE",
"122 272 CURVE SMOOTH",
"122 299 OFFCURVE",
"193 363 OFFCURVE",
"208 363 CURVE SMOOTH",
"232 363 OFFCURVE",
"255 338 OFFCURVE",
"277 288 CURVE",
"298 321 OFFCURVE",
"322 352 OFFCURVE",
"353 375 CURVE",
"353 400 OFFCURVE",
"292 465 OFFCURVE",
"263 465 CURVE SMOOTH",
"235 465 OFFCURVE",
"40 320 OFFCURVE",
"40 257 CURVE SMOOTH",
"40 196 OFFCURVE",
"137 33 OFFCURVE",
"216 33 CURVE SMOOTH",
"244 33 OFFCURVE",
"304 89 OFFCURVE",
"322 89 CURVE SMOOTH",
"335 89 OFFCURVE",
"403 -10 OFFCURVE",
"489 -10 CURVE SMOOTH"
);
}
);
width = 746;
}
);
unicode = 11C0A;
},
{
glyphname = AI_indi;
lastChange = "2017-07-03 19:48:37 +0000";
layers = (
{
layerId = UUID0;
paths = (
{
closed = 1;
nodes = (
"574 -10 OFFCURVE",
"669 120 OFFCURVE",
"669 174 CURVE SMOOTH",
"669 238 OFFCURVE",
"654 331 OFFCURVE",
"638 388 CURVE",
"766 388 LINE",
"766 408 LINE",
"605 560 LINE",
"583 560 LINE",
"420 408 LINE",
"420 388 LINE",
"552 388 LINE",
"570 328 OFFCURVE",
"587 216 OFFCURVE",
"587 125 CURVE SMOOTH",
"587 108 OFFCURVE",
"555 60 OFFCURVE",
"542 60 CURVE SMOOTH",
"475 60 OFFCURVE",
"423 165 OFFCURVE",
"396 165 CURVE SMOOTH",
"365 165 OFFCURVE",
"299 96 OFFCURVE",
"276 96 CURVE SMOOTH",
"245 96 OFFCURVE",
"184 172 OFFCURVE",
"184 191 CURVE SMOOTH",
"184 220 OFFCURVE",
"403 305 OFFCURVE",
"403 345 CURVE SMOOTH",
"403 388 OFFCURVE",
"321 522 OFFCURVE",
"291 560 CURVE",
"273 560 LINE",
"145 497 OFFCURVE",
"40 421 OFFCURVE",
"40 390 CURVE SMOOTH",
"40 364 OFFCURVE",
"73 318 OFFCURVE",
"112 293 CURVE",
"137 322 OFFCURVE",
"163 341 OFFCURVE",
"193 362 CURVE",
"165 377 OFFCURVE",
"144 392 OFFCURVE",
"144 411 CURVE SMOOTH",
"144 424 OFFCURVE",
"195 461 OFFCURVE",
"239 481 CURVE",
"250 472 OFFCURVE",
"311 369 OFFCURVE",
"311 347 CURVE SMOOTH",
"311 319 OFFCURVE",
"98 231 OFFCURVE",
"98 199 CURVE SMOOTH",
"98 135 OFFCURVE",
"193 26 OFFCURVE",
"254 26 CURVE SMOOTH",
"282 26 OFFCURVE",
"350 89 OFFCURVE",
"368 89 CURVE SMOOTH",
"381 89 OFFCURVE",
"449 -10 OFFCURVE",
"535 -10 CURVE SMOOTH"
);
}
);
width = 786;
}
);
unicode = 11C0B;
},
{
glyphname = O_indi;
lastChange = "2017-07-03 19:48:37 +0000";
layers = (
{
layerId = UUID0;
paths = (
{
closed = 1;
nodes = (
"340 -10 OFFCURVE",
"476 87 OFFCURVE",
"476 159 CURVE SMOOTH",
"476 203 OFFCURVE",
"445 256 OFFCURVE",
"352 278 CURVE",
"391 295 OFFCURVE",
"431 316 OFFCURVE",
"450 340 CURVE",
"736 340 LINE",
"736 360 LINE",
"575 512 LINE",
"553 512 LINE",
"444 411 LINE",
"411 463 OFFCURVE",
"338 535 OFFCURVE",
"300 560 CURVE",
"283 560 LINE",
"240 543 OFFCURVE",
"94 462 OFFCURVE",
"41 375 CURVE",
"81 366 OFFCURVE",
"116 353 OFFCURVE",
"143 331 CURVE",
"161 421 OFFCURVE",
"248 469 OFFCURVE",
"282 482 CURVE",
"303 472 OFFCURVE",
"370 403 OFFCURVE",
"370 368 CURVE SMOOTH",
"370 331 OFFCURVE",
"309 299 OFFCURVE",
"244 291 CURVE",
"244 273 OFFCURVE",
"242 266 OFFCURVE",
"237 250 CURVE",
"341 242 OFFCURVE",
"394 212 OFFCURVE",
"394 153 CURVE SMOOTH",
"394 115 OFFCURVE",
"328 60 OFFCURVE",
"262 60 CURVE SMOOTH",
"178 60 OFFCURVE",
"140 137 OFFCURVE",
"131 201 CURVE",
"103 180 OFFCURVE",
"71 164 OFFCURVE",
"30 156 CURVE",
"49 84 OFFCURVE",
"117 -10 OFFCURVE",
"246 -10 CURVE SMOOTH"
);
}
);
width = 756;
}
);
unicode = 11C0C;
},
{
glyphname = AU_indi;
lastChange = "2017-07-03 19:48:37 +0000";
layers = (
{
layerId = UUID0;
paths = (
{
closed = 1;
nodes = (
"530 -142 OFFCURVE",
"557 -130 OFFCURVE",
"582 -122 CURVE",
"571 -70 OFFCURVE",
"525 18 OFFCURVE",
"490 36 CURVE",
"461 29 OFFCURVE",
"436 15 OFFCURVE",
"410 -3 CURVE",
"420 -9 OFFCURVE",
"436 -31 OFFCURVE",
"452 -56 CURVE",
"429 -68 OFFCURVE",
"401 -80 OFFCURVE",
"380 -80 CURVE SMOOTH",
"330 -80 OFFCURVE",
"286 -48 OFFCURVE",
"267 -8 CURVE",
"359 4 OFFCURVE",
"476 92 OFFCURVE",
"476 159 CURVE SMOOTH",
"476 203 OFFCURVE",
"445 256 OFFCURVE",
"352 278 CURVE",
"391 295 OFFCURVE",
"431 316 OFFCURVE",
"450 340 CURVE",
"736 340 LINE",
"736 360 LINE",
"575 512 LINE",
"553 512 LINE",
"444 411 LINE",
"411 463 OFFCURVE",
"338 535 OFFCURVE",
"300 560 CURVE",
"283 560 LINE",
"240 543 OFFCURVE",
"94 462 OFFCURVE",
"41 375 CURVE",
"81 366 OFFCURVE",
"116 353 OFFCURVE",
"143 331 CURVE",
"161 421 OFFCURVE",
"248 469 OFFCURVE",
"282 482 CURVE",
"303 472 OFFCURVE",
"370 403 OFFCURVE",
"370 368 CURVE SMOOTH",
"370 331 OFFCURVE",
"309 299 OFFCURVE",
"244 291 CURVE",
"244 273 OFFCURVE",
"242 266 OFFCURVE",
"237 250 CURVE",
"341 242 OFFCURVE",
"394 212 OFFCURVE",
"394 153 CURVE SMOOTH",
"394 115 OFFCURVE",
"328 60 OFFCURVE",
"262 60 CURVE SMOOTH",
"178 60 OFFCURVE",
"140 137 OFFCURVE",
"131 201 CURVE",
"103 180 OFFCURVE",
"71 164 OFFCURVE",
"30 156 CURVE",
"45 98 OFFCURVE",
"92 26 OFFCURVE",
"178 0 CURVE",
"195 -87 OFFCURVE",
"267 -150 OFFCURVE",
"371 -150 CURVE SMOOTH",
"393 -150 OFFCURVE",
"445 -124 OFFCURVE",
"478 -103 CURVE",
"490 -128 OFFCURVE",
"500 -150 OFFCURVE",
"503 -161 CURVE"
);
}
);
width = 756;
}
);
unicode = 11C0D;
},
{
glyphname = Ka;
lastChange = "2017-07-03 19:48:37 +0000";
layers = (
{
layerId = UUID0;
paths = (
{
closed = 1;
nodes = (
"490 -77 OFFCURVE",
"522 -66 OFFCURVE",
"555 -62 CURVE",
"547 29 OFFCURVE",
"502 133 OFFCURVE",
"462 208 CURVE",
"445 279 OFFCURVE",
"377 314 OFFCURVE",
"317 326 CURVE",
"320 340 OFFCURVE",
"322 355 OFFCURVE",
"322 364 CURVE SMOOTH",
"322 372 OFFCURVE",
"321 380 OFFCURVE",
"319 388 CURVE",
"483 388 LINE",
"483 410 LINE",
"289 560 LINE",
"267 560 LINE",
"62 410 LINE",
"62 388 LINE",
"235 388 LINE",
"239 382 OFFCURVE",
"240 375 OFFCURVE",
"240 368 CURVE SMOOTH",
"240 358 OFFCURVE",
"237 343 OFFCURVE",
"232 329 CURVE",
"134 318 OFFCURVE",
"69 267 OFFCURVE",
"52 254 CURVE",
"68 229 LINE",
"112 245 OFFCURVE",
"179 255 OFFCURVE",
"251 255 CURVE SMOOTH",
"307 255 OFFCURVE",
"383 237 OFFCURVE",
"383 153 CURVE SMOOTH",
"383 105 OFFCURVE",
"311 60 OFFCURVE",
"275 60 CURVE SMOOTH",
"205 60 OFFCURVE",
"148 96 OFFCURVE",
"138 151 CURVE",
"114 137 OFFCURVE",
"89 123 OFFCURVE",
"40 114 CURVE",
"82 17 OFFCURVE",
"175 -10 OFFCURVE",
"254 -10 CURVE SMOOTH",
"327 -10 OFFCURVE",
"391 40 OFFCURVE",
"430 90 CURVE",
"450 27 OFFCURVE",
"459 -33 OFFCURVE",
"459 -95 CURVE"
);
}
);
width = 575;
}
);
unicode = 11C0E;
},
{
glyphname = Kha;
lastChange = "2017-07-03 19:48:37 +0000";
layers = (
{
layerId = UUID0;
paths = (
{
closed = 1;
nodes = (
"424 -10 OFFCURVE",
"508 101 OFFCURVE",
"508 184 CURVE SMOOTH",
"508 247 OFFCURVE",
"469 311 OFFCURVE",
"443 345 CURVE",
"350 274 LINE",
"399 243 OFFCURVE",
"426 198 OFFCURVE",
"426 156 CURVE SMOOTH",
"426 111 OFFCURVE",
"377 60 OFFCURVE",
"350 60 CURVE SMOOTH",
"298 60 OFFCURVE",
"225 155 OFFCURVE",
"179 184 CURVE",
"279 266 OFFCURVE",
"449 269 OFFCURVE",
"449 369 CURVE SMOOTH",
"449 427 OFFCURVE",
"337 527 OFFCURVE",
"287 560 CURVE",
"270 560 LINE",
"227 543 OFFCURVE",
"81 462 OFFCURVE",
"28 375 CURVE",
"68 366 OFFCURVE",
"103 353 OFFCURVE",
"130 331 CURVE",
"148 421 OFFCURVE",
"235 469 OFFCURVE",
"269 482 CURVE",
"290 472 OFFCURVE",
"357 417 OFFCURVE",
"357 379 CURVE SMOOTH",
"357 318 OFFCURVE",
"152 249 OFFCURVE",
"20 146 CURVE",
"34 116 LINE",
"58 121 OFFCURVE",
"82 130 OFFCURVE",
"108 130 CURVE SMOOTH",
"122 130 OFFCURVE",
"147 117 OFFCURVE",
"185 78 CURVE SMOOTH",
"224 37 OFFCURVE",
"269 -10 OFFCURVE",
"337 -10 CURVE SMOOTH"
);
}
);
width = 548;
}
);
unicode = 11C0F;
},
{
glyphname = Ga;
lastChange = "2017-07-03 19:48:37 +0000";
layers = (
{
layerId = UUID0;
paths = (
{
closed = 1;
nodes = (
"394 28 OFFCURVE",
"478 95 OFFCURVE",
"478 141 CURVE SMOOTH",
"478 147 OFFCURVE",
"456 237 OFFCURVE",
"416 340 CURVE",
"706 340 LINE",
"706 360 LINE",
"545 512 LINE",
"523 512 LINE",
"394 392 LINE",
"368 451 OFFCURVE",
"336 511 OFFCURVE",
"299 560 CURVE",
"277 560 LINE",
"221 532 OFFCURVE",
"40 409 OFFCURVE",
"40 352 CURVE SMOOTH",
"40 322 OFFCURVE",
"61 296 OFFCURVE",
"107 259 CURVE",
"129 282 OFFCURVE",
"152 304 OFFCURVE",
"193 322 CURVE",
"171 339 OFFCURVE",
"146 353 OFFCURVE",
"146 372 CURVE SMOOTH",
"146 391 OFFCURVE",
"177 435 OFFCURVE",
"254 477 CURVE",
"293 450 OFFCURVE",
"387 197 OFFCURVE",
"387 155 CURVE SMOOTH",
"387 132 OFFCURVE",
"318 98 OFFCURVE",
"258 73 CURVE",
"288 49 OFFCURVE",
"309 21 OFFCURVE",
"320 -14 CURVE"
);
}
);
width = 726;
}
);
unicode = 11C10;
},
{
glyphname = Gha;
lastChange = "2017-07-03 19:48:37 +0000";
layers = (
{
layerId = UUID0;
paths = (
{
closed = 1;
nodes = (
"536 -10 OFFCURVE",
"672 144 OFFCURVE",
"672 167 CURVE SMOOTH",
"672 206 OFFCURVE",
"622 253 OFFCURVE",
"574 290 CURVE",
"584 301 OFFCURVE",
"606 316 OFFCURVE",
"606 337 CURVE SMOOTH",
"606 349 OFFCURVE",
"602 369 OFFCURVE",
"591 388 CURVE",
"716 388 LINE",
"716 408 LINE",
"555 560 LINE",
"533 560 LINE",
"378 415 LINE",
"225 560 LINE",
"203 560 LINE",
"40 408 LINE",
"40 388 LINE",
"186 388 LINE",
"194 380 OFFCURVE",
"198 370 OFFCURVE",
"198 360 CURVE SMOOTH",
"198 302 OFFCURVE",
"94 242 OFFCURVE",
"46 221 CURVE",
"54 183 LINE",
"66 187 OFFCURVE",
"77 191 OFFCURVE",
"86 196 CURVE",
"97 148 OFFCURVE",
"136 33 OFFCURVE",
"233 33 CURVE SMOOTH",
"255 33 OFFCURVE",
"316 89 OFFCURVE",
"334 89 CURVE SMOOTH",
"347 89 OFFCURVE",
"419 -10 OFFCURVE",
"473 -10 CURVE SMOOTH"
);
},
{
closed = 1;
nodes = (
"449 60 OFFCURVE",
"381 165 OFFCURVE",
"358 165 CURVE SMOOTH",
"343 165 OFFCURVE",
"269 103 OFFCURVE",
"242 103 CURVE SMOOTH",
"220 103 OFFCURVE",
"164 165 OFFCURVE",
"160 222 CURVE",
"203 249 OFFCURVE",
"280 307 OFFCURVE",
"280 360 CURVE SMOOTH",
"280 368 OFFCURVE",
"278 378 OFFCURVE",
"274 388 CURVE",
"494 388 LINE",
"509 372 OFFCURVE",
"517 353 OFFCURVE",
"517 339 CURVE SMOOTH",
"517 314 OFFCURVE",
"484 296 OFFCURVE",
"454 291 CURVE",
"460 267 LINE",
"502 256 OFFCURVE",
"589 190 OFFCURVE",
"589 142 CURVE SMOOTH",
"589 124 OFFCURVE",
"532 60 OFFCURVE",
"494 60 CURVE SMOOTH"
);
}
);
width = 736;
}
);
unicode = 11C11;
},
{
glyphname = Nga;
lastChange = "2017-07-03 19:48:37 +0000";
layers = (
{
layerId = UUID0;
paths = (
{
closed = 1;
nodes = (
"483 5 OFFCURVE",
"565 69 OFFCURVE",
"565 93 CURVE SMOOTH",
"565 115 OFFCURVE",
"437 232 OFFCURVE",
"416 232 CURVE SMOOTH",
"390 232 OFFCURVE",
"255 156 OFFCURVE",
"238 156 CURVE SMOOTH",
"217 156 OFFCURVE",
"160 205 OFFCURVE",
"160 224 CURVE SMOOTH",
"160 244 OFFCURVE",
"347 302 OFFCURVE",
"347 345 CURVE SMOOTH",
"347 358 OFFCURVE",
"344 372 OFFCURVE",
"340 388 CURVE",
"488 388 LINE",
"488 410 LINE",
"465 427 LINE",
"567 495 LINE",
"605 468 OFFCURVE",
"649 422 OFFCURVE",
"649 409 CURVE SMOOTH",
"649 390 OFFCURVE",
"628 358 OFFCURVE",
"600 343 CURVE",
"630 322 OFFCURVE",
"633 316 OFFCURVE",
"658 287 CURVE",
"678 300 OFFCURVE",
"700 320 OFFCURVE",
"715 340 CURVE",
"1048 340 LINE",
"1048 360 LINE",
"887 512 LINE",
"865 512 LINE",
"739 394 LINE",
"737 433 OFFCURVE",
"719 472 OFFCURVE",
"602 560 CURVE",
"579 560 LINE",
"432 453 LINE",
"294 560 LINE",
"272 560 LINE",
"67 410 LINE",
"67 388 LINE",
"249 388 LINE",
"253 374 OFFCURVE",
"255 360 OFFCURVE",
"255 348 CURVE SMOOTH",
"255 318 OFFCURVE",
"74 242 OFFCURVE",
"40 231 CURVE",
"45 196 LINE",
"58 197 OFFCURVE",
"72 201 OFFCURVE",
"85 205 CURVE",
"85 180 OFFCURVE",
"158 86 OFFCURVE",
"219 86 CURVE SMOOTH",
"235 86 OFFCURVE",
"369 159 OFFCURVE",
"391 159 CURVE SMOOTH",
"406 159 OFFCURVE",
"456 115 OFFCURVE",
"456 103 CURVE SMOOTH",
"456 90 OFFCURVE",
"399 68 OFFCURVE",
"374 61 CURVE",
"396 45 OFFCURVE",
"418 17 OFFCURVE",
"435 -13 CURVE"
);
}
);
width = 1068;
}
);
unicode = 11C12;
},
{
glyphname = Ca;
lastChange = "2017-07-03 19:48:37 +0000";
layers = (
{
layerId = UUID0;
paths = (
{
closed = 1;
nodes = (
"382 -10 OFFCURVE",
"499 116 OFFCURVE",
"499 146 CURVE SMOOTH",
"499 204 OFFCURVE",
"454 275 OFFCURVE",
"389 299 CURVE",
"395 316 OFFCURVE",
"399 337 OFFCURVE",
"399 350 CURVE SMOOTH",
"399 362 OFFCURVE",
"396 375 OFFCURVE",
"391 388 CURVE",
"534 388 LINE",
"534 410 LINE",
"340 560 LINE",
"318 560 LINE",
"113 410 LINE",
"113 388 LINE",
"304 388 LINE",
"313 379 OFFCURVE",
"317 369 OFFCURVE",
"317 358 CURVE SMOOTH",
"317 344 OFFCURVE",
"311 320 OFFCURVE",
"302 302 CURVE",
"205 280 OFFCURVE",
"85 196 OFFCURVE",
"20 151 CURVE",
"42 113 LINE",
"66 118 OFFCURVE",
"86 127 OFFCURVE",
"99 127 CURVE SMOOTH",
"116 127 OFFCURVE",
"135 106 OFFCURVE",
"167 77 CURVE SMOOTH",
"203 44 OFFCURVE",
"253 -10 OFFCURVE",
"319 -10 CURVE SMOOTH"
);
},
{
closed = 1;
nodes = (
"290 60 OFFCURVE",
"207 142 OFFCURVE",
"178 176 CURVE",
"228 205 OFFCURVE",
"279 238 OFFCURVE",
"325 238 CURVE SMOOTH",
"367 238 OFFCURVE",
"417 174 OFFCURVE",
"417 141 CURVE SMOOTH",
"417 126 OFFCURVE",
"353 60 OFFCURVE",
"330 60 CURVE SMOOTH"
);
}
);
width = 554;
}
);
unicode = 11C13;
},
{
glyphname = Cha;
lastChange = "2017-07-03 19:48:37 +0000";
layers = (
{
layerId = UUID0;
paths = (
{
closed = 1;
nodes = (
"478 -10 OFFCURVE",
"558 104 OFFCURVE",
"558 118 CURVE SMOOTH",
"558 223 OFFCURVE",
"466 298 OFFCURVE",
"323 308 CURVE",
"325 337 OFFCURVE",
"332 364 OFFCURVE",
"341 388 CURVE",
"516 388 LINE",
"516 410 LINE",
"322 560 LINE",
"300 560 LINE",
"95 410 LINE",
"95 388 LINE",
"258 388 LINE",
"250 361 OFFCURVE",
"244 330 OFFCURVE",
"241 303 CURVE",
"133 279 OFFCURVE",
"40 184 OFFCURVE",
"40 131 CURVE SMOOTH",
"40 45 OFFCURVE",
"108 0 OFFCURVE",
"183 0 CURVE SMOOTH",
"209 0 OFFCURVE",
"260 27 OFFCURVE",
"294 57 CURVE",
"320 18 OFFCURVE",
"358 -10 OFFCURVE",
"413 -10 CURVE SMOOTH"
);
},
{
closed = 1;
nodes = (
"170 70 OFFCURVE",
"122 89 OFFCURVE",
"122 141 CURVE SMOOTH",
"122 167 OFFCURVE",
"159 218 OFFCURVE",
"242 235 CURVE",
"245 196 OFFCURVE",
"253 146 OFFCURVE",
"272 100 CURVE",
"245 82 OFFCURVE",
"208 70 OFFCURVE",
"200 70 CURVE SMOOTH"
);
},
{
closed = 1;
nodes = (
"360 60 OFFCURVE",
"331 153 OFFCURVE",
"324 239 CURVE",
"421 232 OFFCURVE",
"476 187 OFFCURVE",
"476 115 CURVE SMOOTH",
"476 95 OFFCURVE",
"451 60 OFFCURVE",
"432 60 CURVE SMOOTH"
);
}
);
width = 598;
}
);
unicode = 11C14;
},
{
glyphname = Ja;
lastChange = "2017-07-03 19:48:37 +0000";
layers = (
{
layerId = UUID0;
paths = (
{
closed = 1;
nodes = (
"747 388 LINE",
"747 408 LINE",
"586 560 LINE",
"564 560 LINE",
"409 415 LINE",
"256 560 LINE",
"234 560 LINE",
"71 408 LINE",
"71 388 LINE",
"193 388 LINE",
"222 378 OFFCURVE",
"233 363 OFFCURVE",
"233 345 CURVE SMOOTH",
"233 287 OFFCURVE",
"74 219 OFFCURVE",
"40 206 CURVE",
"48 168 LINE",
"60 172 OFFCURVE",
"81 176 OFFCURVE",
"90 181 CURVE",
"98 144 OFFCURVE",
"127 60 OFFCURVE",
"182 28 CURVE",
"202 51 OFFCURVE",
"224 71 OFFCURVE",
"247 89 CURVE",
"206 101 OFFCURVE",
"169 150 OFFCURVE",
"164 207 CURVE",
"187 221 OFFCURVE",
"230 245 OFFCURVE",
"264 272 CURVE",
"272 235 OFFCURVE",
"277 196 OFFCURVE",
"280 161 CURVE",
"309 182 OFFCURVE",
"339 196 OFFCURVE",
"372 204 CURVE",
"361 254 OFFCURVE",
"339 307 OFFCURVE",
"314 357 CURVE",
"312 366 OFFCURVE",
"308 377 OFFCURVE",
"301 388 CURVE",
"520 388 LINE",
"554 321 OFFCURVE",
"588 153 OFFCURVE",
"588 101 CURVE SMOOTH",
"588 90 OFFCURVE",
"567 60 OFFCURVE",
"546 60 CURVE SMOOTH",
"502 60 OFFCURVE",
"463 77 OFFCURVE",
"430 99 CURVE",
"412 67 OFFCURVE",
"392 48 OFFCURVE",
"371 32 CURVE",
"413 8 OFFCURVE",
"462 -10 OFFCURVE",
"515 -10 CURVE SMOOTH",
"547 -10 OFFCURVE",
"670 67 OFFCURVE",
"670 117 CURVE SMOOTH",
"670 144 OFFCURVE",
"643 305 OFFCURVE",
"605 388 CURVE"
);
}
);
width = 767;
}
);
unicode = 11C15;
},
{
glyphname = Jha;
lastChange = "2017-07-03 19:48:37 +0000";
layers = (
{
layerId = UUID0;
paths = (
{
closed = 1;
nodes = (
"548 -52 OFFCURVE",
"575 -40 OFFCURVE",
"600 -32 CURVE",
"589 20 OFFCURVE",
"543 108 OFFCURVE",
"508 126 CURVE",
"479 119 OFFCURVE",
"454 105 OFFCURVE",
"428 87 CURVE",
"438 80 OFFCURVE",
"454 59 OFFCURVE",
"470 33 CURVE",
"447 22 OFFCURVE",
"419 10 OFFCURVE",
"398 10 CURVE SMOOTH",
"346 10 OFFCURVE",
"302 43 OFFCURVE",
"283 85 CURVE",
"319 88 OFFCURVE",
"436 153 OFFCURVE",
"436 202 CURVE SMOOTH",
"436 228 OFFCURVE",
"403 321 OFFCURVE",
"358 388 CURVE",
"504 388 LINE",
"504 410 LINE",
"310 560 LINE",
"288 560 LINE",
"83 410 LINE",
"83 388 LINE",
"270 388 LINE",
"306 333 OFFCURVE",
"354 238 OFFCURVE",
"354 186 CURVE SMOOTH",
"354 175 OFFCURVE",
"333 155 OFFCURVE",
"312 155 CURVE SMOOTH",
"210 155 OFFCURVE",
"134 243 OFFCURVE",
"101 289 CURVE",
"77 256 OFFCURVE",
"49 240 OFFCURVE",
"20 220 CURVE",
"43 195 OFFCURVE",
"109 130 OFFCURVE",
"194 100 CURVE",
"208 8 OFFCURVE",
"281 -60 OFFCURVE",
"389 -60 CURVE SMOOTH",
"411 -60 OFFCURVE",
"463 -34 OFFCURVE",
"496 -13 CURVE",
"508 -38 OFFCURVE",
"518 -60 OFFCURVE",
"521 -71 CURVE"
);
}
);
width = 620;
}
);
unicode = 11C16;
},
{
glyphname = Nya;
lastChange = "2017-07-03 19:48:37 +0000";
layers = (
{
layerId = UUID0;
paths = (
{
closed = 1;
nodes = (
"634 -6 OFFCURVE",
"679 -1 OFFCURVE",
"707 0 CURVE",
"701 63 OFFCURVE",
"631 296 OFFCURVE",
"597 388 CURVE",
"736 388 LINE",
"736 408 LINE",
"575 560 LINE",
"553 560 LINE",
"409 426 LINE",
"377 487 OFFCURVE",
"343 542 OFFCURVE",
"326 560 CURVE",
"308 560 LINE",
"180 497 OFFCURVE",
"40 405 OFFCURVE",
"40 374 CURVE SMOOTH",
"40 348 OFFCURVE",
"73 302 OFFCURVE",
"112 277 CURVE",
"137 306 OFFCURVE",
"163 325 OFFCURVE",
"193 346 CURVE",
"165 361 OFFCURVE",
"144 376 OFFCURVE",
"144 395 CURVE SMOOTH",
"144 408 OFFCURVE",
"239 467 OFFCURVE",
"283 487 CURVE",
"324 438 OFFCURVE",
"408 255 OFFCURVE",
"408 213 CURVE SMOOTH",
"408 193 OFFCURVE",
"349 130 OFFCURVE",
"309 130 CURVE SMOOTH",
"239 130 OFFCURVE",
"180 169 OFFCURVE",
"154 227 CURVE",
"133 202 OFFCURVE",
"109 181 OFFCURVE",
"82 166 CURVE",
"122 110 OFFCURVE",
"184 60 OFFCURVE",
"289 60 CURVE SMOOTH",
"362 60 OFFCURVE",
"490 179 OFFCURVE",
"490 223 CURVE SMOOTH",
"490 253 OFFCURVE",
"462 321 OFFCURVE",
"429 388 CURVE",
"531 388 LINE",
"562 290 OFFCURVE",
"610 35 OFFCURVE",
"610 -10 CURVE"
);
}
);
width = 756;
}
);
unicode = 11C17;
},
{
glyphname = Tta;
lastChange = "2017-07-03 19:48:37 +0000";
layers = (
{
layerId = UUID0;
paths = (
{
closed = 1;
nodes = (
"599 65 OFFCURVE",
"710 181 OFFCURVE",
"710 225 CURVE SMOOTH",
"710 251 OFFCURVE",
"696 294 OFFCURVE",
"676 340 CURVE",
"969 340 LINE",
"969 360 LINE",
"808 512 LINE",
"786 512 LINE",
"653 388 LINE",
"627 441 OFFCURVE",
"597 489 OFFCURVE",
"579 508 CURVE",
"561 508 LINE",
"505 480 OFFCURVE",
"424 405 OFFCURVE",
"408 405 CURVE SMOOTH",
"397 405 OFFCURVE",
"323 541 OFFCURVE",
"305 560 CURVE",
"287 560 LINE",
"159 497 OFFCURVE",
"40 339 OFFCURVE",
"40 308 CURVE SMOOTH",
"40 282 OFFCURVE",
"160 131 OFFCURVE",
"199 106 CURVE",
"261 183 LINE",
"233 198 OFFCURVE",
"122 284 OFFCURVE",
"122 329 CURVE SMOOTH",
"122 342 OFFCURVE",
"188 436 OFFCURVE",
"262 487 CURVE",
"276 452 OFFCURVE",
"348 319 OFFCURVE",
"371 319 CURVE SMOOTH",
"394 319 OFFCURVE",
"506 422 OFFCURVE",
"536 435 CURVE",
"577 386 OFFCURVE",
"628 257 OFFCURVE",
"628 215 CURVE SMOOTH",
"628 195 OFFCURVE",
"533 118 OFFCURVE",
"478 101 CURVE",
"515 30 LINE"
);
}
);
width = 989;
}
);
unicode = 11C18;
},
{
glyphname = Ttha;
lastChange = "2017-07-03 19:48:37 +0000";
layers = (
{
layerId = UUID0;
paths = (
{
closed = 1;
nodes = (
"455 95 OFFCURVE",
"600 241 OFFCURVE",
"600 290 CURVE SMOOTH",
"600 305 OFFCURVE",
"596 322 OFFCURVE",
"589 340 CURVE",
"868 340 LINE",
"868 360 LINE",
"707 512 LINE",
"685 512 LINE",
"560 396 LINE",
"519 461 OFFCURVE",
"450 526 OFFCURVE",
"388 550 CURVE",
"355 550 LINE",
"232 532 OFFCURVE",
"40 425 OFFCURVE",
"40 351 CURVE SMOOTH",
"40 273 OFFCURVE",
"113 95 OFFCURVE",
"351 95 CURVE SMOOTH"
);
},
{
closed = 1;
nodes = (
"216 165 OFFCURVE",
"122 250 OFFCURVE",
"122 352 CURVE SMOOTH",
"122 401 OFFCURVE",
"254 474 OFFCURVE",
"348 482 CURVE",
"415 470 OFFCURVE",
"518 353 OFFCURVE",
"518 281 CURVE SMOOTH",
"518 238 OFFCURVE",
"426 165 OFFCURVE",
"359 165 CURVE SMOOTH"
);
}
);
width = 888;
}
);
unicode = 11C19;
},
{
glyphname = Dda;
lastChange = "2017-07-03 19:48:37 +0000";
layers = (
{
layerId = UUID0;
paths = (
{
closed = 1;
nodes = (
"339 -10 OFFCURVE",
"426 56 OFFCURVE",
"470 96 CURVE",
"439 127 LINE",
"370 66 OFFCURVE",
"325 60 OFFCURVE",
"275 60 CURVE SMOOTH",
"246 60 OFFCURVE",
"201 76 OFFCURVE",
"194 126 CURVE",
"239 149 OFFCURVE",
"343 213 OFFCURVE",
"344 278 CURVE SMOOTH",
"344 307 OFFCURVE",
"333 340 OFFCURVE",
"300 354 CURVE",
"300 360 LINE SMOOTH",
"300 369 OFFCURVE",
"299 378 OFFCURVE",
"296 388 CURVE",
"455 388 LINE",
"455 410 LINE",
"261 560 LINE",
"239 560 LINE",
"34 410 LINE",
"34 388 LINE",
"204 388 LINE",
"209 380 OFFCURVE",
"211 372 OFFCURVE",
"211 364 CURVE SMOOTH",
"211 360 OFFCURVE",
"210 356 OFFCURVE",
"210 352 CURVE",
"136 326 OFFCURVE",
"48 256 OFFCURVE",
"30 244 CURVE",
"49 217 LINE",
"132 267 OFFCURVE",
"186 292 OFFCURVE",
"227 292 CURVE SMOOTH",
"249 292 OFFCURVE",
"262 286 OFFCURVE",
"262 265 CURVE SMOOTH",
"262 226 OFFCURVE",
"174 151 OFFCURVE",
"57 108 CURVE",
"63 70 LINE",
"82 74 OFFCURVE",
"99 81 OFFCURVE",
"116 89 CURVE",
"134 44 OFFCURVE",
"169 -10 OFFCURVE",
"256 -10 CURVE SMOOTH"
);
}
);
width = 490;
}
);
unicode = 11C1A;
},
{
glyphname = Ddha;
lastChange = "2017-07-03 19:48:37 +0000";
layers = (
{
layerId = UUID0;
paths = (
{
closed = 1;
nodes = (
"332 -10 OFFCURVE",
"482 100 OFFCURVE",
"482 148 CURVE SMOOTH",
"482 204 OFFCURVE",
"438 270 OFFCURVE",
"407 283 CURVE",
"388 261 OFFCURVE",
"355 236 OFFCURVE",
"325 225 CURVE",
"375 208 OFFCURVE",
"400 164 OFFCURVE",
"400 129 CURVE SMOOTH",
"400 109 OFFCURVE",
"335 60 OFFCURVE",
"300 60 CURVE SMOOTH",
"263 60 OFFCURVE",
"174 102 OFFCURVE",
"167 202 CURVE",
"228 240 OFFCURVE",
"316 296 OFFCURVE",
"317 348 CURVE SMOOTH",
"317 359 OFFCURVE",
"313 373 OFFCURVE",
"306 388 CURVE",
"467 388 LINE",
"467 410 LINE",
"273 560 LINE",
"251 560 LINE",
"46 410 LINE",
"46 388 LINE",
"210 388 LINE",
"228 377 OFFCURVE",
"235 363 OFFCURVE",
"235 348 CURVE SMOOTH",
"235 309 OFFCURVE",
"136 226 OFFCURVE",
"20 189 CURVE",
"28 144 LINE",
"47 148 OFFCURVE",
"64 155 OFFCURVE",
"81 163 CURVE",
"107 80 OFFCURVE",
"171 -10 OFFCURVE",
"280 -10 CURVE SMOOTH"
);
}
);
width = 522;
}
);
unicode = 11C1B;
},
{
glyphname = Nna;
lastChange = "2017-07-03 19:48:37 +0000";
layers = (
{
layerId = UUID0;
paths = (
{
closed = 1;
nodes = (
"420 38 OFFCURVE",
"454 109 OFFCURVE",
"454 171 CURVE SMOOTH",
"454 193 OFFCURVE",
"427 272 OFFCURVE",
"318 291 CURVE",
"372 314 OFFCURVE",
"428 345 OFFCURVE",
"428 382 CURVE SMOOTH",
"428 393 OFFCURVE",
"421 408 OFFCURVE",
"411 425 CURVE",
"517 495 LINE",
"555 468 OFFCURVE",
"599 422 OFFCURVE",
"599 409 CURVE SMOOTH",
"599 390 OFFCURVE",
"578 358 OFFCURVE",
"550 343 CURVE",
"580 322 OFFCURVE",
"583 316 OFFCURVE",
"608 287 CURVE",
"628 300 OFFCURVE",
"650 320 OFFCURVE",
"665 340 CURVE",
"998 340 LINE",
"998 360 LINE",
"837 512 LINE",
"815 512 LINE",
"689 394 LINE",
"687 433 OFFCURVE",
"669 472 OFFCURVE",
"552 560 CURVE",
"529 560 LINE",
"387 457 LINE",
"354 498 OFFCURVE",
"308 541 OFFCURVE",
"279 560 CURVE",
"262 560 LINE",
"219 543 OFFCURVE",
"73 462 OFFCURVE",
"20 375 CURVE",
"60 366 OFFCURVE",
"95 353 OFFCURVE",
"122 331 CURVE",
"140 421 OFFCURVE",
"227 469 OFFCURVE",
"261 482 CURVE",
"282 472 OFFCURVE",
"336 416 OFFCURVE",
"336 381 CURVE SMOOTH",
"336 344 OFFCURVE",
"282 306 OFFCURVE",
"171 263 CURVE",
"183 248 OFFCURVE",
"193 226 OFFCURVE",
"200 203 CURVE",
"243 220 OFFCURVE",
"265 225 OFFCURVE",
"292 225 CURVE SMOOTH",
"337 225 OFFCURVE",
"372 194 OFFCURVE",
"372 167 CURVE SMOOTH",
"372 125 OFFCURVE",
"313 69 OFFCURVE",
"246 49 CURVE",
"275 32 OFFCURVE",
"298 12 OFFCURVE",
"320 -10 CURVE"
);
}
);
width = 1018;
}
);
unicode = 11C1C;
},
{
glyphname = Ta;
lastChange = "2017-07-03 19:48:37 +0000";
layers = (
{
layerId = UUID0;
paths = (
{
closed = 1;
nodes = (
"330 12 OFFCURVE",
"455 75 OFFCURVE",
"455 141 CURVE SMOOTH",
"455 179 OFFCURVE",
"358 330 OFFCURVE",
"301 388 CURVE",
"473 388 LINE",
"473 410 LINE",
"279 560 LINE",
"257 560 LINE",
"52 410 LINE",
"52 388 LINE",
"222 388 LINE",
"158 349 OFFCURVE",
"40 268 OFFCURVE",
"40 234 CURVE SMOOTH",
"40 203 OFFCURVE",
"59 168 OFFCURVE",
"106 130 CURVE",
"130 159 OFFCURVE",
"158 183 OFFCURVE",
"192 202 CURVE",
"157 218 OFFCURVE",
"144 234 OFFCURVE",
"144 256 CURVE SMOOTH",
"144 284 OFFCURVE",
"225 341 OFFCURVE",
"252 341 CURVE SMOOTH",
"272 341 OFFCURVE",
"373 172 OFFCURVE",
"373 156 CURVE SMOOTH",
"373 125 OFFCURVE",
"250 76 OFFCURVE",
"200 68 CURVE",
"212 53 OFFCURVE",
"237 10 OFFCURVE",
"244 -13 CURVE"
);
}
);
width = 513;
}
);
unicode = 11C1D;
},
{
glyphname = Tha;
lastChange = "2017-07-03 19:48:37 +0000";
layers = (
{
layerId = UUID0;
paths = (
{
closed = 1;
nodes = (
"418 -10 OFFCURVE",
"502 137 OFFCURVE",
"502 162 CURVE SMOOTH",
"502 203 OFFCURVE",
"479 271 OFFCURVE",
"447 340 CURVE",
"748 340 LINE",
"748 360 LINE",
"587 512 LINE",
"565 512 LINE",
"426 382 LINE",
"385 460 OFFCURVE",
"334 532 OFFCURVE",
"294 560 CURVE",
"258 560 LINE",
"219 541 OFFCURVE",
"40 421 OFFCURVE",
"40 379 CURVE SMOOTH",
"40 348 OFFCURVE",
"71 301 OFFCURVE",
"118 263 CURVE",
"142 292 OFFCURVE",
"170 316 OFFCURVE",
"204 335 CURVE",
"169 351 OFFCURVE",
"144 379 OFFCURVE",
"144 401 CURVE SMOOTH",
"144 428 OFFCURVE",
"222 490 OFFCURVE",
"252 495 CURVE",
"285 467 OFFCURVE",
"332 390 OFFCURVE",
"368 313 CURVE",
"352 316 OFFCURVE",
"335 318 OFFCURVE",
"322 318 CURVE SMOOTH",
"219 318 OFFCURVE",
"114 241 OFFCURVE",
"114 170 CURVE SMOOTH",
"114 107 OFFCURVE",
"275 -10 OFFCURVE",
"331 -10 CURVE SMOOTH"
);
},
{
closed = 1;
nodes = (
"300 60 OFFCURVE",
"197 145 OFFCURVE",
"197 180 CURVE SMOOTH",
"197 210 OFFCURVE",
"239 246 OFFCURVE",
"308 246 CURVE SMOOTH",
"341 246 OFFCURVE",
"376 240 OFFCURVE",
"402 231 CURVE",
"413 199 OFFCURVE",
"420 170 OFFCURVE",
"420 151 CURVE SMOOTH",
"420 128 OFFCURVE",
"371 60 OFFCURVE",
"344 60 CURVE SMOOTH"
);
}
);
width = 768;
}
);
unicode = 11C1E;
},
{
glyphname = Da;
lastChange = "2017-07-03 19:48:37 +0000";
layers = (
{
layerId = UUID0;
paths = (
{
closed = 1;
nodes = (
"354 -10 OFFCURVE",
"443 62 OFFCURVE",
"487 102 CURVE",
"458 135 LINE",
"389 74 OFFCURVE",
"337 60 OFFCURVE",
"295 60 CURVE SMOOTH",
"258 60 OFFCURVE",
"174 102 OFFCURVE",
"167 202 CURVE",
"228 240 OFFCURVE",
"316 296 OFFCURVE",
"317 348 CURVE SMOOTH",
"317 359 OFFCURVE",
"313 373 OFFCURVE",
"306 388 CURVE",
"467 388 LINE",
"467 410 LINE",
"273 560 LINE",
"251 560 LINE",
"46 410 LINE",
"46 388 LINE",
"210 388 LINE",
"228 377 OFFCURVE",
"235 363 OFFCURVE",
"235 348 CURVE SMOOTH",
"235 309 OFFCURVE",
"136 226 OFFCURVE",
"20 189 CURVE",
"28 144 LINE",
"47 148 OFFCURVE",
"64 155 OFFCURVE",
"81 163 CURVE",
"107 80 OFFCURVE",
"171 -10 OFFCURVE",
"280 -10 CURVE SMOOTH"
);
}
);
width = 507;
}
);
unicode = 11C1F;
},
{
glyphname = Dha;
lastChange = "2017-07-03 19:48:37 +0000";
layers = (
{
layerId = UUID0;
paths = (
{
closed = 1;
nodes = (
"450 -10 OFFCURVE",
"548 130 OFFCURVE",
"548 166 CURVE SMOOTH",
"548 211 OFFCURVE",
"525 273 OFFCURVE",
"490 340 CURVE",
"799 340 LINE",
"799 360 LINE",
"638 512 LINE",
"616 512 LINE",
"471 376 LINE",
"439 433 OFFCURVE",
"401 491 OFFCURVE",
"363 545 CURVE",
"341 545 LINE",
"285 517 OFFCURVE",
"40 385 OFFCURVE",
"40 328 CURVE SMOOTH",
"40 305 OFFCURVE",
"52 285 OFFCURVE",
"77 260 CURVE",
"107 142 OFFCURVE",
"180 -10 OFFCURVE",
"346 -10 CURVE SMOOTH"
);
},
{
closed = 1;
nodes = (
"241 60 OFFCURVE",
"183 165 OFFCURVE",
"164 277 CURVE",
"193 298 LINE",
"171 315 OFFCURVE",
"146 329 OFFCURVE",
"146 348 CURVE SMOOTH",
"146 367 OFFCURVE",
"241 420 OFFCURVE",
"318 462 CURVE",
"357 435 OFFCURVE",
"466 215 OFFCURVE",
"466 154 CURVE SMOOTH",
"466 111 OFFCURVE",
"421 60 OFFCURVE",
"354 60 CURVE SMOOTH"
);
}
);
width = 819;
}
);
unicode = 11C20;
},
{
glyphname = Na;
lastChange = "2017-07-03 19:48:37 +0000";
layers = (
{
layerId = UUID0;
paths = (
{
closed = 1;
nodes = (
"346 5 OFFCURVE",
"425 86 OFFCURVE",
"425 178 CURVE SMOOTH",
"425 281 OFFCURVE",
"335 331 OFFCURVE",
"255 331 CURVE SMOOTH",
"187 331 OFFCURVE",
"123 290 OFFCURVE",
"86 258 CURVE",
"108 203 LINE",
"144 233 OFFCURVE",
"184 255 OFFCURVE",
"239 255 CURVE SMOOTH",
"295 255 OFFCURVE",
"341 235 OFFCURVE",
"341 185 CURVE SMOOTH",
"341 103 OFFCURVE",
"218 73 OFFCURVE",
"182 73 CURVE",
"212 45 OFFCURVE",
"229 18 OFFCURVE",
"237 -10 CURVE"
);
},
{
closed = 1;
nodes = (
"294 306 OFFCURVE",
"300 339 OFFCURVE",
"300 356 CURVE SMOOTH",
"300 380 OFFCURVE",
"290 408 OFFCURVE",
"270 431 CURVE",
"160 413 LINE",
"197 403 OFFCURVE",
"211 382 OFFCURVE",
"211 360 CURVE SMOOTH",
"211 346 OFFCURVE",
"205 324 OFFCURVE",
"195 306 CURVE",
"283 290 LINE"
);
},
{
closed = 1;
nodes = (
"461 388 LINE",
"461 410 LINE",
"267 560 LINE",
"245 560 LINE",
"40 410 LINE",
"40 388 LINE"
);
}
);
width = 501;
}
);
unicode = 11C21;
},
{
glyphname = Pa;
lastChange = "2017-07-03 19:48:37 +0000";
layers = (
{
layerId = UUID0;
paths = (
{
closed = 1;
nodes = (
"507 -10 OFFCURVE",
"605 127 OFFCURVE",
"605 176 CURVE SMOOTH",
"605 253 OFFCURVE",
"574 340 OFFCURVE",
"541 388 CURVE",
"666 388 LINE",
"666 408 LINE",
"505 560 LINE",
"483 560 LINE",
"320 408 LINE",
"320 388 LINE",
"452 388 LINE",
"497 337 OFFCURVE",
"523 228 OFFCURVE",
"523 164 CURVE SMOOTH",
"523 121 OFFCURVE",
"478 60 OFFCURVE",
"411 60 CURVE SMOOTH",
"314 60 OFFCURVE",
"229 122 OFFCURVE",
"195 203 CURVE",
"227 238 OFFCURVE",
"246 286 OFFCURVE",
"246 347 CURVE SMOOTH",
"246 429 OFFCURVE",
"177 527 OFFCURVE",
"99 543 CURVE",
"86 500 OFFCURVE",
"67 461 OFFCURVE",
"40 427 CURVE",
"118 427 OFFCURVE",
"162 368 OFFCURVE",
"162 299 CURVE SMOOTH",
"162 233 OFFCURVE",
"109 202 OFFCURVE",
"65 187 CURVE",
"80 141 LINE",
"93 144 OFFCURVE",
"106 148 OFFCURVE",
"118 152 CURVE",
"166 62 OFFCURVE",
"275 -10 OFFCURVE",
"403 -10 CURVE SMOOTH"
);
}
);
width = 686;
}
);
unicode = 11C22;
},
{
export = 0;
glyphname = Pa.alt;
lastChange = "2017-07-03 19:48:37 +0000";
layers = (
{
layerId = UUID0;
paths = (
{
closed = 1;
nodes = (
"479 -2 OFFCURVE",
"506 10 OFFCURVE",
"531 18 CURVE",
"520 70 OFFCURVE",
"474 158 OFFCURVE",
"439 176 CURVE",
"410 169 OFFCURVE",
"385 155 OFFCURVE",
"359 137 CURVE",
"369 130 OFFCURVE",
"385 109 OFFCURVE",
"401 83 CURVE",
"378 72 OFFCURVE",
"350 60 OFFCURVE",
"329 60 CURVE SMOOTH",
"262 60 OFFCURVE",
"204 90 OFFCURVE",
"196 202 CURVE",
"267 241 OFFCURVE",
"331 295 OFFCURVE",
"331 345 CURVE SMOOTH",
"331 357 OFFCURVE",
"327 372 OFFCURVE",
"319 388 CURVE",
"386 388 LINE",
"386 408 LINE",
"225 560 LINE",
"203 560 LINE",
"40 408 LINE",
"40 388 LINE",
"219 388 LINE",
"240 377 OFFCURVE",
"249 361 OFFCURVE",
"249 345 CURVE SMOOTH",
"249 280 OFFCURVE",
"105 209 OFFCURVE",
"57 188 CURVE",
"65 150 LINE",
"80 153 OFFCURVE",
"97 158 OFFCURVE",
"115 165 CURVE",
"129 50 OFFCURVE",
"210 -10 OFFCURVE",
"320 -10 CURVE SMOOTH",
"342 -10 OFFCURVE",
"394 16 OFFCURVE",
"427 36 CURVE",
"439 12 OFFCURVE",
"449 -10 OFFCURVE",
"452 -21 CURVE"
);
}
);
width = 551;
}
);
},
{
glyphname = Pha;
lastChange = "2017-07-03 19:48:37 +0000";
layers = (
{
layerId = UUID0;
paths = (
{
closed = 1;
nodes = (
"547 -10 OFFCURVE",
"683 144 OFFCURVE",
"683 167 CURVE SMOOTH",
"683 206 OFFCURVE",
"620 275 OFFCURVE",
"572 312 CURVE",
"552 289 OFFCURVE",
"525 271 OFFCURVE",
"486 256 CURVE",
"528 245 OFFCURVE",
"600 190 OFFCURVE",
"600 142 CURVE SMOOTH",
"600 124 OFFCURVE",
"543 60 OFFCURVE",
"505 60 CURVE SMOOTH",
"460 60 OFFCURVE",
"392 165 OFFCURVE",
"369 165 CURVE SMOOTH",
"354 165 OFFCURVE",
"280 103 OFFCURVE",
"253 103 CURVE SMOOTH",
"231 103 OFFCURVE",
"175 160 OFFCURVE",
"171 217 CURVE",
"214 244 OFFCURVE",
"291 292 OFFCURVE",
"291 345 CURVE SMOOTH",
"291 357 OFFCURVE",
"287 372 OFFCURVE",
"279 388 CURVE",
"441 388 LINE",
"441 410 LINE",
"247 560 LINE",
"225 560 LINE",
"20 410 LINE",
"20 388 LINE",
"179 388 LINE",
"200 377 OFFCURVE",
"209 361 OFFCURVE",
"209 345 CURVE SMOOTH",
"209 287 OFFCURVE",
"105 237 OFFCURVE",
"57 216 CURVE",
"65 178 LINE",
"77 182 OFFCURVE",
"88 186 OFFCURVE",
"97 191 CURVE",
"108 143 OFFCURVE",
"147 33 OFFCURVE",
"244 33 CURVE SMOOTH",
"266 33 OFFCURVE",
"327 89 OFFCURVE",
"345 89 CURVE SMOOTH",
"358 89 OFFCURVE",
"430 -10 OFFCURVE",
"484 -10 CURVE SMOOTH"
);
}
);
width = 723;
}
);
unicode = 11C23;
},
{
glyphname = Ba;
lastChange = "2017-07-03 19:48:37 +0000";
layers = (
{
layerId = UUID0;
paths = (
{
closed = 1;
nodes = (
"547 -10 OFFCURVE",
"645 127 OFFCURVE",
"645 176 CURVE SMOOTH",
"645 253 OFFCURVE",
"614 340 OFFCURVE",
"581 388 CURVE",
"706 388 LINE",
"706 408 LINE",
"545 560 LINE",
"523 560 LINE",
"363 411 LINE",
"205 560 LINE",
"183 560 LINE",
"20 408 LINE",
"20 388 LINE",
"192 388 LINE",
"203 364 OFFCURVE",
"208 334 OFFCURVE",
"208 303 CURVE SMOOTH",
"208 237 OFFCURVE",
"142 202 OFFCURVE",
"98 187 CURVE",
"113 141 LINE",
"128 144 OFFCURVE",
"143 149 OFFCURVE",
"157 154 CURVE",
"204 63 OFFCURVE",
"314 -10 OFFCURVE",
"443 -10 CURVE SMOOTH"
);
},
{
closed = 1;
nodes = (
"355 60 OFFCURVE",
"270 122 OFFCURVE",
"236 202 CURVE",
"270 232 OFFCURVE",
"292 268 OFFCURVE",
"292 303 CURVE SMOOTH",
"292 335 OFFCURVE",
"286 364 OFFCURVE",
"277 388 CURVE",
"492 388 LINE",
"537 337 OFFCURVE",
"563 228 OFFCURVE",
"563 164 CURVE SMOOTH",
"563 121 OFFCURVE",
"518 60 OFFCURVE",
"451 60 CURVE SMOOTH"
);
}
);
width = 726;
}
);
unicode = 11C24;
},
{
glyphname = Bha;
lastChange = "2017-07-03 19:48:37 +0000";
layers = (
{
layerId = UUID0;
paths = (
{
closed = 1;
nodes = (
"446 -33 OFFCURVE",
"497 25 OFFCURVE",
"497 81 CURVE SMOOTH",
"497 172 OFFCURVE",
"368 277 OFFCURVE",
"315 339 CURVE",
"314 351 OFFCURVE",
"311 370 OFFCURVE",
"305 388 CURVE",
"475 388 LINE",
"475 410 LINE",
"281 560 LINE",
"259 560 LINE",
"54 410 LINE",
"54 388 LINE",
"217 388 LINE",
"228 370 OFFCURVE",
"233 347 OFFCURVE",
"233 335 CURVE SMOOTH",
"233 262 OFFCURVE",
"97 219 OFFCURVE",
"20 196 CURVE",
"28 158 LINE",
"45 160 OFFCURVE",
"63 163 OFFCURVE",
"83 168 CURVE",
"92 91 OFFCURVE",
"157 27 OFFCURVE",
"213 27 CURVE SMOOTH",
"252 27 OFFCURVE",
"376 93 OFFCURVE",
"395 149 CURVE",
"408 125 OFFCURVE",
"413 105 OFFCURVE",
"413 92 CURVE SMOOTH",
"413 52 OFFCURVE",
"363 26 OFFCURVE",
"317 12 CURVE",
"348 -16 OFFCURVE",
"365 -42 OFFCURVE",
"374 -68 CURVE"
);
},
{
closed = 1;
nodes = (
"204 97 OFFCURVE",
"164 144 OFFCURVE",
"155 191 CURVE",
"206 211 OFFCURVE",
"255 238 OFFCURVE",
"285 270 CURVE",
"322 225 OFFCURVE",
"325 176 OFFCURVE",
"325 155 CURVE SMOOTH",
"325 113 OFFCURVE",
"255 97 OFFCURVE",
"231 97 CURVE SMOOTH"
);
}
);
width = 537;
}
);
unicode = 11C25;
},
{
glyphname = Ma;
lastChange = "2017-07-03 19:48:37 +0000";
layers = (
{
layerId = UUID0;
paths = (
{
closed = 1;
nodes = (
"275 -10 OFFCURVE",
"402 83 OFFCURVE",
"402 159 CURVE SMOOTH",
"402 164 OFFCURVE",
"401 169 OFFCURVE",
"401 174 CURVE",
"410 173 OFFCURVE",
"419 173 OFFCURVE",
"429 173 CURVE SMOOTH",
"518 173 OFFCURVE",
"597 265 OFFCURVE",
"597 310 CURVE SMOOTH",
"597 335 OFFCURVE",
"591 362 OFFCURVE",
"582 388 CURVE",
"716 388 LINE",
"716 408 LINE",
"555 560 LINE",
"533 560 LINE",
"378 415 LINE",
"225 560 LINE",
"203 560 LINE",
"40 408 LINE",
"40 388 LINE",
"179 388 LINE",
"184 381 OFFCURVE",
"187 373 OFFCURVE",
"187 364 CURVE SMOOTH",
"187 352 OFFCURVE",
"183 336 OFFCURVE",
"176 320 CURVE",
"117 294 OFFCURVE",
"43 216 OFFCURVE",
"43 172 CURVE SMOOTH",
"43 97 OFFCURVE",
"142 -10 OFFCURVE",
"201 -10 CURVE SMOOTH"
);
},
{
closed = 1;
nodes = (
"186 60 OFFCURVE",
"125 140 OFFCURVE",
"125 183 CURVE SMOOTH",
"125 198 OFFCURVE",
"160 259 OFFCURVE",
"204 259 CURVE SMOOTH",
"241 259 OFFCURVE",
"320 223 OFFCURVE",
"320 153 CURVE SMOOTH",
"320 101 OFFCURVE",
"250 60 OFFCURVE",
"218 60 CURVE SMOOTH"
);
},
{
closed = 1;
nodes = (
"413 243 OFFCURVE",
"386 252 OFFCURVE",
"357 271 CURVE",
"330 298 OFFCURVE",
"294 313 OFFCURVE",
"263 321 CURVE",
"266 335 OFFCURVE",
"269 350 OFFCURVE",
"269 360 CURVE SMOOTH",
"269 369 OFFCURVE",
"267 378 OFFCURVE",
"264 388 CURVE",
"495 388 LINE",
"506 355 OFFCURVE",
"515 321 OFFCURVE",
"515 295 CURVE SMOOTH",
"515 250 OFFCURVE",
"467 243 OFFCURVE",
"443 243 CURVE SMOOTH"
);
}
);
width = 736;
}
);
unicode = 11C26;
},
{
glyphname = Ya;
lastChange = "2017-07-03 19:48:37 +0000";
layers = (
{
layerId = UUID0;
paths = (
{
closed = 1;
nodes = (
"726 -10 OFFCURVE",
"804 127 OFFCURVE",
"804 176 CURVE SMOOTH",
"804 235 OFFCURVE",
"791 325 OFFCURVE",
"766 388 CURVE",
"886 388 LINE",
"886 408 LINE",
"725 560 LINE",
"703 560 LINE",
"558 425 LINE",
"415 560 LINE",
"393 560 LINE",
"230 408 LINE",
"230 388 LINE",
"365 388 LINE",
"368 313 OFFCURVE",
"377 251 OFFCURVE",
"391 199 CURVE",
"366 181 OFFCURVE",
"334 168 OFFCURVE",
"304 168 CURVE SMOOTH",
"161 168 OFFCURVE",
"130 305 OFFCURVE",
"130 407 CURVE SMOOTH",
"130 457 OFFCURVE",
"144 525 OFFCURVE",
"191 562 CURVE",
"153 584 OFFCURVE",
"121 605 OFFCURVE",
"96 628 CURVE",
"69 601 OFFCURVE",
"40 528 OFFCURVE",
"40 442 CURVE SMOOTH",
"40 376 OFFCURVE",
"49 98 OFFCURVE",
"296 98 CURVE SMOOTH",
"332 98 OFFCURVE",
"374 117 OFFCURVE",
"409 143 CURVE",
"453 34 OFFCURVE",
"527 -10 OFFCURVE",
"622 -10 CURVE SMOOTH"
);
},
{
closed = 1;
nodes = (
"511 60 OFFCURVE",
"454 183 OFFCURVE",
"447 388 CURVE",
"680 388 LINE",
"711 325 OFFCURVE",
"722 219 OFFCURVE",
"722 164 CURVE SMOOTH",
"722 121 OFFCURVE",
"697 60 OFFCURVE",
"630 60 CURVE SMOOTH"
);
}
);
width = 906;
}
);
unicode = 11C27;
},
{
glyphname = Ra;
lastChange = "2017-07-03 19:48:37 +0000";
layers = (
{
layerId = UUID0;
paths = (
{
closed = 1;
nodes = (
"371 -10 OFFCURVE",
"459 127 OFFCURVE",
"459 176 CURVE SMOOTH",
"459 251 OFFCURVE",
"422 339 OFFCURVE",
"388 388 CURVE",
"528 388 LINE",
"528 410 LINE",
"334 560 LINE",
"312 560 LINE",
"107 410 LINE",
"107 388 LINE",
"299 388 LINE",
"344 335 OFFCURVE",
"377 226 OFFCURVE",
"377 164 CURVE SMOOTH",
"377 121 OFFCURVE",
"342 60 OFFCURVE",
"275 60 CURVE SMOOTH",
"204 60 OFFCURVE",
"128 136 OFFCURVE",
"102 227 CURVE",
"85 208 OFFCURVE",
"58 193 OFFCURVE",
"20 182 CURVE",
"58 79 OFFCURVE",
"157 -10 OFFCURVE",
"267 -10 CURVE SMOOTH"
);
}
);
width = 548;
}
);
unicode = 11C28;
},
{
glyphname = La;
lastChange = "2017-07-03 19:48:37 +0000";
layers = (
{
layerId = UUID0;
paths = (
{
closed = 1;
nodes = (
"326 -10 OFFCURVE",
"402 34 OFFCURVE",
"437 61 CURVE",
"415 88 LINE",
"380 72 OFFCURVE",
"312 60 OFFCURVE",
"244 60 CURVE SMOOTH",
"163 60 OFFCURVE",
"122 131 OFFCURVE",
"122 154 CURVE SMOOTH",
"122 202 OFFCURVE",
"161 236 OFFCURVE",
"197 236 CURVE SMOOTH",
"281 236 OFFCURVE",
"337 190 OFFCURVE",
"377 156 CURVE",
"396 163 OFFCURVE",
"442 204 OFFCURVE",
"448 227 CURVE",
"448 246 OFFCURVE",
"435 290 OFFCURVE",
"415 340 CURVE",
"710 340 LINE",
"710 360 LINE",
"549 512 LINE",
"527 512 LINE",
"395 389 LINE",
"365 456 OFFCURVE",
"328 524 OFFCURVE",
"295 560 CURVE",
"268 560 LINE",
"180 521 OFFCURVE",
"103 465 OFFCURVE",
"86 432 CURVE",
"122 421 OFFCURVE",
"153 403 OFFCURVE",
"181 379 CURVE",
"193 414 OFFCURVE",
"217 458 OFFCURVE",
"257 487 CURVE",
"273 477 OFFCURVE",
"360 310 OFFCURVE",
"366 238 CURVE",
"325 287 OFFCURVE",
"248 305 OFFCURVE",
"211 305 CURVE SMOOTH",
"128 305 OFFCURVE",
"40 190 OFFCURVE",
"40 143 CURVE SMOOTH",
"40 64 OFFCURVE",
"135 -10 OFFCURVE",
"242 -10 CURVE SMOOTH"
);
}
);
width = 730;
}
);
unicode = 11C29;
},
{
glyphname = Va;
lastChange = "2017-07-03 19:48:37 +0000";
layers = (
{
layerId = UUID0;
paths = (
{
closed = 1;
nodes = (
"314 -10 OFFCURVE",
"458 99 OFFCURVE",
"458 146 CURVE SMOOTH",
"458 205 OFFCURVE",
"384 290 OFFCURVE",
"313 316 CURVE",
"311 326 OFFCURVE",
"310 335 OFFCURVE",
"310 340 CURVE SMOOTH",
"310 353 OFFCURVE",
"314 373 OFFCURVE",
"326 388 CURVE",
"503 388 LINE",
"503 410 LINE",
"309 560 LINE",
"287 560 LINE",
"82 410 LINE",
"82 388 LINE",
"242 388 LINE",
"232 370 OFFCURVE",
"228 352 OFFCURVE",
"228 336 CURVE SMOOTH",
"228 331 OFFCURVE",
"228 325 OFFCURVE",
"229 318 CURVE",
"149 294 OFFCURVE",
"40 217 OFFCURVE",
"40 169 CURVE SMOOTH",
"40 79 OFFCURVE",
"164 -10 OFFCURVE",
"251 -10 CURVE SMOOTH"
);
},
{
closed = 1;
nodes = (
"214 60 OFFCURVE",
"122 124 OFFCURVE",
"122 174 CURVE SMOOTH",
"122 216 OFFCURVE",
"210 256 OFFCURVE",
"257 256 CURVE SMOOTH",
"299 256 OFFCURVE",
"376 174 OFFCURVE",
"376 141 CURVE SMOOTH",
"376 114 OFFCURVE",
"303 60 OFFCURVE",
"253 60 CURVE SMOOTH"
);
}
);
width = 543;
}
);
unicode = 11C2A;
},
{
glyphname = Sha;
lastChange = "2017-07-03 19:48:37 +0000";
layers = (
{
layerId = UUID0;
paths = (
{
closed = 1;
nodes = (
"503 -10 OFFCURVE",
"598 130 OFFCURVE",
"598 166 CURVE SMOOTH",
"598 211 OFFCURVE",
"573 273 OFFCURVE",
"536 340 CURVE",
"837 340 LINE",
"837 359 LINE",
"676 512 LINE",
"654 512 LINE",
"513 380 LINE",
"480 435 OFFCURVE",
"441 492 OFFCURVE",
"404 545 CURVE",
"382 545 LINE",
"350 529 OFFCURVE",
"244 470 OFFCURVE",
"159 409 CURVE SMOOTH",
"100 367 OFFCURVE",
"40 318 OFFCURVE",
"40 299 CURVE SMOOTH",
"40 273 OFFCURVE",
"73 222 OFFCURVE",
"112 197 CURVE",
"137 226 OFFCURVE",
"163 245 OFFCURVE",
"193 266 CURVE",
"165 281 OFFCURVE",
"144 296 OFFCURVE",
"144 315 CURVE SMOOTH",
"144 349 OFFCURVE",
"268 409 OFFCURVE",
"359 462 CURVE",
"398 435 OFFCURVE",
"516 215 OFFCURVE",
"516 154 CURVE SMOOTH",
"516 111 OFFCURVE",
"474 60 OFFCURVE",
"407 60 CURVE SMOOTH",
"393 60 OFFCURVE",
"377 65 OFFCURVE",
"365 68 CURVE",
"355 -7 LINE",
"368 -9 OFFCURVE",
"385 -10 OFFCURVE",
"399 -10 CURVE SMOOTH"
);
},
{
closed = 1;
nodes = (
"351 192 OFFCURVE",
"378 204 OFFCURVE",
"403 212 CURVE",
"392 264 OFFCURVE",
"348 328 OFFCURVE",
"313 346 CURVE",
"284 339 OFFCURVE",
"259 325 OFFCURVE",
"233 307 CURVE",
"260 290 OFFCURVE",
"317 203 OFFCURVE",
"324 173 CURVE"
);
}
);
width = 857;
}
);
unicode = 11C2B;
},
{
glyphname = Ssa;
lastChange = "2017-07-03 19:48:37 +0000";
layers = (
{
layerId = UUID0;
paths = (
{
closed = 1;
nodes = (
"507 -10 OFFCURVE",
"625 127 OFFCURVE",
"625 176 CURVE SMOOTH",
"625 214 OFFCURVE",
"571 265 OFFCURVE",
"528 296 CURVE",
"555 320 OFFCURVE",
"574 345 OFFCURVE",
"574 365 CURVE SMOOTH",
"574 372 OFFCURVE",
"572 380 OFFCURVE",
"569 388 CURVE",
"706 388 LINE",
"706 408 LINE",
"545 560 LINE",
"523 560 LINE",
"363 411 LINE",
"205 560 LINE",
"183 560 LINE",
"20 408 LINE",
"20 388 LINE",
"170 388 LINE",
"185 376 OFFCURVE",
"192 359 OFFCURVE",
"192 345 CURVE SMOOTH",
"192 275 OFFCURVE",
"82 212 OFFCURVE",
"48 199 CURVE",
"56 161 LINE",
"69 163 OFFCURVE",
"93 173 OFFCURVE",
"121 187 CURVE",
"167 89 OFFCURVE",
"304 -10 OFFCURVE",
"403 -10 CURVE SMOOTH"
);
},
{
closed = 1;
nodes = (
"343 60 OFFCURVE",
"228 146 OFFCURVE",
"193 232 CURVE",
"237 265 OFFCURVE",
"274 306 OFFCURVE",
"274 345 CURVE SMOOTH",
"274 358 OFFCURVE",
"269 373 OFFCURVE",
"260 388 CURVE",
"486 388 LINE",
"490 379 OFFCURVE",
"492 369 OFFCURVE",
"492 359 CURVE SMOOTH",
"492 329 OFFCURVE",
"457 296 OFFCURVE",
"418 267 CURVE",
"440 234 LINE",
"448 238 OFFCURVE",
"455 243 OFFCURVE",
"463 248 CURVE",
"497 224 OFFCURVE",
"543 189 OFFCURVE",
"543 164 CURVE SMOOTH",
"543 121 OFFCURVE",
"478 60 OFFCURVE",
"411 60 CURVE SMOOTH"
);
}
);
width = 726;
}
);
unicode = 11C2C;
},
{
glyphname = Sa;
lastChange = "2017-07-03 19:48:37 +0000";
layers = (
{
layerId = UUID0;
paths = (
{
closed = 1;
nodes = (
"587 -10 OFFCURVE",
"676 123 OFFCURVE",
"676 172 CURVE SMOOTH",
"676 210 OFFCURVE",
"657 313 OFFCURVE",
"615 388 CURVE",
"756 388 LINE",
"756 408 LINE",
"595 560 LINE",
"573 560 LINE",
"418 415 LINE",
"265 560 LINE",
"243 560 LINE",
"80 408 LINE",
"80 388 LINE",
"198 388 LINE",
"223 373 OFFCURVE",
"233 335 OFFCURVE",
"233 318 CURVE SMOOTH",
"233 245 OFFCURVE",
"97 202 OFFCURVE",
"20 179 CURVE",
"28 141 LINE",
"45 143 OFFCURVE",
"63 146 OFFCURVE",
"83 151 CURVE",
"92 74 OFFCURVE",
"157 10 OFFCURVE",
"213 10 CURVE SMOOTH",
"247 10 OFFCURVE",
"304 46 OFFCURVE",
"344 87 CURVE",
"379 39 OFFCURVE",
"430 -10 OFFCURVE",
"483 -10 CURVE SMOOTH"
);
},
{
closed = 1;
nodes = (
"204 80 OFFCURVE",
"164 127 OFFCURVE",
"155 174 CURVE",
"199 191 OFFCURVE",
"241 213 OFFCURVE",
"271 240 CURVE",
"309 201 OFFCURVE",
"315 179 OFFCURVE",
"315 158 CURVE SMOOTH",
"315 116 OFFCURVE",
"255 80 OFFCURVE",
"231 80 CURVE SMOOTH"
);
},
{
closed = 1;
nodes = (
"460 60 OFFCURVE",
"411 103 OFFCURVE",
"388 170 CURVE",
"387 206 OFFCURVE",
"374 264 OFFCURVE",
"315 322 CURVE",
"314 338 OFFCURVE",
"308 367 OFFCURVE",
"296 388 CURVE",
"518 388 LINE",
"584 304 OFFCURVE",
"594 187 OFFCURVE",
"594 160 CURVE SMOOTH",
"594 117 OFFCURVE",
"558 60 OFFCURVE",
"491 60 CURVE SMOOTH"
);
}
);
width = 796;
}
);
unicode = 11C2D;
},
{
glyphname = Ha;
lastChange = "2017-07-03 19:48:37 +0000";
layers = (
{
layerId = UUID0;
paths = (
{
closed = 1;
nodes = (
"463 5 OFFCURVE",
"545 69 OFFCURVE",
"545 93 CURVE SMOOTH",
"545 115 OFFCURVE",
"417 232 OFFCURVE",
"396 232 CURVE SMOOTH",
"370 232 OFFCURVE",
"235 156 OFFCURVE",
"218 156 CURVE SMOOTH",
"197 156 OFFCURVE",
"140 205 OFFCURVE",
"140 224 CURVE SMOOTH",
"140 244 OFFCURVE",
"327 302 OFFCURVE",
"327 345 CURVE SMOOTH",
"327 357 OFFCURVE",
"323 372 OFFCURVE",
"320 388 CURVE",
"468 388 LINE",
"468 410 LINE",
"274 560 LINE",
"252 560 LINE",
"47 410 LINE",
"47 388 LINE",
"230 388 LINE",
"233 374 OFFCURVE",
"235 359 OFFCURVE",
"235 348 CURVE SMOOTH",
"235 318 OFFCURVE",
"54 242 OFFCURVE",
"20 231 CURVE",
"25 196 LINE",
"38 197 OFFCURVE",
"52 201 OFFCURVE",
"65 205 CURVE",
"65 180 OFFCURVE",
"138 86 OFFCURVE",
"199 86 CURVE SMOOTH",
"215 86 OFFCURVE",
"349 159 OFFCURVE",
"371 159 CURVE SMOOTH",
"386 159 OFFCURVE",
"436 115 OFFCURVE",
"436 103 CURVE SMOOTH",
"436 90 OFFCURVE",
"379 68 OFFCURVE",
"354 61 CURVE",
"376 45 OFFCURVE",
"398 17 OFFCURVE",
"415 -13 CURVE"
);
}
);
width = 585;
}
);
unicode = 11C2E;
},
{
glyphname = AA_vwl;
lastChange = "2017-07-03 19:48:37 +0000";
layers = (
{
layerId = UUID0;
paths = (
{
closed = 1;
nodes = (
"368 277 OFFCURVE",
"384 309 OFFCURVE",
"384 328 CURVE SMOOTH",
"384 355 OFFCURVE",
"377 377 OFFCURVE",
"346 407 CURVE SMOOTH",
"185 560 LINE",
"163 560 LINE",
"0 408 LINE",
"0 388 LINE",
"285 388 LINE",
"293 374 OFFCURVE",
"297 359 OFFCURVE",
"297 347 CURVE SMOOTH",
"297 329 OFFCURVE",
"290 299 OFFCURVE",
"274 283 CURVE",
"344 251 LINE"
);
}
);
width = 0;
}
);
unicode = 11C2F;
},
{
glyphname = AA_vwl.alt;
lastChange = "2017-07-03 19:48:37 +0000";
layers = (
{
layerId = UUID0;
paths = (
{
closed = 1;
nodes = (
"110 277 OFFCURVE",
"126 309 OFFCURVE",
"126 330 CURVE SMOOTH",
"126 357 OFFCURVE",
"118 377 OFFCURVE",
"85 408 CURVE SMOOTH",
"36 454 LINE",
"-1 419 LINE",
"26 399 OFFCURVE",
"39 370 OFFCURVE",
"39 347 CURVE SMOOTH",
"39 329 OFFCURVE",
"32 299 OFFCURVE",
"16 283 CURVE",
"86 251 LINE"
);
}
);
width = 0;
}
);
},
{
export = 0;
glyphname = AA_vwl.alt2;
lastChange = "2017-07-03 19:48:37 +0000";
layers = (
{
layerId = UUID0;
paths = (
{
closed = 1;
nodes = (
"107 45 OFFCURVE",
"144 49 OFFCURVE",
"172 50 CURVE",
"162 163 OFFCURVE",
"79 355 OFFCURVE",
"56 398 CURVE",
"0 368 LINE",
"35 299 OFFCURVE",
"70 193 OFFCURVE",
"83 41 CURVE"
);
}
);
width = 0;
}
);
},
{
glyphname = I_vwl;
lastChange = "2017-07-03 19:48:37 +0000";
layers = (
{
layerId = UUID0;
paths = (
{
closed = 1;
nodes = (
"211 620 LINE",
"211 642 LINE",
"15 809 LINE",
"-5 809 LINE",
"-200 642 LINE",
"-200 620 LINE"
);
},
{
closed = 1;
nodes = (
"-71 680 LINE",
"2 742 LINE",
"10 742 LINE",
"82 680 LINE",
"82 673 LINE",
"-71 673 LINE"
);
}
);
width = 0;
}
);
unicode = 11C30;
},
{
glyphname = II_vwl;
lastChange = "2017-07-03 19:48:37 +0000";
layers = (
{
layerId = UUID0;
paths = (
{
closed = 1;
nodes = (
"292 620 LINE",
"292 652 LINE",
"229 754 OFFCURVE",
"141 844 OFFCURVE",
"33 942 CURVE",
"11 942 LINE",
"-208 774 LINE",
"-190 753 LINE",
"2 882 LINE",
"94 799 OFFCURVE",
"163 728 OFFCURVE",
"209 660 CURVE",
"189 660 LINE",
"10 809 LINE",
"-10 809 LINE",
"-190 643 LINE",
"-190 620 LINE"
);
},
{
closed = 1;
nodes = (
"-76 680 LINE",
"-3 742 LINE",
"5 742 LINE",
"77 680 LINE",
"77 673 LINE",
"-76 673 LINE"
);
}
);
width = 0;
}
);
unicode = 11C31;
},
{
glyphname = U_vwl;
lastChange = "2017-07-03 19:48:37 +0000";
layers = (
{
layerId = UUID0;
paths = (
{
closed = 1;
nodes = (
"-133 -220 LINE",
"-100 -206 OFFCURVE",
"-50 -99 OFFCURVE",
"-50 -40 CURVE SMOOTH",
"-50 -26 OFFCURVE",
"-50 -9 OFFCURVE",
"-51 5 CURVE",
"-129 -3 LINE",
"-129 -11 OFFCURVE",
"-128 -24 OFFCURVE",
"-128 -29 CURVE SMOOTH",
"-128 -81 OFFCURVE",
"-140 -119 OFFCURVE",
"-157 -138 CURVE",
"-195 -113 OFFCURVE",
"-252 -89 OFFCURVE",
"-295 -89 CURVE SMOOTH",
"-348 -89 OFFCURVE",
"-415 -138 OFFCURVE",
"-478 -195 CURVE",
"-465 -214 LINE",
"-389 -164 OFFCURVE",
"-337 -161 OFFCURVE",
"-307 -161 CURVE SMOOTH",
"-256 -161 OFFCURVE",
"-204 -196 OFFCURVE",
"-152 -220 CURVE"
);
}
);
width = 0;
}
);
unicode = 11C32;
},
{
glyphname = U_vwl.alt;
lastChange = "2017-07-03 19:48:37 +0000";
layers = (
{
layerId = UUID0;
paths = (
{
closed = 1;
nodes = (
"-131 -240 OFFCURVE",
"-65 -187 OFFCURVE",
"-19 -147 CURVE",
"-43 -124 LINE",
"-97 -167 OFFCURVE",
"-150 -175 OFFCURVE",
"-197 -175 CURVE SMOOTH",
"-219 -175 OFFCURVE",
"-250 -162 OFFCURVE",
"-266 -133 CURVE",
"-114 -99 OFFCURVE",
"-53 -55 OFFCURVE",
"-38 18 CURVE",
"-136 6 LINE",
"-136 -57 OFFCURVE",
"-297 -104 OFFCURVE",
"-421 -122 CURVE",
"-415 -160 LINE",
"-350 -150 LINE",
"-331 -193 OFFCURVE",
"-295 -240 OFFCURVE",
"-214 -240 CURVE SMOOTH"
);
}
);
width = 0;
}
);
},
{
glyphname = UU_vwl;
lastChange = "2017-07-03 19:48:37 +0000";
layers = (
{
layerId = UUID0;
paths = (
{
closed = 1;
nodes = (
"-133 -260 LINE",
"-100 -246 OFFCURVE",
"-50 -139 OFFCURVE",
"-50 -80 CURVE SMOOTH",
"-50 -58 OFFCURVE",
"-51 -18 OFFCURVE",
"-51 5 CURVE",
"-129 -3 LINE",
"-128 -18 OFFCURVE",
"-128 -53 OFFCURVE",
"-128 -63 CURVE",
"-161 -50 OFFCURVE",
"-204 -40 OFFCURVE",
"-244 -40 CURVE SMOOTH",
"-289 -40 OFFCURVE",
"-323 -51 OFFCURVE",
"-359 -70 CURVE",
"-343 -95 LINE",
"-328 -91 OFFCURVE",
"-292 -87 OFFCURVE",
"-277 -87 CURVE SMOOTH",
"-220 -87 OFFCURVE",
"-172 -105 OFFCURVE",
"-134 -131 CURVE",
"-139 -153 OFFCURVE",
"-147 -171 OFFCURVE",
"-157 -182 CURVE",
"-195 -157 OFFCURVE",
"-252 -140 OFFCURVE",
"-287 -140 CURVE SMOOTH",
"-348 -140 OFFCURVE",
"-415 -178 OFFCURVE",
"-478 -235 CURVE",
"-465 -254 LINE",
"-397 -212 OFFCURVE",
"-337 -212 OFFCURVE",
"-307 -212 CURVE SMOOTH",
"-256 -212 OFFCURVE",
"-204 -236 OFFCURVE",
"-152 -260 CURVE"
);
}
);
width = 0;
}
);
unicode = 11C33;
},
{
glyphname = UU_vwl.alt;
lastChange = "2017-07-03 19:48:37 +0000";
layers = (
{
layerId = UUID0;
paths = (
{
closed = 1;
nodes = (
"-167 -285 OFFCURVE",
"0 -220 OFFCURVE",
"0 -176 CURVE SMOOTH",
"0 -146 OFFCURVE",
"-82 -24 OFFCURVE",
"-105 2 CURVE",
"-137 2 LINE",
"-181 -26 OFFCURVE",
"-272 -83 OFFCURVE",
"-332 -111 CURVE",
"-316 -144 LINE",
"-292 -134 LINE",
"-283 -158 OFFCURVE",
"-250 -182 OFFCURVE",
"-209 -182 CURVE SMOOTH",
"-172 -182 OFFCURVE",
"-146 -173 OFFCURVE",
"-123 -161 CURVE",
"-133 -137 LINE",
"-146 -141 OFFCURVE",
"-160 -145 OFFCURVE",
"-173 -145 CURVE SMOOTH",
"-201 -145 OFFCURVE",
"-216 -130 OFFCURVE",
"-221 -101 CURVE",
"-144 -56 LINE",
"-135 -61 OFFCURVE",
"-77 -164 OFFCURVE",
"-77 -180 CURVE SMOOTH",
"-77 -201 OFFCURVE",
"-207 -263 OFFCURVE",
"-289 -288 CURVE",
"-280 -317 LINE"
);
}
);
width = 0;
}
);
},
{
glyphname = VocR;
lastChange = "2017-07-03 19:48:37 +0000";
layers = (
{
layerId = UUID0;
paths = (
{
closed = 1;
nodes = (
"-117 -220 OFFCURVE",
"-30 -106 OFFCURVE",
"-30 -59 CURVE SMOOTH",
"-30 -37 OFFCURVE",
"-33 -6 OFFCURVE",
"-36 14 CURVE",
"-115 0 LINE",
"-111 -21 OFFCURVE",
"-108 -51 OFFCURVE",
"-108 -62 CURVE SMOOTH",
"-108 -112 OFFCURVE",
"-156 -155 OFFCURVE",
"-224 -155 CURVE SMOOTH",
"-320 -155 OFFCURVE",
"-381 -52 OFFCURVE",
"-381 53 CURVE SMOOTH",
"-381 84 OFFCURVE",
"-379 108 OFFCURVE",
"-366 143 CURVE",
"-391 153 OFFCURVE",
"-421 167 OFFCURVE",
"-440 184 CURVE",
"-450 149 OFFCURVE",
"-455 107 OFFCURVE",
"-455 71 CURVE SMOOTH",
"-455 -63 OFFCURVE",
"-379 -220 OFFCURVE",
"-225 -220 CURVE SMOOTH"
);
}
);
width = 0;
}
);
unicode = 11C34;
},
{
glyphname = VocRR;
lastChange = "2017-07-03 19:48:37 +0000";
layers = (
{
layerId = UUID0;
paths = (
{
closed = 1;
nodes = (
"-215 -270 OFFCURVE",
"-144 -192 OFFCURVE",
"-121 -137 CURVE",
"-69 -102 OFFCURVE",
"-30 -49 OFFCURVE",
"-30 -24 CURVE SMOOTH",
"-30 -12 OFFCURVE",
"-31 3 OFFCURVE",
"-33 16 CURVE",
"-110 2 LINE",
"-108 -3 OFFCURVE",
"-107 -13 OFFCURVE",
"-107 -19 CURVE SMOOTH",
"-107 -65 OFFCURVE",
"-161 -104 OFFCURVE",
"-202 -104 CURVE SMOOTH",
"-277 -104 OFFCURVE",
"-364 -65 OFFCURVE",
"-364 29 CURVE SMOOTH",
"-364 43 OFFCURVE",
"-362 59 OFFCURVE",
"-358 75 CURVE",
"-383 77 OFFCURVE",
"-407 83 OFFCURVE",
"-430 96 CURVE",
"-434 76 OFFCURVE",
"-436 57 OFFCURVE",
"-436 39 CURVE SMOOTH",
"-436 -91 OFFCURVE",
"-346 -168 OFFCURVE",
"-217 -169 CURVE",
"-238 -190 OFFCURVE",
"-273 -205 OFFCURVE",
"-318 -205 CURVE SMOOTH",
"-431 -205 OFFCURVE",
"-512 -103 OFFCURVE",
"-512 55 CURVE SMOOTH",
"-512 87 OFFCURVE",
"-510 118 OFFCURVE",
"-494 154 CURVE",
"-524 164 OFFCURVE",
"-550 178 OFFCURVE",
"-572 196 CURVE",
"-584 160 OFFCURVE",
"-590 111 OFFCURVE",
"-590 74 CURVE SMOOTH",
"-590 -114 OFFCURVE",
"-500 -270 OFFCURVE",
"-319 -270 CURVE SMOOTH"
);
}
);
width = 0;
}
);
unicode = 11C35;
},
{
glyphname = VocL;
lastChange = "2017-07-03 19:48:37 +0000";
layers = (
{
layerId = UUID0;
paths = (
{
closed = 1;
nodes = (
"-177 -353 OFFCURVE",
"-122 -310 OFFCURVE",
"-96 -288 CURVE",
"-108 -266 LINE",
"-148 -280 OFFCURVE",
"-189 -291 OFFCURVE",
"-238 -291 CURVE SMOOTH",
"-303 -291 OFFCURVE",
"-338 -254 OFFCURVE",
"-338 -236 CURVE SMOOTH",
"-338 -218 OFFCURVE",
"-289 -190 OFFCURVE",
"-252 -190 CURVE SMOOTH",
"-210 -190 OFFCURVE",
"-177 -204 OFFCURVE",
"-141 -217 CURVE",
"-132 -222 LINE",
"-114 -216 OFFCURVE",
"-72 -186 OFFCURVE",
"-66 -169 CURVE",
"-67 -154 OFFCURVE",
"-134 -39 OFFCURVE",
"-205 0 CURVE",
"-223 0 LINE",
"-283 -10 OFFCURVE",
"-395 -77 OFFCURVE",
"-427 -112 CURVE",
"-402 -125 OFFCURVE",
"-381 -137 OFFCURVE",
"-364 -150 CURVE",
"-339 -118 OFFCURVE",
"-280 -70 OFFCURVE",
"-227 -57 CURVE",
"-203 -63 OFFCURVE",
"-153 -118 OFFCURVE",
"-140 -156 CURVE",
"-167 -149 OFFCURVE",
"-212 -134 OFFCURVE",
"-235 -134 CURVE SMOOTH",
"-303 -134 OFFCURVE",
"-419 -221 OFFCURVE",
"-419 -249 CURVE SMOOTH",
"-419 -303 OFFCURVE",
"-337 -353 OFFCURVE",
"-249 -353 CURVE SMOOTH"
);
}
);
width = 0;
}
);
unicode = 11C36;
},
{
glyphname = E_vwl.alt;
lastChange = "2017-07-03 19:48:37 +0000";
layers = (
{
layerId = UUID0;
paths = (
{
closed = 1;
nodes = (
"5 421 LINE",
"-58 523 OFFCURVE",
"-151 622 OFFCURVE",
"-259 720 CURVE",
"-281 720 LINE",
"-473 572 LINE",
"-455 551 LINE",
"-290 660 LINE",
"-198 577 OFFCURVE",
"-129 506 OFFCURVE",
"-83 438 CURVE",
"5 398 LINE"
);
}
);
width = 0;
}
);
},
{
export = 0;
glyphname = E_vwl.alt2;
lastChange = "2017-07-03 19:48:37 +0000";
layers = (
{
layerId = UUID0;
paths = (
{
closed = 1;
nodes = (
"57 421 LINE",
"-259 720 LINE",
"-281 720 LINE",
"-457 583 LINE",
"-439 562 LINE",
"-290 660 LINE",
"-198 577 OFFCURVE",
"-99 486 OFFCURVE",
"-53 428 CURVE",
"57 398 LINE"
);
}
);
width = 0;
}
);
},
{
glyphname = AI_vwl.alt;
lastChange = "2017-07-03 19:48:37 +0000";
layers = (
{
layerId = UUID0;
paths = (
{
closed = 1;
nodes = (
"-91 445 OFFCURVE",
"0 522 OFFCURVE",
"0 545 CURVE SMOOTH",
"0 579 OFFCURVE",
"-103 703 OFFCURVE",
"-151 740 CURVE",
"-166 725 OFFCURVE",
"-182 715 OFFCURVE",
"-197 707 CURVE",
"-166 688 OFFCURVE",
"-69 576 OFFCURVE",
"-69 550 CURVE SMOOTH",
"-69 537 OFFCURVE",
"-106 501 OFFCURVE",
"-120 501 CURVE SMOOTH",
"-127 501 OFFCURVE",
"-254 656 OFFCURVE",
"-315 706 CURVE",
"-337 706 LINE",
"-507 581 LINE",
"-489 560 LINE",
"-340 649 LINE",
"-242 553 OFFCURVE",
"-165 445 OFFCURVE",
"-137 445 CURVE SMOOTH"
);
}
);
width = 0;
}
);
},
{
export = 0;
glyphname = O_vwl.alt;
lastChange = "2017-07-03 19:48:37 +0000";
layers = (
{
layerId = UUID0;
paths = (
{
closed = 1;
nodes = (
"-266 522 LINE",
"-284 560 OFFCURVE",
"-326 613 OFFCURVE",
"-326 629 CURVE SMOOTH",
"-326 641 OFFCURVE",
"-288 662 OFFCURVE",
"-252 675 CURVE",
"-225 640 OFFCURVE",
"-170 582 OFFCURVE",
"-102 582 CURVE SMOOTH",
"-33 582 OFFCURVE",
"47 647 OFFCURVE",
"102 719 CURVE",
"80 731 LINE",
"-9 659 OFFCURVE",
"-51 652 OFFCURVE",
"-89 652 CURVE SMOOTH",
"-157 652 OFFCURVE",
"-198 737 OFFCURVE",
"-218 737 CURVE SMOOTH",
"-257 737 OFFCURVE",
"-410 647 OFFCURVE",
"-410 616 CURVE SMOOTH",
"-410 596 OFFCURVE",
"-376 552 OFFCURVE",
"-353 522 CURVE"
);
}
);
width = 0;
}
);
},
{
export = 0;
glyphname = AU_vwl.alt;
lastChange = "2017-07-03 19:48:37 +0000";
layers = (
{
layerId = UUID0;
paths = (
{
closed = 1;
nodes = (
"-266 522 LINE",
"-284 560 OFFCURVE",
"-326 613 OFFCURVE",
"-326 629 CURVE SMOOTH",
"-326 641 OFFCURVE",
"-288 662 OFFCURVE",
"-252 675 CURVE",
"-225 640 OFFCURVE",
"-170 582 OFFCURVE",
"-87 582 CURVE SMOOTH",
"-28 582 OFFCURVE",
"78 653 OFFCURVE",
"78 710 CURVE SMOOTH",
"78 759 OFFCURVE",
"8 860 OFFCURVE",
"-188 860 CURVE SMOOTH",
"-409 860 OFFCURVE",
"-634 705 OFFCURVE",
"-635 611 CURVE SMOOTH",
"-635 596 OFFCURVE",
"-634 580 OFFCURVE",
"-632 564 CURVE",
"-555 593 LINE",
"-557 605 OFFCURVE",
"-557 617 OFFCURVE",
"-557 630 CURVE SMOOTH",
"-557 689 OFFCURVE",
"-360 795 OFFCURVE",
"-187 795 CURVE SMOOTH",
"-59 795 OFFCURVE",
"8 748 OFFCURVE",
"8 709 CURVE SMOOTH",
"8 695 OFFCURVE",
"-23 652 OFFCURVE",
"-80 652 CURVE SMOOTH",
"-157 652 OFFCURVE",
"-198 737 OFFCURVE",
"-218 737 CURVE SMOOTH",
"-257 737 OFFCURVE",
"-410 647 OFFCURVE",
"-410 616 CURVE SMOOTH",
"-410 596 OFFCURVE",
"-376 552 OFFCURVE",
"-353 522 CURVE"
);
}
);
width = 0;
}
);
},
{
glyphname = Candrabindu;
lastChange = "2017-07-03 19:48:37 +0000";
layers = (
{
layerId = UUID0;
paths = (
{
closed = 1;
nodes = (
"87 610 OFFCURVE",
"184 664 OFFCURVE",
"184 755 CURVE SMOOTH",
"184 768 OFFCURVE",
"182 783 OFFCURVE",
"177 798 CURVE",
"145 786 OFFCURVE",
"121 781 OFFCURVE",
"99 779 CURVE",
"105 750 OFFCURVE",
"105 743 OFFCURVE",
"105 738 CURVE SMOOTH",
"105 704 OFFCURVE",
"76 680 OFFCURVE",
"17 680 CURVE SMOOTH",
"-39 680 OFFCURVE",
"-79 712 OFFCURVE",
"-114 777 CURVE",
"-136 759 OFFCURVE",
"-163 746 OFFCURVE",
"-201 739 CURVE",
"-167 670 OFFCURVE",
"-101 610 OFFCURVE",
"9 610 CURVE SMOOTH"
);
},
{
closed = 1;
nodes = (
"-19 823 OFFCURVE",
"-44 830 OFFCURVE",
"-44 854 CURVE",
"-42 874 OFFCURVE",
"-16 902 OFFCURVE",
"7 902 CURVE SMOOTH",
"35 902 OFFCURVE",
"44 884 OFFCURVE",
"44 864 CURVE SMOOTH",
"44 843 OFFCURVE",
"24 823 OFFCURVE",
"-1 823 CURVE SMOOTH"
);
},
{
closed = 1;
nodes = (
"43 770 OFFCURVE",
"106 823 OFFCURVE",
"106 865 CURVE SMOOTH",
"106 917 OFFCURVE",
"68 954 OFFCURVE",
"8 954 CURVE SMOOTH",
"-39 954 OFFCURVE",
"-98 899 OFFCURVE",
"-98 853 CURVE SMOOTH",
"-98 801 OFFCURVE",
"-60 770 OFFCURVE",
"0 770 CURVE SMOOTH"
);
}
);
width = 0;
}
);
unicode = 11C3C;
},
{
glyphname = Candrabindu.alt;
lastChange = "2017-07-03 19:48:37 +0000";
layers = (
{
layerId = UUID0;
paths = (
{
closed = 1;
nodes = (
"87 610 OFFCURVE",
"184 664 OFFCURVE",
"184 755 CURVE SMOOTH",
"184 768 OFFCURVE",
"182 783 OFFCURVE",
"177 798 CURVE",
"145 786 OFFCURVE",
"121 781 OFFCURVE",
"99 779 CURVE",
"105 750 OFFCURVE",
"105 743 OFFCURVE",
"105 738 CURVE SMOOTH",
"105 704 OFFCURVE",
"76 680 OFFCURVE",
"17 680 CURVE SMOOTH",
"-39 680 OFFCURVE",
"-79 712 OFFCURVE",
"-114 777 CURVE",
"-136 759 OFFCURVE",
"-163 746 OFFCURVE",
"-201 739 CURVE",
"-167 670 OFFCURVE",
"-101 610 OFFCURVE",
"9 610 CURVE SMOOTH"
);
},
{
closed = 1;
nodes = (
"44 760 OFFCURVE",
"75 797 OFFCURVE",
"75 832 CURVE SMOOTH",
"75 868 OFFCURVE",
"61 896 OFFCURVE",
"15 896 CURVE SMOOTH",
"-22 896 OFFCURVE",
"-57 856 OFFCURVE",
"-59 820 CURVE",
"-59 779 OFFCURVE",
"-29 760 OFFCURVE",
"1 760 CURVE SMOOTH"
);
}
);
width = 0;
}
);
},
{
glyphname = Anusvara;
lastChange = "2017-07-03 19:48:37 +0000";
layers = (
{
layerId = UUID0;
paths = (
{
closed = 1;
nodes = (
"47 610 OFFCURVE",
"142 702 OFFCURVE",
"142 757 CURVE SMOOTH",
"142 818 OFFCURVE",
"88 871 OFFCURVE",
"22 871 CURVE SMOOTH",
"-41 871 OFFCURVE",
"-154 781 OFFCURVE",
"-154 717 CURVE SMOOTH",
"-154 649 OFFCURVE",
"-81 610 OFFCURVE",
"-28 610 CURVE SMOOTH"
);
},
{
closed = 1;
nodes = (
"-56 675 OFFCURVE",
"-85 693 OFFCURVE",
"-85 721 CURVE SMOOTH",
"-85 754 OFFCURVE",
"-21 806 OFFCURVE",
"12 806 CURVE SMOOTH",
"49 806 OFFCURVE",
"72 771 OFFCURVE",
"72 750 CURVE SMOOTH",
"72 727 OFFCURVE",
"26 675 OFFCURVE",
"-18 675 CURVE SMOOTH"
);
}
);
width = 0;
}
);
unicode = 11C3D;
},
{
glyphname = Anusvara.alt;
lastChange = "2017-07-03 19:48:37 +0000";
layers = (
{
layerId = UUID0;
paths = (
{
closed = 1;
nodes = (
"58 610 OFFCURVE",
"120 688 OFFCURVE",
"120 736 CURVE SMOOTH",
"120 789 OFFCURVE",
"75 834 OFFCURVE",
"22 834 CURVE SMOOTH",
"-44 834 OFFCURVE",
"-120 757 OFFCURVE",
"-120 703 CURVE SMOOTH",
"-120 644 OFFCURVE",
"-62 610 OFFCURVE",
"-18 610 CURVE SMOOTH"
);
}
);
width = 0;
}
);
},
{
glyphname = Visarga;
lastChange = "2017-07-03 19:48:37 +0000";
layers = (
{
layerId = UUID0;
paths = (
{
closed = 1;
nodes = (
"221 299 OFFCURVE",
"316 391 OFFCURVE",
"316 446 CURVE SMOOTH",
"316 507 OFFCURVE",
"262 560 OFFCURVE",
"196 560 CURVE SMOOTH",
"133 560 OFFCURVE",
"20 470 OFFCURVE",
"20 406 CURVE SMOOTH",
"20 338 OFFCURVE",
"93 299 OFFCURVE",
"146 299 CURVE SMOOTH"
);
},
{
closed = 1;
nodes = (
"221 -10 OFFCURVE",
"316 82 OFFCURVE",
"316 137 CURVE SMOOTH",
"316 198 OFFCURVE",
"262 251 OFFCURVE",
"196 251 CURVE SMOOTH",
"133 251 OFFCURVE",
"20 161 OFFCURVE",
"20 97 CURVE SMOOTH",
"20 29 OFFCURVE",
"93 -10 OFFCURVE",
"146 -10 CURVE SMOOTH"
);
},
{
closed = 1;
nodes = (
"118 55 OFFCURVE",
"89 73 OFFCURVE",
"89 101 CURVE SMOOTH",
"89 134 OFFCURVE",
"153 186 OFFCURVE",
"186 186 CURVE SMOOTH",
"223 186 OFFCURVE",
"246 151 OFFCURVE",
"246 130 CURVE SMOOTH",
"246 107 OFFCURVE",
"200 55 OFFCURVE",
"156 55 CURVE SMOOTH"
);
},
{
closed = 1;
nodes = (
"118 364 OFFCURVE",
"89 382 OFFCURVE",
"89 410 CURVE SMOOTH",
"89 443 OFFCURVE",
"153 495 OFFCURVE",
"186 495 CURVE SMOOTH",
"223 495 OFFCURVE",
"246 460 OFFCURVE",
"246 439 CURVE SMOOTH",
"246 416 OFFCURVE",
"200 364 OFFCURVE",
"156 364 CURVE SMOOTH"
);
}
);
width = 416;
}
);
unicode = 11C3E;
},
{
glyphname = Virama;
lastChange = "2017-07-03 19:48:37 +0000";
layers = (
{
layerId = UUID0;
paths = (
{
closed = 1;
nodes = (
"-70 -244 LINE",
"-122 -168 OFFCURVE",
"-167 -113 OFFCURVE",
"-238 -50 CURVE",
"-258 -50 LINE",
"-328 -62 OFFCURVE",
"-398 -77 OFFCURVE",
"-468 -97 CURVE",
"-462 -135 LINE",
"-400 -126 OFFCURVE",
"-340 -122 OFFCURVE",
"-280 -121 CURVE",
"-226 -163 OFFCURVE",
"-202 -197 OFFCURVE",
"-165 -244 CURVE"
);
}
);
width = 0;
}
);
unicode = 11C3F;
},
{
glyphname = Avagraha;
lastChange = "2017-07-03 19:48:37 +0000";
layers = (
{
layerId = UUID0;
paths = (
{
closed = 1;
nodes = (
"192 59 OFFCURVE",
"275 167 OFFCURVE",
"275 229 CURVE SMOOTH",
"275 308 OFFCURVE",
"137 362 OFFCURVE",
"137 387 CURVE SMOOTH",
"137 409 OFFCURVE",
"193 466 OFFCURVE",
"246 491 CURVE",
"256 477 OFFCURVE",
"271 459 OFFCURVE",
"271 453 CURVE SMOOTH",
"271 434 OFFCURVE",
"246 420 OFFCURVE",
"224 403 CURVE",
"301 346 LINE",
"347 383 OFFCURVE",
"368 409 OFFCURVE",
"368 439 CURVE SMOOTH",
"368 466 OFFCURVE",
"322 514 OFFCURVE",
"274 560 CURVE",
"253 560 LINE",
"212 546 OFFCURVE",
"50 421 OFFCURVE",
"50 371 CURVE SMOOTH",
"50 315 OFFCURVE",
"193 280 OFFCURVE",
"193 217 CURVE SMOOTH",
"193 145 OFFCURVE",
"126 55 OFFCURVE",
"69 4 CURVE",
"95 -18 LINE"
);
}
);
width = 418;
}
);
unicode = 11C40;
},
{
glyphname = Danda;
lastChange = "2017-07-03 19:48:37 +0000";
layers = (
{
layerId = UUID0;
paths = (
{
closed = 1;
nodes = (
"116 -6 OFFCURVE",
"147 8 OFFCURVE",
"175 9 CURVE",
"177 51 OFFCURVE",
"181 137 OFFCURVE",
"181 176 CURVE SMOOTH",
"181 340 OFFCURVE",
"168 441 OFFCURVE",
"143 560 CURVE",
"115 548 OFFCURVE",
"91 542 OFFCURVE",
"60 538 CURVE",
"82 471 OFFCURVE",
"99 327 OFFCURVE",
"99 176 CURVE SMOOTH",
"99 129 OFFCURVE",
"95 41 OFFCURVE",
"92 -10 CURVE"
);
}
);
width = 261;
}
);
unicode = 11C41;
},
{
glyphname = DblDanda;
lastChange = "2017-07-03 19:48:37 +0000";
layers = (
{
layerId = UUID0;
paths = (
{
closed = 1;
nodes = (
"279 -6 OFFCURVE",
"310 8 OFFCURVE",
"338 9 CURVE",
"340 51 OFFCURVE",
"344 137 OFFCURVE",
"344 176 CURVE SMOOTH",
"344 340 OFFCURVE",
"331 441 OFFCURVE",
"306 560 CURVE",
"278 548 OFFCURVE",
"254 542 OFFCURVE",
"223 538 CURVE",
"245 471 OFFCURVE",
"262 327 OFFCURVE",
"262 176 CURVE SMOOTH",
"262 129 OFFCURVE",
"258 41 OFFCURVE",
"255 -10 CURVE"
);
},
{
closed = 1;
nodes = (
"116 -6 OFFCURVE",
"147 8 OFFCURVE",
"175 9 CURVE",
"177 51 OFFCURVE",
"181 137 OFFCURVE",
"181 176 CURVE SMOOTH",
"181 340 OFFCURVE",
"168 441 OFFCURVE",
"143 560 CURVE",
"115 548 OFFCURVE",
"91 542 OFFCURVE",
"60 538 CURVE",
"82 471 OFFCURVE",
"99 327 OFFCURVE",
"99 176 CURVE SMOOTH",
"99 129 OFFCURVE",
"95 41 OFFCURVE",
"92 -10 CURVE"
);
}
);
width = 424;
}
);
unicode = 11C42;
},
{
glyphname = WordSep;
lastChange = "2017-07-03 19:48:37 +0000";
layers = (
{
layerId = UUID0;
paths = (
{
closed = 1;
nodes = (
"110 295 OFFCURVE",
"133 301 OFFCURVE",
"164 305 CURVE",
"164 413 OFFCURVE",
"155 489 OFFCURVE",
"144 570 CURVE",
"111 552 OFFCURVE",
"85 540 OFFCURVE",
"60 533 CURVE",
"68 467 OFFCURVE",
"79 397 OFFCURVE",
"82 283 CURVE"
);
}
);
width = 244;
}
);
unicode = 11C43;
},
{
glyphname = GapFiller_1;
lastChange = "2017-07-03 19:48:37 +0000";
layers = (
{
layerId = UUID0;
paths = (
{
closed = 1;
nodes = (
"304 389 OFFCURVE",
"337 411 OFFCURVE",
"362 432 CURVE",
"362 452 LINE",
"278 473 OFFCURVE",
"192 507 OFFCURVE",
"124 560 CURVE",
"99 560 LINE",
"83 540 OFFCURVE",
"50 510 OFFCURVE",
"50 498 CURVE SMOOTH",
"50 474 OFFCURVE",
"218 389 OFFCURVE",
"281 389 CURVE SMOOTH"
);
},
{
closed = 1;
nodes = (
"284 -10 OFFCURVE",
"317 12 OFFCURVE",
"342 33 CURVE",
"342 53 LINE",
"275 66 OFFCURVE",
"203 91 OFFCURVE",
"135 144 CURVE",
"110 144 LINE",
"94 124 OFFCURVE",
"61 94 OFFCURVE",
"61 82 CURVE SMOOTH",
"61 58 OFFCURVE",
"198 -10 OFFCURVE",
"261 -10 CURVE SMOOTH"
);
},
{
closed = 1;
nodes = (
"293 190 OFFCURVE",
"326 212 OFFCURVE",
"351 233 CURVE",
"351 253 LINE",
"284 266 OFFCURVE",
"197 291 OFFCURVE",
"129 344 CURVE",
"104 344 LINE",
"88 324 OFFCURVE",
"55 294 OFFCURVE",
"55 282 CURVE SMOOTH",
"55 258 OFFCURVE",
"207 190 OFFCURVE",
"270 190 CURVE SMOOTH"
);
}
);
width = 412;
}
);
unicode = 11C44;
},
{
glyphname = GapFiller_2;
lastChange = "2017-07-03 19:48:37 +0000";
layers = (
{
layerId = UUID0;
paths = (
{
closed = 1;
nodes = (
"389 395 OFFCURVE",
"411 419 OFFCURVE",
"432 440 CURVE",
"380 504 OFFCURVE",
"308 547 OFFCURVE",
"262 560 CURVE",
"246 560 LINE",
"181 531 OFFCURVE",
"115 489 OFFCURVE",
"58 433 CURVE",
"74 419 OFFCURVE",
"98 399 OFFCURVE",
"111 382 CURVE",
"131 417 OFFCURVE",
"177 463 OFFCURVE",
"249 496 CURVE",
"286 490 OFFCURVE",
"329 436 OFFCURVE",
"371 355 CURVE"
);
},
{
closed = 1;
nodes = (
"236 -10 LINE",
"301 19 OFFCURVE",
"367 61 OFFCURVE",
"424 117 CURVE",
"408 131 OFFCURVE",
"384 151 OFFCURVE",
"371 168 CURVE",
"351 133 OFFCURVE",
"305 87 OFFCURVE",
"233 54 CURVE",
"196 60 OFFCURVE",
"153 114 OFFCURVE",
"111 195 CURVE",
"93 155 OFFCURVE",
"71 131 OFFCURVE",
"50 110 CURVE",
"102 46 OFFCURVE",
"174 3 OFFCURVE",
"220 -10 CURVE"
);
},
{
closed = 1;
nodes = (
"197 252 OFFCURVE",
"238 256 OFFCURVE",
"274 256 CURVE SMOOTH",
"289 256 OFFCURVE",
"305 253 OFFCURVE",
"320 252 CURVE",
"322 267 OFFCURVE",
"325 275 OFFCURVE",
"325 290 CURVE SMOOTH",
"325 301 OFFCURVE",
"324 313 OFFCURVE",
"321 324 CURVE",
"307 326 OFFCURVE",
"292 326 OFFCURVE",
"275 326 CURVE SMOOTH",
"239 326 OFFCURVE",
"198 323 OFFCURVE",
"166 319 CURVE",
"168 305 OFFCURVE",
"169 292 OFFCURVE",
"169 279 CURVE SMOOTH",
"169 266 OFFCURVE",
"168 253 OFFCURVE",
"166 241 CURVE"
);
}
);
width = 482;
}
);
unicode = 11C45;
},
{
glyphname = u11C50;
lastChange = "2017-07-03 19:48:37 +0000";
layers = (
{
layerId = UUID0;
paths = (
{
closed = 1;
nodes = (
"405 100 OFFCURVE",
"475 187 OFFCURVE",
"475 295 CURVE SMOOTH",
"475 363 OFFCURVE",
"330 515 OFFCURVE",
"211 515 CURVE SMOOTH",
"91 515 OFFCURVE",
"50 429 OFFCURVE",
"50 355 CURVE SMOOTH",
"50 274 OFFCURVE",
"185 100 OFFCURVE",
"297 100 CURVE SMOOTH"
);
},
{
closed = 1;
nodes = (
"225 170 OFFCURVE",
"132 284 OFFCURVE",
"132 354 CURVE SMOOTH",
"132 400 OFFCURVE",
"164 455 OFFCURVE",
"226 455 CURVE SMOOTH",
"280 455 OFFCURVE",
"393 368 OFFCURVE",
"393 296 CURVE SMOOTH",
"393 253 OFFCURVE",
"355 170 OFFCURVE",
"288 170 CURVE SMOOTH"
);
}
);
width = 525;
}
);
unicode = 11C50;
},
{
glyphname = u11C51;
lastChange = "2017-07-03 19:48:37 +0000";
layers = (
{
layerId = UUID0;
paths = (
{
closed = 1;
nodes = (
"352 32 OFFCURVE",
"352 77 OFFCURVE",
"352 117 CURVE SMOOTH",
"352 256 OFFCURVE",
"277 423 OFFCURVE",
"75 560 CURVE",
"57 538 OFFCURVE",
"31 515 OFFCURVE",
"0 493 CURVE",
"174 398 OFFCURVE",
"270 261 OFFCURVE",
"270 110 CURVE SMOOTH",
"270 86 OFFCURVE",
"270 28 OFFCURVE",
"262 -4 CURVE",
"345 -16 LINE"
);
}
);
width = 452;
}
);
unicode = 11C51;
},
{
glyphname = u11C52;
lastChange = "2017-07-03 19:48:37 +0000";
layers = (
{
layerId = UUID0;
paths = (
{
closed = 1;
nodes = (
"416 32 LINE",
"308 83 OFFCURVE",
"198 180 OFFCURVE",
"144 252 CURVE",
"227 294 OFFCURVE",
"290 383 OFFCURVE",
"290 467 CURVE SMOOTH",
"290 495 OFFCURVE",
"284 526 OFFCURVE",
"272 560 CURVE",
"247 539 OFFCURVE",
"218 521 OFFCURVE",
"191 511 CURVE",
"193 497 OFFCURVE",
"201 484 OFFCURVE",
"201 459 CURVE SMOOTH",
"201 368 OFFCURVE",
"126 277 OFFCURVE",
"50 252 CURVE",
"50 219 LINE",
"105 142 OFFCURVE",
"261 38 OFFCURVE",
"392 -13 CURVE"
);
}
);
width = 436;
}
);
unicode = 11C52;
},
{
glyphname = u11C53;
lastChange = "2017-07-03 19:48:37 +0000";
layers = (
{
layerId = UUID0;
paths = (
{
closed = 1;
nodes = (
"599 -185 LINE",
"522 -72 OFFCURVE",
"371 5 OFFCURVE",
"311 96 CURVE",
"344 125 OFFCURVE",
"366 143 OFFCURVE",
"366 197 CURVE SMOOTH",
"366 239 OFFCURVE",
"327 308 OFFCURVE",
"238 318 CURVE",
"283 359 OFFCURVE",
"292 397 OFFCURVE",
"292 428 CURVE SMOOTH",
"292 490 OFFCURVE",
"235 560 OFFCURVE",
"138 560 CURVE SMOOTH",
"89 560 OFFCURVE",
"43 544 OFFCURVE",
"0 502 CURVE",
"29 486 OFFCURVE",
"53 466 OFFCURVE",
"64 440 CURVE",
"75 468 OFFCURVE",
"112 490 OFFCURVE",
"148 490 CURVE SMOOTH",
"183 490 OFFCURVE",
"221 463 OFFCURVE",
"221 425 CURVE SMOOTH",
"221 363 OFFCURVE",
"184 328 OFFCURVE",
"123 316 CURVE",
"140 299 OFFCURVE",
"150 281 OFFCURVE",
"156 262 CURVE",
"182 272 OFFCURVE",
"190 273 OFFCURVE",
"197 273 CURVE SMOOTH",
"262 273 OFFCURVE",
"284 240 OFFCURVE",
"284 203 CURVE SMOOTH",
"284 146 OFFCURVE",
"242 125 OFFCURVE",
"201 117 CURVE",
"201 93 LINE",
"275 18 OFFCURVE",
"469 -94 OFFCURVE",
"574 -220 CURVE"
);
}
);
width = 449;
}
);
unicode = 11C53;
},
{
glyphname = u11C54;
lastChange = "2017-07-03 19:48:37 +0000";
layers = (
{
layerId = UUID0;
paths = (
{
closed = 1;
nodes = (
"240 36 OFFCURVE",
"300 121 OFFCURVE",
"300 176 CURVE SMOOTH",
"300 255 OFFCURVE",
"132 326 OFFCURVE",
"132 430 CURVE SMOOTH",
"132 464 OFFCURVE",
"160 488 OFFCURVE",
"195 488 CURVE SMOOTH",
"227 488 OFFCURVE",
"258 461 OFFCURVE",
"258 434 CURVE SMOOTH",
"258 403 OFFCURVE",
"228 388 OFFCURVE",
"211 372 CURVE",
"237 355 OFFCURVE",
"255 335 OFFCURVE",
"273 315 CURVE",
"310 347 OFFCURVE",
"340 394 OFFCURVE",
"340 436 CURVE SMOOTH",
"340 511 OFFCURVE",
"284 560 OFFCURVE",
"219 560 CURVE SMOOTH",
"141 560 OFFCURVE",
"50 458 OFFCURVE",
"50 410 CURVE SMOOTH",
"50 302 OFFCURVE",
"218 227 OFFCURVE",
"218 148 CURVE SMOOTH",
"218 83 OFFCURVE",
"198 37 OFFCURVE",
"173 -2 CURVE",
"199 -17 LINE"
);
}
);
width = 420;
}
);
unicode = 11C54;
},
{
glyphname = u11C55;
lastChange = "2017-07-03 19:48:37 +0000";
layers = (
{
layerId = UUID0;
paths = (
{
closed = 1;
nodes = (
"658 13 OFFCURVE",
"664 41 OFFCURVE",
"673 68 CURVE",
"571 104 OFFCURVE",
"375 218 OFFCURVE",
"371 560 CURVE",
"353 560 LINE",
"225 497 OFFCURVE",
"50 235 OFFCURVE",
"50 204 CURVE SMOOTH",
"50 169 OFFCURVE",
"128 145 OFFCURVE",
"128 111 CURVE SMOOTH",
"128 81 OFFCURVE",
"86 48 OFFCURVE",
"61 41 CURVE",
"73 24 OFFCURVE",
"81 7 OFFCURVE",
"87 -10 CURVE",
"135 8 OFFCURVE",
"210 60 OFFCURVE",
"210 112 CURVE SMOOTH",
"210 182 OFFCURVE",
"129 214 OFFCURVE",
"126 229 CURVE",
"126 260 OFFCURVE",
"260 438 OFFCURVE",
"326 483 CURVE",
"335 212 OFFCURVE",
"475 42 OFFCURVE",
"657 -16 CURVE"
);
}
);
width = 623;
}
);
unicode = 11C55;
},
{
glyphname = u11C56;
lastChange = "2017-07-03 19:48:37 +0000";
layers = (
{
layerId = UUID0;
paths = (
{
closed = 1;
nodes = (
"290 -10 OFFCURVE",
"388 125 OFFCURVE",
"388 161 CURVE SMOOTH",
"388 243 OFFCURVE",
"222 299 OFFCURVE",
"222 375 CURVE SMOOTH",
"222 401 OFFCURVE",
"318 459 OFFCURVE",
"410 500 CURVE",
"389 521 OFFCURVE",
"373 544 OFFCURVE",
"363 567 CURVE",
"166 442 OFFCURVE",
"140 378 OFFCURVE",
"140 359 CURVE SMOOTH",
"140 274 OFFCURVE",
"306 211 OFFCURVE",
"306 149 CURVE SMOOTH",
"306 106 OFFCURVE",
"261 60 OFFCURVE",
"194 60 CURVE SMOOTH",
"140 60 OFFCURVE",
"73 70 OFFCURVE",
"14 95 CURVE",
"12 63 OFFCURVE",
"8 35 OFFCURVE",
"0 13 CURVE",
"57 -5 OFFCURVE",
"119 -10 OFFCURVE",
"186 -10 CURVE SMOOTH"
);
}
);
width = 470;
}
);
unicode = 11C56;
},
{
glyphname = u11C57;
lastChange = "2017-07-03 19:48:37 +0000";
layers = (
{
layerId = UUID0;
paths = (
{
closed = 1;
nodes = (
"378 -55 LINE",
"353 -16 OFFCURVE",
"333 61 OFFCURVE",
"333 162 CURVE SMOOTH",
"333 241 OFFCURVE",
"356 263 OFFCURVE",
"356 392 CURVE SMOOTH",
"356 470 OFFCURVE",
"265 560 OFFCURVE",
"200 560 CURVE SMOOTH",
"137 560 OFFCURVE",
"50 489 OFFCURVE",
"50 414 CURVE SMOOTH",
"50 380 OFFCURVE",
"79 307 OFFCURVE",
"163 307 CURVE SMOOTH",
"184 307 OFFCURVE",
"208 312 OFFCURVE",
"236 323 CURVE",
"214 404 LINE",
"198 394 OFFCURVE",
"183 389 OFFCURVE",
"171 389 CURVE SMOOTH",
"146 389 OFFCURVE",
"132 405 OFFCURVE",
"132 428 CURVE SMOOTH",
"132 455 OFFCURVE",
"153 488 OFFCURVE",
"200 488 CURVE SMOOTH",
"234 488 OFFCURVE",
"274 464 OFFCURVE",
"274 396 CURVE SMOOTH",
"274 257 OFFCURVE",
"251 255 OFFCURVE",
"251 153 CURVE SMOOTH",
"251 56 OFFCURVE",
"304 -18 OFFCURVE",
"352 -70 CURVE"
);
}
);
width = 428;
}
);
unicode = 11C57;
},
{
glyphname = u11C58;
lastChange = "2017-07-03 19:48:37 +0000";
layers = (
{
layerId = UUID0;
paths = (
{
closed = 1;
nodes = (
"310 80 LINE",
"250 111 OFFCURVE",
"152 203 OFFCURVE",
"152 248 CURVE SMOOTH",
"152 273 OFFCURVE",
"365 234 OFFCURVE",
"677 410 CURVE",
"650 447 LINE",
"470 340 OFFCURVE",
"297 344 OFFCURVE",
"183 333 CURVE SMOOTH",
"101 325 OFFCURVE",
"50 309 OFFCURVE",
"50 252 CURVE SMOOTH",
"50 184 OFFCURVE",
"186 91 OFFCURVE",
"285 37 CURVE"
);
}
);
width = 697;
}
);
unicode = 11C58;
},
{
glyphname = u11C59;
lastChange = "2017-07-03 19:48:37 +0000";
layers = (
{
layerId = UUID0;
paths = (
{
closed = 1;
nodes = (
"259 14 OFFCURVE",
"281 35 OFFCURVE",
"304 54 CURVE",
"270 101 OFFCURVE",
"126 184 OFFCURVE",
"126 226 CURVE SMOOTH",
"126 244 OFFCURVE",
"139 286 OFFCURVE",
"158 301 CURVE",
"187 259 OFFCURVE",
"222 235 OFFCURVE",
"270 235 CURVE SMOOTH",
"312 235 OFFCURVE",
"450 308 OFFCURVE",
"450 386 CURVE SMOOTH",
"450 488 OFFCURVE",
"267 560 OFFCURVE",
"114 564 CURVE",
"110 539 OFFCURVE",
"104 518 OFFCURVE",
"98 501 CURVE",
"300 493 OFFCURVE",
"368 412 OFFCURVE",
"368 373 CURVE SMOOTH",
"368 333 OFFCURVE",
"333 305 OFFCURVE",
"274 305 CURVE SMOOTH",
"207 305 OFFCURVE",
"201 394 OFFCURVE",
"160 394 CURVE SMOOTH",
"114 394 OFFCURVE",
"50 241 OFFCURVE",
"50 197 CURVE SMOOTH",
"50 146 OFFCURVE",
"194 52 OFFCURVE",
"241 -10 CURVE"
);
}
);
width = 500;
}
);
unicode = 11C59;
},
{
glyphname = NumberOne;
lastChange = "2017-07-03 19:48:37 +0000";
layers = (
{
layerId = UUID0;
paths = (
{
closed = 1;
nodes = (
"394 28 OFFCURVE",
"478 95 OFFCURVE",
"478 141 CURVE SMOOTH",
"478 152 OFFCURVE",
"413 412 OFFCURVE",
"299 560 CURVE",
"277 560 LINE",
"221 532 OFFCURVE",
"40 409 OFFCURVE",
"40 352 CURVE SMOOTH",
"40 322 OFFCURVE",
"61 296 OFFCURVE",
"107 259 CURVE",
"193 322 LINE",
"171 339 OFFCURVE",
"146 353 OFFCURVE",
"146 372 CURVE SMOOTH",
"146 391 OFFCURVE",
"177 435 OFFCURVE",
"254 477 CURVE",
"293 450 OFFCURVE",
"387 197 OFFCURVE",
"387 155 CURVE SMOOTH",
"387 132 OFFCURVE",
"318 98 OFFCURVE",
"258 73 CURVE",
"288 49 OFFCURVE",
"309 21 OFFCURVE",
"320 -14 CURVE"
);
}
);
width = 518;
}
);
unicode = 11C5A;
},
{
glyphname = NumberTwo;
lastChange = "2017-07-03 19:48:37 +0000";
layers = (
{
layerId = UUID0;
paths = (
{
closed = 1;
nodes = (
"305 13 OFFCURVE",
"398 54 OFFCURVE",
"398 116 CURVE SMOOTH",
"398 150 OFFCURVE",
"369 285 OFFCURVE",
"331 327 CURVE",
"338 338 OFFCURVE",
"342 349 OFFCURVE",
"342 360 CURVE SMOOTH",
"342 403 OFFCURVE",
"284 527 OFFCURVE",
"234 560 CURVE",
"212 560 LINE",
"177 546 OFFCURVE",
"30 480 OFFCURVE",
"30 425 CURVE SMOOTH",
"30 406 OFFCURVE",
"44 375 OFFCURVE",
"66 350 CURVE",
"90 376 OFFCURVE",
"117 395 OFFCURVE",
"147 408 CURVE",
"137 417 OFFCURVE",
"121 438 OFFCURVE",
"121 446 CURVE SMOOTH",
"121 460 OFFCURVE",
"164 481 OFFCURVE",
"192 491 CURVE",
"213 481 OFFCURVE",
"250 394 OFFCURVE",
"250 359 CURVE SMOOTH",
"250 322 OFFCURVE",
"175 286 OFFCURVE",
"114 258 CURVE",
"126 243 OFFCURVE",
"136 221 OFFCURVE",
"143 198 CURVE",
"197 223 OFFCURVE",
"240 248 OFFCURVE",
"273 271 CURVE",
"298 237 OFFCURVE",
"316 159 OFFCURVE",
"316 132 CURVE SMOOTH",
"316 104 OFFCURVE",
"204 76 OFFCURVE",
"159 74 CURVE",
"176 50 OFFCURVE",
"188 22 OFFCURVE",
"197 -10 CURVE"
);
}
);
width = 438;
}
);
unicode = 11C5B;
},
{
glyphname = NumberThree;
lastChange = "2017-07-03 19:48:37 +0000";
layers = (
{
layerId = UUID0;
paths = (
{
closed = 1;
nodes = (
"342 13 OFFCURVE",
"424 37 OFFCURVE",
"424 88 CURVE SMOOTH",
"424 140 OFFCURVE",
"361 289 OFFCURVE",
"327 359 CURVE",
"332 369 OFFCURVE",
"335 378 OFFCURVE",
"335 387 CURVE SMOOTH",
"335 430 OFFCURVE",
"284 527 OFFCURVE",
"234 560 CURVE",
"212 560 LINE",
"137 528 OFFCURVE",
"30 466 OFFCURVE",
"30 425 CURVE SMOOTH",
"30 406 OFFCURVE",
"44 375 OFFCURVE",
"66 350 CURVE",
"90 376 OFFCURVE",
"117 395 OFFCURVE",
"147 408 CURVE",
"137 417 OFFCURVE",
"121 438 OFFCURVE",
"121 446 CURVE SMOOTH",
"121 460 OFFCURVE",
"164 481 OFFCURVE",
"192 491 CURVE",
"213 475 OFFCURVE",
"243 417 OFFCURVE",
"243 386 CURVE SMOOTH",
"243 349 OFFCURVE",
"168 313 OFFCURVE",
"107 285 CURVE",
"119 270 OFFCURVE",
"129 248 OFFCURVE",
"136 225 CURVE",
"190 250 OFFCURVE",
"233 275 OFFCURVE",
"266 298 CURVE",
"283 277 OFFCURVE",
"294 244 OFFCURVE",
"294 237 CURVE SMOOTH",
"294 226 OFFCURVE",
"200 187 OFFCURVE",
"152 176 CURVE",
"163 157 OFFCURVE",
"171 136 OFFCURVE",
"174 115 CURVE",
"236 128 OFFCURVE",
"308 165 OFFCURVE",
"322 165 CURVE SMOOTH",
"329 165 OFFCURVE",
"342 127 OFFCURVE",
"342 115 CURVE SMOOTH",
"342 87 OFFCURVE",
"228 69 OFFCURVE",
"183 67 CURVE",
"199 44 OFFCURVE",
"209 18 OFFCURVE",
"217 -10 CURVE"
);
}
);
width = 464;
}
);
unicode = 11C5C;
},
{
glyphname = NumberFour;
lastChange = "2017-07-03 19:48:37 +0000";
layers = (
{
layerId = UUID0;
paths = (
{
closed = 1;
nodes = (
"88 1 OFFCURVE",
"181 38 OFFCURVE",
"232 38 CURVE SMOOTH",
"262 38 OFFCURVE",
"294 33 OFFCURVE",
"346 9 CURVE",
"365 9 LINE",
"386 18 OFFCURVE",
"415 67 OFFCURVE",
"433 117 CURVE",
"469 81 OFFCURVE",
"502 45 OFFCURVE",
"526 14 CURVE",
"539 98 LINE",
"514 128 OFFCURVE",
"482 161 OFFCURVE",
"448 193 CURVE",
"448 250 OFFCURVE",
"443 330 OFFCURVE",
"436 388 CURVE",
"570 388 LINE",
"570 408 LINE",
"409 560 LINE",
"387 560 LINE",
"224 408 LINE",
"224 388 LINE",
"357 388 LINE",
"362 363 OFFCURVE",
"366 308 OFFCURVE",
"368 263 CURVE",
"319 303 OFFCURVE",
"272 336 OFFCURVE",
"240 355 CURVE",
"224 355 LINE",
"149 324 OFFCURVE",
"77 264 OFFCURVE",
"26 204 CURVE",
"49 181 LINE",
"107 229 OFFCURVE",
"165 261 OFFCURVE",
"223 277 CURVE",
"241 277 OFFCURVE",
"292 242 OFFCURVE",
"348 194 CURVE",
"319 203 OFFCURVE",
"285 210 OFFCURVE",
"254 210 CURVE SMOOTH",
"209 210 OFFCURVE",
"175 199 OFFCURVE",
"139 180 CURVE",
"155 155 LINE",
"170 159 OFFCURVE",
"206 163 OFFCURVE",
"221 163 CURVE SMOOTH",
"276 163 OFFCURVE",
"323 146 OFFCURVE",
"360 121 CURVE",
"355 104 OFFCURVE",
"348 91 OFFCURVE",
"341 83 CURVE",
"304 104 OFFCURVE",
"246 110 OFFCURVE",
"245 110 CURVE SMOOTH",
"176 110 OFFCURVE",
"69 30 OFFCURVE",
"7 -22 CURVE",
"20 -41 LINE"
);
}
);
width = 610;
}
);
unicode = 11C5D;
},
{
glyphname = NumberFive;
lastChange = "2017-07-03 19:48:37 +0000";
layers = (
{
layerId = UUID0;
paths = (
{
closed = 1;
nodes = (
"449 -10 OFFCURVE",
"515 33 OFFCURVE",
"546 55 CURVE",
"523 87 LINE",
"499 74 OFFCURVE",
"458 54 OFFCURVE",
"433 54 CURVE SMOOTH",
"391 54 OFFCURVE",
"361 77 OFFCURVE",
"340 107 CURVE",
"379 134 OFFCURVE",
"538 205 OFFCURVE",
"538 266 CURVE SMOOTH",
"538 296 OFFCURVE",
"524 347 OFFCURVE",
"510 388 CURVE",
"642 388 LINE",
"642 408 LINE",
"481 560 LINE",
"459 560 LINE",
"296 408 LINE",
"296 388 LINE",
"432 388 LINE",
"443 353 OFFCURVE",
"456 310 OFFCURVE",
"456 291 CURVE SMOOTH",
"456 280 OFFCURVE",
"443 270 OFFCURVE",
"429 269 CURVE",
"384 300 OFFCURVE",
"317 327 OFFCURVE",
"265 327 CURVE SMOOTH",
"203 327 OFFCURVE",
"73 235 OFFCURVE",
"10 178 CURVE",
"23 159 LINE",
"99 209 OFFCURVE",
"190 255 OFFCURVE",
"255 255 CURVE SMOOTH",
"299 255 OFFCURVE",
"352 227 OFFCURVE",
"398 203 CURVE",
"356 168 OFFCURVE",
"286 130 OFFCURVE",
"216 102 CURVE",
"229 66 LINE",
"241 69 OFFCURVE",
"253 72 OFFCURVE",
"264 76 CURVE",
"295 23 OFFCURVE",
"346 -10 OFFCURVE",
"423 -10 CURVE SMOOTH"
);
}
);
width = 662;
}
);
unicode = 11C5E;
},
{
glyphname = NumberSix;
lastChange = "2017-07-03 19:48:37 +0000";
layers = (
{
layerId = UUID0;
paths = (
{
closed = 1;
nodes = (
"99 30 OFFCURVE",
"190 76 OFFCURVE",
"255 76 CURVE SMOOTH",
"316 76 OFFCURVE",
"393 24 OFFCURVE",
"445 0 CURVE",
"460 0 LINE",
"503 35 OFFCURVE",
"538 58 OFFCURVE",
"538 87 CURVE SMOOTH",
"538 120 OFFCURVE",
"522 177 OFFCURVE",
"507 219 CURVE",
"742 219 LINE",
"742 251 LINE",
"679 353 OFFCURVE",
"591 443 OFFCURVE",
"483 541 CURVE",
"461 541 LINE",
"223 367 LINE",
"245 342 LINE",
"452 481 LINE",
"544 398 OFFCURVE",
"613 327 OFFCURVE",
"659 259 CURVE",
"639 259 LINE",
"460 408 LINE",
"440 408 LINE",
"260 242 LINE",
"260 219 LINE",
"429 219 LINE",
"441 183 OFFCURVE",
"456 133 OFFCURVE",
"456 112 CURVE SMOOTH",
"456 101 OFFCURVE",
"443 91 OFFCURVE",
"429 90 CURVE",
"384 121 OFFCURVE",
"317 148 OFFCURVE",
"265 148 CURVE SMOOTH",
"203 148 OFFCURVE",
"73 56 OFFCURVE",
"10 -1 CURVE",
"23 -20 LINE"
);
},
{
closed = 1;
nodes = (
"374 279 LINE",
"447 341 LINE",
"455 341 LINE",
"527 279 LINE",
"527 272 LINE",
"374 272 LINE"
);
}
);
width = 777;
}
);
unicode = 11C5F;
},
{
glyphname = NumberSeven;
lastChange = "2017-07-03 19:48:37 +0000";
layers = (
{
layerId = UUID0;
paths = (
{
closed = 1;
nodes = (
"99 30 OFFCURVE",
"252 124 OFFCURVE",
"317 124 CURVE SMOOTH",
"378 124 OFFCURVE",
"466 83 OFFCURVE",
"518 59 CURVE",
"533 59 LINE",
"597 103 OFFCURVE",
"639 185 OFFCURVE",
"639 233 CURVE SMOOTH",
"639 251 OFFCURVE",
"636 291 OFFCURVE",
"626 340 CURVE",
"926 340 LINE",
"926 360 LINE",
"765 512 LINE",
"743 512 LINE",
"613 391 LINE",
"598 446 OFFCURVE",
"575 507 OFFCURVE",
"539 560 CURVE",
"517 560 LINE",
"461 532 OFFCURVE",
"329 458 OFFCURVE",
"329 401 CURVE SMOOTH",
"329 371 OFFCURVE",
"350 345 OFFCURVE",
"396 308 CURVE",
"482 371 LINE",
"460 388 OFFCURVE",
"435 402 OFFCURVE",
"435 421 CURVE SMOOTH",
"435 440 OFFCURVE",
"457 458 OFFCURVE",
"494 477 CURVE",
"525 433 OFFCURVE",
"557 289 OFFCURVE",
"557 247 CURVE SMOOTH",
"557 196 OFFCURVE",
"546 164 OFFCURVE",
"509 147 CURVE",
"455 172 OFFCURVE",
"379 196 OFFCURVE",
"327 196 CURVE SMOOTH",
"265 196 OFFCURVE",
"73 56 OFFCURVE",
"10 -1 CURVE",
"23 -20 LINE"
);
}
);
width = 946;
}
);
unicode = 11C60;
},
{
glyphname = NumberEight;
lastChange = "2017-07-03 19:48:37 +0000";
layers = (
{
layerId = UUID0;
paths = (
{
closed = 1;
nodes = (
"79 60 OFFCURVE",
"162 174 OFFCURVE",
"227 174 CURVE SMOOTH",
"288 174 OFFCURVE",
"376 83 OFFCURVE",
"428 59 CURVE",
"443 59 LINE",
"507 103 OFFCURVE",
"549 146 OFFCURVE",
"549 213 CURVE SMOOTH",
"549 289 OFFCURVE",
"386 376 OFFCURVE",
"386 419 CURVE SMOOTH",
"386 438 OFFCURVE",
"419 460 OFFCURVE",
"459 486 CURVE",
"477 474 OFFCURVE",
"512 451 OFFCURVE",
"536 395 CURVE",
"550 395 LINE",
"558 398 OFFCURVE",
"560 405 OFFCURVE",
"595 437 CURVE",
"574 477 OFFCURVE",
"541 516 OFFCURVE",
"496 560 CURVE",
"474 560 LINE",
"418 532 OFFCURVE",
"300 430 OFFCURVE",
"300 399 CURVE SMOOTH",
"300 338 OFFCURVE",
"467 266 OFFCURVE",
"467 206 CURVE SMOOTH",
"467 182 OFFCURVE",
"444 165 OFFCURVE",
"419 147 CURVE",
"365 172 OFFCURVE",
"289 246 OFFCURVE",
"237 246 CURVE SMOOTH",
"175 246 OFFCURVE",
"47 89 OFFCURVE",
"12 -8 CURVE",
"33 -20 LINE"
);
},
{
closed = 1;
nodes = (
"738 307 OFFCURVE",
"770 347 OFFCURVE",
"770 368 CURVE SMOOTH",
"770 389 OFFCURVE",
"740 454 OFFCURVE",
"647 516 CURVE",
"629 516 LINE",
"579 490 OFFCURVE",
"548 469 OFFCURVE",
"517 445 CURVE",
"553 400 LINE",
"578 423 OFFCURVE",
"604 441 OFFCURVE",
"629 452 CURVE",
"658 430 OFFCURVE",
"682 405 OFFCURVE",
"682 395 CURVE SMOOTH",
"682 380 OFFCURVE",
"664 353 OFFCURVE",
"642 341 CURVE",
"665 324 OFFCURVE",
"689 310 OFFCURVE",
"708 287 CURVE"
);
},
{
closed = 1;
nodes = (
"1006 340 LINE",
"1006 355 LINE",
"881 478 LINE",
"865 478 LINE",
"738 355 LINE",
"738 340 LINE"
);
}
);
width = 1026;
}
);
unicode = 11C61;
},
{
glyphname = NumberNine;
lastChange = "2017-07-03 19:48:37 +0000";
layers = (
{
layerId = UUID0;
paths = (
{
closed = 1;
nodes = (
"694 -30 OFFCURVE",
"824 144 OFFCURVE",
"824 273 CURVE SMOOTH",
"824 419 OFFCURVE",
"733 560 OFFCURVE",
"573 560 CURVE SMOOTH",
"435 560 OFFCURVE",
"311 434 OFFCURVE",
"311 352 CURVE SMOOTH",
"311 247 OFFCURVE",
"439 109 OFFCURVE",
"561 109 CURVE SMOOTH",
"616 109 OFFCURVE",
"680 152 OFFCURVE",
"680 245 CURVE SMOOTH",
"680 261 OFFCURVE",
"672 295 OFFCURVE",
"663 318 CURVE",
"668 328 OFFCURVE",
"670 337 OFFCURVE",
"670 347 CURVE SMOOTH",
"670 374 OFFCURVE",
"639 433 OFFCURVE",
"601 459 CURVE",
"584 459 LINE",
"557 448 OFFCURVE",
"444 398 OFFCURVE",
"444 355 CURVE SMOOTH",
"444 341 OFFCURVE",
"455 319 OFFCURVE",
"472 300 CURVE",
"490 319 OFFCURVE",
"511 332 OFFCURVE",
"534 342 CURVE",
"526 349 OFFCURVE",
"514 366 OFFCURVE",
"514 371 CURVE SMOOTH",
"514 383 OFFCURVE",
"547 399 OFFCURVE",
"569 406 CURVE",
"585 399 OFFCURVE",
"602 361 OFFCURVE",
"602 349 CURVE SMOOTH",
"602 329 OFFCURVE",
"573 306 OFFCURVE",
"527 285 CURVE",
"536 273 OFFCURVE",
"544 256 OFFCURVE",
"549 238 CURVE",
"571 249 OFFCURVE",
"590 258 OFFCURVE",
"605 267 CURVE",
"610 252 OFFCURVE",
"612 237 OFFCURVE",
"612 228 CURVE SMOOTH",
"612 194 OFFCURVE",
"602 174 OFFCURVE",
"557 174 CURVE SMOOTH",
"487 174 OFFCURVE",
"389 273 OFFCURVE",
"389 353 CURVE SMOOTH",
"389 432 OFFCURVE",
"488 495 OFFCURVE",
"567 495 CURVE SMOOTH",
"668 495 OFFCURVE",
"746 398 OFFCURVE",
"746 264 CURVE SMOOTH",
"746 159 OFFCURVE",
"646 42 OFFCURVE",
"542 42 CURVE SMOOTH",
"449 42 OFFCURVE",
"358 172 OFFCURVE",
"267 172 CURVE SMOOTH",
"205 172 OFFCURVE",
"73 56 OFFCURVE",
"10 -1 CURVE",
"23 -20 LINE",
"99 30 OFFCURVE",
"192 100 OFFCURVE",
"257 100 CURVE SMOOTH",
"318 100 OFFCURVE",
"429 -30 OFFCURVE",
"529 -30 CURVE SMOOTH"
);
}
);
width = 864;
}
);
unicode = 11C62;
},
{
glyphname = NumberTen;
lastChange = "2017-07-03 19:48:37 +0000";
layers = (
{
layerId = UUID0;
paths = (
{
closed = 1;
nodes = (
"-8 -117 OFFCURVE",
"237 70 OFFCURVE",
"313 70 CURVE SMOOTH",
"399 70 OFFCURVE",
"456 -10 OFFCURVE",
"538 -10 CURVE SMOOTH",
"646 -10 OFFCURVE",
"790 209 OFFCURVE",
"790 319 CURVE SMOOTH",
"790 465 OFFCURVE",
"707 560 OFFCURVE",
"596 560 CURVE SMOOTH",
"499 560 OFFCURVE",
"371 463 OFFCURVE",
"371 409 CURVE SMOOTH",
"371 395 OFFCURVE",
"376 379 OFFCURVE",
"386 365 CURVE",
"356 347 OFFCURVE",
"331 314 OFFCURVE",
"331 283 CURVE SMOOTH",
"331 234 OFFCURVE",
"397 169 OFFCURVE",
"452 169 CURVE SMOOTH",
"493 169 OFFCURVE",
"544 230 OFFCURVE",
"544 270 CURVE SMOOTH",
"544 271 OFFCURVE",
"544 273 OFFCURVE",
"543 275 CURVE",
"580 283 OFFCURVE",
"610 312 OFFCURVE",
"610 349 CURVE SMOOTH",
"610 371 OFFCURVE",
"605 399 OFFCURVE",
"577 422 CURVE",
"532 401 LINE",
"540 391 OFFCURVE",
"546 375 OFFCURVE",
"546 362 CURVE SMOOTH",
"546 349 OFFCURVE",
"540 338 OFFCURVE",
"521 338 CURVE SMOOTH",
"497 338 OFFCURVE",
"449 376 OFFCURVE",
"449 411 CURVE SMOOTH",
"449 446 OFFCURVE",
"525 495 OFFCURVE",
"576 495 CURVE SMOOTH",
"656 495 OFFCURVE",
"712 444 OFFCURVE",
"712 310 CURVE SMOOTH",
"712 228 OFFCURVE",
"615 62 OFFCURVE",
"538 62 CURVE SMOOTH",
"491 62 OFFCURVE",
"396 142 OFFCURVE",
"323 142 CURVE SMOOTH",
"261 142 OFFCURVE",
"-37 -88 OFFCURVE",
"-100 -145 CURVE",
"-84 -167 LINE"
);
},
{
closed = 1;
nodes = (
"421 230 OFFCURVE",
"391 258 OFFCURVE",
"391 280 CURVE SMOOTH",
"391 300 OFFCURVE",
"406 311 OFFCURVE",
"428 311 CURVE SMOOTH",
"444 311 OFFCURVE",
"485 279 OFFCURVE",
"485 264 CURVE SMOOTH",
"485 247 OFFCURVE",
"469 230 OFFCURVE",
"449 230 CURVE SMOOTH"
);
}
);
width = 830;
}
);
unicode = 11C63;
},
{
glyphname = NumberForty;
lastChange = "2017-07-03 19:48:37 +0000";
layers = (
{
layerId = UUID0;
paths = (
{
closed = 1;
nodes = (
"404 20 OFFCURVE",
"425 70 OFFCURVE",
"425 91 CURVE SMOOTH",
"425 144 OFFCURVE",
"383 203 OFFCURVE",
"332 257 CURVE",
"383 305 OFFCURVE",
"430 343 OFFCURVE",
"464 388 CURVE",
"585 388 LINE",
"585 408 LINE",
"424 560 LINE",
"402 560 LINE",
"239 408 LINE",
"239 388 LINE",
"383 388 LINE",
"350 351 OFFCURVE",
"318 324 OFFCURVE",
"288 301 CURVE",
"256 331 OFFCURVE",
"224 359 OFFCURVE",
"199 382 CURVE",
"215 405 OFFCURVE",
"225 430 OFFCURVE",
"225 454 CURVE SMOOTH",
"225 488 OFFCURVE",
"203 533 OFFCURVE",
"165 569 CURVE",
"144 541 OFFCURVE",
"123 520 OFFCURVE",
"102 503 CURVE",
"121 488 OFFCURVE",
"143 464 OFFCURVE",
"143 436 CURVE SMOOTH",
"143 410 OFFCURVE",
"126 375 OFFCURVE",
"80 358 CURVE",
"114 305 LINE",
"128 313 OFFCURVE",
"141 322 OFFCURVE",
"154 333 CURVE",
"172 319 OFFCURVE",
"203 291 OFFCURVE",
"234 261 CURVE",
"185 225 OFFCURVE",
"143 193 OFFCURVE",
"108 135 CURVE",
"152 121 OFFCURVE",
"180 105 OFFCURVE",
"195 85 CURVE",
"223 134 OFFCURVE",
"254 173 OFFCURVE",
"284 207 CURVE",
"312 175 OFFCURVE",
"334 146 OFFCURVE",
"334 130 CURVE SMOOTH",
"334 107 OFFCURVE",
"328 90 OFFCURVE",
"268 65 CURVE",
"298 41 OFFCURVE",
"319 13 OFFCURVE",
"330 -22 CURVE"
);
}
);
width = 625;
}
);
unicode = 11C66;
category = Letter;
},
{
glyphname = NumberFifty;
lastChange = "2017-07-03 19:48:37 +0000";
layers = (
{
layerId = UUID0;
paths = (
{
closed = 1;
nodes = (
"303 -10 OFFCURVE",
"443 100 OFFCURVE",
"443 148 CURVE SMOOTH",
"443 204 OFFCURVE",
"399 270 OFFCURVE",
"368 283 CURVE",
"349 261 OFFCURVE",
"316 236 OFFCURVE",
"286 225 CURVE",
"336 208 OFFCURVE",
"361 168 OFFCURVE",
"361 133 CURVE SMOOTH",
"361 113 OFFCURVE",
"296 60 OFFCURVE",
"261 60 CURVE SMOOTH",
"224 60 OFFCURVE",
"128 159 OFFCURVE",
"128 202 CURVE SMOOTH",
"128 232 OFFCURVE",
"278 310 OFFCURVE",
"278 348 CURVE SMOOTH",
"278 360 OFFCURVE",
"274 374 OFFCURVE",
"266 388 CURVE",
"386 388 LINE",
"386 408 LINE",
"362 430 LINE",
"375 439 OFFCURVE",
"387 446 OFFCURVE",
"400 452 CURVE",
"429 430 OFFCURVE",
"453 405 OFFCURVE",
"453 395 CURVE SMOOTH",
"453 380 OFFCURVE",
"435 353 OFFCURVE",
"413 341 CURVE",
"436 324 OFFCURVE",
"460 310 OFFCURVE",
"479 287 CURVE",
"498 300 OFFCURVE",
"518 321 OFFCURVE",
"530 340 CURVE",
"777 340 LINE",
"777 355 LINE",
"652 478 LINE",
"636 478 LINE",
"538 383 LINE",
"528 412 OFFCURVE",
"495 464 OFFCURVE",
"418 516 CURVE",
"400 516 LINE",
"367 499 OFFCURVE",
"343 484 OFFCURVE",
"321 469 CURVE",
"225 560 LINE",
"203 560 LINE",
"40 408 LINE",
"40 388 LINE",
"178 388 LINE",
"191 376 OFFCURVE",
"196 361 OFFCURVE",
"196 348 CURVE SMOOTH",
"196 318 OFFCURVE",
"42 239 OFFCURVE",
"42 195 CURVE SMOOTH",
"42 133 OFFCURVE",
"157 -10 OFFCURVE",
"251 -10 CURVE SMOOTH"
);
}
);
width = 797;
}
);
unicode = 11C67;
category = Letter;
},
{
glyphname = NumberSixty;
lastChange = "2017-07-03 19:48:37 +0000";
layers = (
{
layerId = UUID0;
paths = (
{
closed = 1;
nodes = (
"76 56 OFFCURVE",
"188 148 OFFCURVE",
"225 148 CURVE SMOOTH",
"276 148 OFFCURVE",
"316 122 OFFCURVE",
"393 90 CURVE",
"419 90 LINE",
"459 119 OFFCURVE",
"489 218 OFFCURVE",
"489 306 CURVE SMOOTH",
"489 331 OFFCURVE",
"486 361 OFFCURVE",
"480 388 CURVE",
"594 388 LINE",
"594 408 LINE",
"433 560 LINE",
"411 560 LINE",
"248 408 LINE",
"248 388 LINE",
"399 388 LINE",
"405 363 OFFCURVE",
"409 334 OFFCURVE",
"410 305 CURVE",
"403 305 LINE SMOOTH",
"273 305 OFFCURVE",
"171 362 OFFCURVE",
"171 471 CURVE SMOOTH",
"171 485 OFFCURVE",
"173 501 OFFCURVE",
"177 517 CURVE",
"152 519 OFFCURVE",
"128 525 OFFCURVE",
"105 538 CURVE",
"101 518 OFFCURVE",
"99 499 OFFCURVE",
"99 481 CURVE SMOOTH",
"99 338 OFFCURVE",
"203 245 OFFCURVE",
"409 243 CURVE",
"406 208 OFFCURVE",
"398 180 OFFCURVE",
"385 168 CURVE",
"341 191 OFFCURVE",
"267 220 OFFCURVE",
"232 220 CURVE SMOOTH",
"171 220 OFFCURVE",
"45 85 OFFCURVE",
"-20 11 CURVE",
"2 -10 LINE"
);
}
);
width = 614;
}
);
unicode = 11C68;
category = Letter;
},
{
glyphname = NumberSeventy;
lastChange = "2017-07-03 19:48:37 +0000";
layers = (
{
layerId = UUID0;
paths = (
{
closed = 1;
nodes = (
"370 23 OFFCURVE",
"420 80 OFFCURVE",
"420 101 CURVE SMOOTH",
"420 124 OFFCURVE",
"400 146 OFFCURVE",
"372 169 CURVE",
"398 227 OFFCURVE",
"407 285 OFFCURVE",
"407 310 CURVE SMOOTH",
"407 346 OFFCURVE",
"405 369 OFFCURVE",
"402 388 CURVE",
"542 388 LINE",
"542 408 LINE",
"381 560 LINE",
"359 560 LINE",
"196 408 LINE",
"196 388 LINE",
"320 388 LINE",
"322 366 OFFCURVE",
"325 348 OFFCURVE",
"325 312 CURVE SMOOTH",
"325 282 OFFCURVE",
"322 246 OFFCURVE",
"315 211 CURVE",
"236 268 OFFCURVE",
"142 342 OFFCURVE",
"142 471 CURVE SMOOTH",
"142 485 OFFCURVE",
"144 501 OFFCURVE",
"148 517 CURVE",
"123 519 OFFCURVE",
"89 525 OFFCURVE",
"66 538 CURVE",
"62 518 OFFCURVE",
"60 499 OFFCURVE",
"60 481 CURVE SMOOTH",
"60 345 OFFCURVE",
"154 257 OFFCURVE",
"234 196 CURVE",
"183 166 OFFCURVE",
"124 131 OFFCURVE",
"124 101 CURVE SMOOTH",
"124 65 OFFCURVE",
"190 24 OFFCURVE",
"212 24 CURVE",
"269 36 OFFCURVE",
"311 72 OFFCURVE",
"341 114 CURVE",
"345 108 OFFCURVE",
"348 103 OFFCURVE",
"348 98 CURVE SMOOTH",
"348 72 OFFCURVE",
"307 36 OFFCURVE",
"272 10 CURVE",
"296 -19 LINE"
);
},
{
closed = 1;
nodes = (
"209 87 OFFCURVE",
"197 97 OFFCURVE",
"197 114 CURVE SMOOTH",
"197 131 OFFCURVE",
"226 148 OFFCURVE",
"268 171 CURVE",
"298 151 LINE",
"282 114 OFFCURVE",
"259 87 OFFCURVE",
"225 80 CURVE"
);
}
);
width = 562;
}
);
unicode = 11C69;
category = Letter;
},
{
glyphname = NumberEighty;
lastChange = "2017-07-03 19:48:37 +0000";
layers = (
{
layerId = UUID0;
paths = (
{
closed = 1;
nodes = (
"596 -10 OFFCURVE",
"718 185 OFFCURVE",
"718 230 CURVE SMOOTH",
"718 267 OFFCURVE",
"713 338 OFFCURVE",
"703 388 CURVE",
"834 388 LINE",
"834 408 LINE",
"673 560 LINE",
"651 560 LINE",
"541 457 LINE",
"433 560 LINE",
"412 560 LINE",
"248 408 LINE",
"248 388 LINE",
"393 388 LINE",
"395 365 OFFCURVE",
"395 345 OFFCURVE",
"395 332 CURVE SMOOTH",
"395 287 OFFCURVE",
"304 177 OFFCURVE",
"280 177 CURVE SMOOTH",
"221 177 OFFCURVE",
"142 281 OFFCURVE",
"142 472 CURVE SMOOTH",
"142 510 OFFCURVE",
"144 518 OFFCURVE",
"144 524 CURVE",
"112 526 OFFCURVE",
"86 539 OFFCURVE",
"62 554 CURVE",
"60 543 OFFCURVE",
"60 531 OFFCURVE",
"60 499 CURVE SMOOTH",
"60 363 OFFCURVE",
"122 107 OFFCURVE",
"266 107 CURVE SMOOTH",
"289 107 OFFCURVE",
"314 119 OFFCURVE",
"338 139 CURVE",
"381 61 OFFCURVE",
"436 -10 OFFCURVE",
"507 -10 CURVE SMOOTH"
);
},
{
closed = 1;
nodes = (
"487 60 OFFCURVE",
"435 117 OFFCURVE",
"395 197 CURVE",
"441 255 OFFCURVE",
"477 323 OFFCURVE",
"477 347 CURVE SMOOTH",
"477 358 OFFCURVE",
"477 372 OFFCURVE",
"476 388 CURVE",
"620 388 LINE",
"632 336 OFFCURVE",
"636 251 OFFCURVE",
"636 215 CURVE SMOOTH",
"636 170 OFFCURVE",
"545 60 OFFCURVE",
"521 60 CURVE SMOOTH"
);
}
);
width = 854;
}
);
unicode = 11C6A;
category = Letter;
},
{
glyphname = NumberNinety;
lastChange = "2017-07-03 19:48:37 +0000";
layers = (
{
layerId = UUID0;
paths = (
{
closed = 1;
nodes = (
"233 -10 OFFCURVE",
"298 47 OFFCURVE",
"298 100 CURVE SMOOTH",
"298 127 OFFCURVE",
"279 176 OFFCURVE",
"204 189 CURVE",
"203 161 OFFCURVE",
"198 144 OFFCURVE",
"192 129 CURVE",
"212 121 OFFCURVE",
"234 111 OFFCURVE",
"234 92 CURVE SMOOTH",
"234 78 OFFCURVE",
"208 55 OFFCURVE",
"190 55 CURVE SMOOTH",
"161 55 OFFCURVE",
"118 81 OFFCURVE",
"118 134 CURVE SMOOTH",
"118 171 OFFCURVE",
"132 223 OFFCURVE",
"195 249 CURVE",
"211 238 OFFCURVE",
"229 232 OFFCURVE",
"249 232 CURVE SMOOTH",
"270 232 OFFCURVE",
"295 249 OFFCURVE",
"317 272 CURVE",
"348 211 OFFCURVE",
"388 154 OFFCURVE",
"442 154 CURVE SMOOTH",
"464 154 OFFCURVE",
"490 172 OFFCURVE",
"514 197 CURVE",
"558 172 OFFCURVE",
"577 154 OFFCURVE",
"577 109 CURVE SMOOTH",
"577 78 OFFCURVE",
"547 55 OFFCURVE",
"534 55 CURVE SMOOTH",
"500 55 OFFCURVE",
"478 73 OFFCURVE",
"455 100 CURVE",
"442 81 OFFCURVE",
"425 66 OFFCURVE",
"406 58 CURVE",
"429 19 OFFCURVE",
"475 -10 OFFCURVE",
"530 -10 CURVE SMOOTH",
"567 -10 OFFCURVE",
"655 40 OFFCURVE",
"655 122 CURVE SMOOTH",
"655 170 OFFCURVE",
"627 213 OFFCURVE",
"555 250 CURVE",
"576 282 OFFCURVE",
"590 312 OFFCURVE",
"590 325 CURVE SMOOTH",
"590 349 OFFCURVE",
"587 396 OFFCURVE",
"580 430 CURVE",
"684 430 LINE",
"684 447 LINE",
"560 560 LINE",
"542 560 LINE",
"455 482 LINE",
"370 560 LINE",
"352 560 LINE",
"225 447 LINE",
"225 430 LINE",
"328 430 LINE",
"329 414 OFFCURVE",
"329 400 OFFCURVE",
"329 392 CURVE SMOOTH",
"329 359 OFFCURVE",
"286 298 OFFCURVE",
"259 298 CURVE SMOOTH",
"222 298 OFFCURVE",
"163 365 OFFCURVE",
"163 486 CURVE SMOOTH",
"163 504 OFFCURVE",
"166 526 OFFCURVE",
"166 531 CURVE",
"143 535 OFFCURVE",
"119 540 OFFCURVE",
"96 552 CURVE",
"95 544 OFFCURVE",
"95 526 OFFCURVE",
"95 504 CURVE SMOOTH",
"95 432 OFFCURVE",
"114 348 OFFCURVE",
"151 293 CURVE",
"71 251 OFFCURVE",
"40 180 OFFCURVE",
"40 143 CURVE SMOOTH",
"40 30 OFFCURVE",
"141 -10 OFFCURVE",
"178 -10 CURVE SMOOTH"
);
},
{
closed = 1;
nodes = (
"427 221 OFFCURVE",
"389 266 OFFCURVE",
"363 328 CURVE",
"383 359 OFFCURVE",
"397 389 OFFCURVE",
"397 402 CURVE SMOOTH",
"397 430 LINE",
"511 430 LINE",
"520 398 OFFCURVE",
"522 337 OFFCURVE",
"522 314 CURVE SMOOTH",
"522 287 OFFCURVE",
"466 221 OFFCURVE",
"452 221 CURVE SMOOTH"
);
}
);
width = 724;
}
);
unicode = 11C6B;
category = Letter;
},
{
glyphname = OneHundredUnit;
lastChange = "2017-07-03 19:48:37 +0000";
layers = (
{
layerId = UUID0;
paths = (
{
closed = 1;
nodes = (
"517 23 OFFCURVE",
"567 80 OFFCURVE",
"567 101 CURVE SMOOTH",
"567 126 OFFCURVE",
"547 149 OFFCURVE",
"518 175 CURVE",
"549 231 OFFCURVE",
"564 286 OFFCURVE",
"564 310 CURVE SMOOTH",
"564 346 OFFCURVE",
"562 369 OFFCURVE",
"559 388 CURVE",
"699 388 LINE",
"699 408 LINE",
"538 560 LINE",
"516 560 LINE",
"353 408 LINE",
"353 388 LINE",
"477 388 LINE",
"479 366 OFFCURVE",
"482 348 OFFCURVE",
"482 312 CURVE SMOOTH",
"482 284 OFFCURVE",
"476 251 OFFCURVE",
"466 219 CURVE",
"431 250 OFFCURVE",
"391 287 OFFCURVE",
"359 337 CURVE",
"329 417 OFFCURVE",
"259 530 OFFCURVE",
"217 560 CURVE",
"203 560 LINE",
"176 550 OFFCURVE",
"78 496 OFFCURVE",
"40 436 CURVE",
"59 436 OFFCURVE",
"115 414 OFFCURVE",
"119 400 CURVE",
"127 433 OFFCURVE",
"148 469 OFFCURVE",
"198 489 CURVE",
"210 481 OFFCURVE",
"244 431 OFFCURVE",
"265 391 CURVE",
"180 390 OFFCURVE",
"71 298 OFFCURVE",
"40 272 CURVE",
"49 253 LINE",
"69 261 OFFCURVE",
"82 264 OFFCURVE",
"94 264 CURVE SMOOTH",
"122 264 OFFCURVE",
"188 161 OFFCURVE",
"260 161 CURVE SMOOTH",
"266 161 LINE",
"251 142 OFFCURVE",
"241 124 OFFCURVE",
"241 111 CURVE SMOOTH",
"241 75 OFFCURVE",
"317 24 OFFCURVE",
"339 24 CURVE",
"399 36 OFFCURVE",
"446 75 OFFCURVE",
"482 120 CURVE",
"490 112 OFFCURVE",
"495 105 OFFCURVE",
"495 98 CURVE SMOOTH",
"495 72 OFFCURVE",
"454 36 OFFCURVE",
"419 10 CURVE",
"443 -19 LINE"
);
},
{
closed = 1;
nodes = (
"245 221 OFFCURVE",
"206 250 OFFCURVE",
"156 296 CURVE",
"186 317 OFFCURVE",
"232 331 OFFCURVE",
"258 331 CURVE SMOOTH",
"270 331 OFFCURVE",
"281 329 OFFCURVE",
"291 327 CURVE",
"298 308 OFFCURVE",
"307 283 OFFCURVE",
"307 271 CURVE SMOOTH",
"307 258 OFFCURVE",
"280 221 OFFCURVE",
"265 221 CURVE SMOOTH"
);
},
{
closed = 1;
nodes = (
"329 89 OFFCURVE",
"314 107 OFFCURVE",
"314 124 CURVE SMOOTH",
"314 141 OFFCURVE",
"333 186 OFFCURVE",
"374 213 CURVE",
"398 190 OFFCURVE",
"420 171 OFFCURVE",
"440 156 CURVE",
"418 117 OFFCURVE",
"388 87 OFFCURVE",
"352 80 CURVE"
);
}
);
width = 719;
}
);
unicode = 11C6C;
script = bhks;
category = Letter;
},
{
glyphname = NineHundred;
lastChange = "2017-07-03 19:48:37 +0000";
layers = (
{
components = (
{
name = OneHundredUnit;
}
);
layerId = UUID0;
paths = (
{
closed = 1;
nodes = (
"643 30 OFFCURVE",
"686 60 OFFCURVE",
"751 60 CURVE SMOOTH",
"812 60 OFFCURVE",
"890 -30 OFFCURVE",
"990 -30 CURVE SMOOTH",
"1155 -30 OFFCURVE",
"1285 144 OFFCURVE",
"1285 273 CURVE SMOOTH",
"1285 419 OFFCURVE",
"1194 560 OFFCURVE",
"1034 560 CURVE SMOOTH",
"896 560 OFFCURVE",
"772 434 OFFCURVE",
"772 352 CURVE SMOOTH",
"772 247 OFFCURVE",
"900 109 OFFCURVE",
"1022 109 CURVE SMOOTH",
"1077 109 OFFCURVE",
"1141 152 OFFCURVE",
"1141 245 CURVE SMOOTH",
"1141 261 OFFCURVE",
"1133 295 OFFCURVE",
"1124 318 CURVE",
"1129 328 OFFCURVE",
"1131 337 OFFCURVE",
"1131 347 CURVE SMOOTH",
"1131 374 OFFCURVE",
"1100 433 OFFCURVE",
"1062 459 CURVE",
"1045 459 LINE",
"1018 448 OFFCURVE",
"905 398 OFFCURVE",
"905 355 CURVE SMOOTH",
"905 341 OFFCURVE",
"916 319 OFFCURVE",
"933 300 CURVE",
"951 319 OFFCURVE",
"972 332 OFFCURVE",
"995 342 CURVE",
"987 349 OFFCURVE",
"975 366 OFFCURVE",
"975 371 CURVE SMOOTH",
"975 383 OFFCURVE",
"1008 399 OFFCURVE",
"1030 406 CURVE",
"1046 399 OFFCURVE",
"1063 361 OFFCURVE",
"1063 349 CURVE SMOOTH",
"1063 329 OFFCURVE",
"1034 306 OFFCURVE",
"988 285 CURVE",
"997 273 OFFCURVE",
"1005 256 OFFCURVE",
"1010 238 CURVE",
"1032 249 OFFCURVE",
"1051 258 OFFCURVE",
"1066 267 CURVE",
"1071 252 OFFCURVE",
"1073 237 OFFCURVE",
"1073 228 CURVE SMOOTH",
"1073 194 OFFCURVE",
"1063 174 OFFCURVE",
"1018 174 CURVE SMOOTH",
"948 174 OFFCURVE",
"850 273 OFFCURVE",
"850 353 CURVE SMOOTH",
"850 432 OFFCURVE",
"949 495 OFFCURVE",
"1028 495 CURVE SMOOTH",
"1129 495 OFFCURVE",
"1207 398 OFFCURVE",
"1207 264 CURVE SMOOTH",
"1207 159 OFFCURVE",
"1107 42 OFFCURVE",
"1003 42 CURVE SMOOTH",
"910 42 OFFCURVE",
"852 132 OFFCURVE",
"761 132 CURVE SMOOTH",
"699 132 OFFCURVE",
"616 53 OFFCURVE",
"553 -14 CURVE",
"570 -33 LINE"
);
}
);
width = 1325;
}
);
category = Letter;
},
{
glyphname = NumberTenSolo;
lastChange = "2017-07-03 19:48:37 +0000";
layers = (
{
components = (
{
name = DblDanda;
transform = "{1, 0, 0, 1, 902, 0}";
},
{
name = NumberTen;
transform = "{1, 0, 0, 1, 110, -50}";
}
);
layerId = UUID0;
paths = (
{
closed = 1;
nodes = (
"282 94 OFFCURVE",
"313 108 OFFCURVE",
"341 109 CURVE",
"343 151 OFFCURVE",
"347 237 OFFCURVE",
"347 276 CURVE SMOOTH",
"347 390 OFFCURVE",
"336 441 OFFCURVE",
"311 560 CURVE",
"283 548 OFFCURVE",
"259 542 OFFCURVE",
"228 538 CURVE",
"250 471 OFFCURVE",
"265 377 OFFCURVE",
"265 276 CURVE SMOOTH",
"265 229 OFFCURVE",
"261 141 OFFCURVE",
"258 90 CURVE"
);
},
{
closed = 1;
nodes = (
"119 94 OFFCURVE",
"150 108 OFFCURVE",
"178 109 CURVE",
"180 151 OFFCURVE",
"184 237 OFFCURVE",
"184 276 CURVE SMOOTH",
"184 390 OFFCURVE",
"173 441 OFFCURVE",
"148 560 CURVE",
"120 548 OFFCURVE",
"96 542 OFFCURVE",
"65 538 CURVE",
"87 471 OFFCURVE",
"102 377 OFFCURVE",
"102 276 CURVE SMOOTH",
"102 229 OFFCURVE",
"98 141 OFFCURVE",
"95 90 CURVE"
);
}
);
width = 1306;
}
);
},
{
glyphname = NumberTen.alt.mark;
lastChange = "2017-07-03 19:48:37 +0000";
layers = (
{
layerId = UUID0;
paths = (
{
closed = 1;
nodes = (
"-228 41 OFFCURVE",
"-109 179 OFFCURVE",
"-109 319 CURVE SMOOTH",
"-109 465 OFFCURVE",
"-192 560 OFFCURVE",
"-303 560 CURVE SMOOTH",
"-400 560 OFFCURVE",
"-528 463 OFFCURVE",
"-528 409 CURVE SMOOTH",
"-528 395 OFFCURVE",
"-523 379 OFFCURVE",
"-513 365 CURVE",
"-543 347 OFFCURVE",
"-568 314 OFFCURVE",
"-568 283 CURVE SMOOTH",
"-568 234 OFFCURVE",
"-502 169 OFFCURVE",
"-447 169 CURVE SMOOTH",
"-406 169 OFFCURVE",
"-355 230 OFFCURVE",
"-355 270 CURVE SMOOTH",
"-355 271 OFFCURVE",
"-355 273 OFFCURVE",
"-356 275 CURVE",
"-319 283 OFFCURVE",
"-289 312 OFFCURVE",
"-289 349 CURVE SMOOTH",
"-289 371 OFFCURVE",
"-294 399 OFFCURVE",
"-322 422 CURVE",
"-367 401 LINE",
"-359 391 OFFCURVE",
"-353 375 OFFCURVE",
"-353 362 CURVE SMOOTH",
"-353 349 OFFCURVE",
"-359 338 OFFCURVE",
"-378 338 CURVE SMOOTH",
"-402 338 OFFCURVE",
"-450 376 OFFCURVE",
"-450 411 CURVE SMOOTH",
"-450 446 OFFCURVE",
"-374 495 OFFCURVE",
"-323 495 CURVE SMOOTH",
"-243 495 OFFCURVE",
"-187 444 OFFCURVE",
"-187 310 CURVE SMOOTH",
"-187 164 OFFCURVE",
"-289 71 OFFCURVE",
"-356 28 CURVE",
"-361 -10 LINE"
);
},
{
closed = 1;
nodes = (
"-478 230 OFFCURVE",
"-508 258 OFFCURVE",
"-508 280 CURVE SMOOTH",
"-508 300 OFFCURVE",
"-493 311 OFFCURVE",
"-471 311 CURVE SMOOTH",
"-455 311 OFFCURVE",
"-414 279 OFFCURVE",
"-414 264 CURVE SMOOTH",
"-414 247 OFFCURVE",
"-430 230 OFFCURVE",
"-450 230 CURVE SMOOTH"
);
}
);
width = 0;
}
);
category = Mark;
},
{
export = 0;
glyphname = "ii-vwl-part";
lastChange = "2017-07-03 19:48:37 +0000";
layers = (
{
layerId = UUID0;
paths = (
{
closed = 1;
nodes = (
"0 388 LINE",
"0 420 LINE",
"-63 522 OFFCURVE",
"-151 612 OFFCURVE",
"-259 710 CURVE",
"-281 710 LINE",
"-500 542 LINE",
"-482 521 LINE",
"-290 650 LINE",
"-198 567 OFFCURVE",
"-129 496 OFFCURVE",
"-83 428 CURVE",
"-122 428 LINE",
"-122 388 LINE"
);
}
);
width = 0;
}
);
},
{
glyphname = VocR.wide;
lastChange = "2017-07-03 19:48:37 +0000";
layers = (
{
layerId = UUID0;
paths = (
{
closed = 1;
nodes = (
"-119 -220 OFFCURVE",
"-30 -103 OFFCURVE",
"-30 -54 CURVE SMOOTH",
"-30 -32 OFFCURVE",
"-33 0 OFFCURVE",
"-37 21 CURVE",
"-116 7 LINE",
"-111 -15 OFFCURVE",
"-108 -46 OFFCURVE",
"-108 -57 CURVE SMOOTH",
"-108 -109 OFFCURVE",
"-164 -155 OFFCURVE",
"-245 -155 CURVE SMOOTH",
"-358 -155 OFFCURVE",
"-439 -47 OFFCURVE",
"-439 61 CURVE SMOOTH",
"-439 93 OFFCURVE",
"-437 118 OFFCURVE",
"-421 154 CURVE",
"-451 164 OFFCURVE",
"-477 178 OFFCURVE",
"-499 196 CURVE",
"-511 160 OFFCURVE",
"-517 117 OFFCURVE",
"-517 80 CURVE SMOOTH",
"-517 -58 OFFCURVE",
"-427 -220 OFFCURVE",
"-246 -220 CURVE SMOOTH"
);
}
);
width = 0;
}
);
},
{
glyphname = VocRR.wide;
lastChange = "2017-07-03 19:48:37 +0000";
layers = (
{
layerId = UUID0;
paths = (
{
closed = 1;
nodes = (
"-226 -270 OFFCURVE",
"-148 -193 OFFCURVE",
"-122 -138 CURVE",
"-69 -103 OFFCURVE",
"-30 -49 OFFCURVE",
"-30 -24 CURVE SMOOTH",
"-30 -12 OFFCURVE",
"-31 -2 OFFCURVE",
"-33 11 CURVE",
"-110 -3 LINE",
"-108 -8 OFFCURVE",
"-107 -13 OFFCURVE",
"-107 -19 CURVE SMOOTH",
"-107 -65 OFFCURVE",
"-161 -104 OFFCURVE",
"-209 -104 CURVE SMOOTH",
"-314 -104 OFFCURVE",
"-394 -45 OFFCURVE",
"-394 49 CURVE SMOOTH",
"-394 72 OFFCURVE",
"-388 92 OFFCURVE",
"-376 116 CURVE",
"-402 123 OFFCURVE",
"-425 135 OFFCURVE",
"-448 151 CURVE",
"-461 114 OFFCURVE",
"-466 91 OFFCURVE",
"-466 59 CURVE SMOOTH",
"-466 -70 OFFCURVE",
"-377 -166 OFFCURVE",
"-221 -169 CURVE",
"-245 -190 OFFCURVE",
"-283 -205 OFFCURVE",
"-328 -205 CURVE SMOOTH",
"-441 -205 OFFCURVE",
"-542 -97 OFFCURVE",
"-542 61 CURVE SMOOTH",
"-542 93 OFFCURVE",
"-540 118 OFFCURVE",
"-524 154 CURVE",
"-554 164 OFFCURVE",
"-580 178 OFFCURVE",
"-602 196 CURVE",
"-614 160 OFFCURVE",
"-620 117 OFFCURVE",
"-620 80 CURVE SMOOTH",
"-620 -108 OFFCURVE",
"-510 -270 OFFCURVE",
"-329 -270 CURVE SMOOTH"
);
}
);
width = 0;
}
);
},
{
export = 0;
glyphname = vwl_pt1;
lastChange = "2017-07-03 19:48:37 +0000";
layers = (
{
layerId = UUID0;
paths = (
{
closed = 1;
nodes = (
"-267 357 OFFCURVE",
"-239 376 OFFCURVE",
"-211 389 CURVE",
"-225 399 OFFCURVE",
"-235 410 OFFCURVE",
"-235 423 CURVE SMOOTH",
"-235 436 OFFCURVE",
"-199 476 OFFCURVE",
"-155 496 CURVE",
"-144 487 OFFCURVE",
"-106 438 OFFCURVE",
"-71 388 CURVE",
"10 388 LINE",
"10 405 LINE",
"-34 469 OFFCURVE",
"-80 522 OFFCURVE",
"-121 560 CURVE",
"-139 560 LINE",
"-267 497 OFFCURVE",
"-339 433 OFFCURVE",
"-339 402 CURVE SMOOTH",
"-339 382 OFFCURVE",
"-319 350 OFFCURVE",
"-292 325 CURVE"
);
}
);
width = 0;
}
);
},
{
export = 0;
glyphname = vwl_pt2;
lastChange = "2017-07-03 19:48:37 +0000";
layers = (
{
layerId = UUID0;
paths = (
{
closed = 1;
nodes = (
"332 486 LINE",
"315 534 OFFCURVE",
"252 639 OFFCURVE",
"204 688 CURVE",
"185 688 LINE",
"0 558 LINE",
"25 530 LINE",
"173 628 LINE",
"202 591 OFFCURVE",
"223 556 OFFCURVE",
"247 486 CURVE"
);
}
);
width = 0;
}
);
},
{
export = 0;
glyphname = vwl_pt3;
lastChange = "2017-07-03 19:48:37 +0000";
layers = (
{
layerId = UUID0;
paths = (
{
closed = 1;
nodes = (
"110 277 OFFCURVE",
"126 309 OFFCURVE",
"126 328 CURVE SMOOTH",
"126 367 OFFCURVE",
"111 392 OFFCURVE",
"36 454 CURVE",
"-1 419 LINE",
"26 399 OFFCURVE",
"39 370 OFFCURVE",
"39 347 CURVE SMOOTH",
"39 329 OFFCURVE",
"32 299 OFFCURVE",
"16 283 CURVE",
"86 251 LINE"
);
}
);
width = 0;
}
);
},
{
glyphname = Pa.blw;
lastChange = "2017-07-03 19:48:37 +0000";
layers = (
{
layerId = UUID0;
paths = (
{
closed = 1;
nodes = (
"114 -232 OFFCURVE",
"141 -220 OFFCURVE",
"166 -212 CURVE",
"155 -160 OFFCURVE",
"109 -72 OFFCURVE",
"74 -54 CURVE",
"45 -61 OFFCURVE",
"20 -75 OFFCURVE",
"-6 -93 CURVE",
"4 -99 OFFCURVE",
"20 -121 OFFCURVE",
"36 -146 CURVE",
"13 -158 OFFCURVE",
"-14 -170 OFFCURVE",
"-36 -170 CURVE SMOOTH",
"-97 -170 OFFCURVE",
"-138 -145 OFFCURVE",
"-152 -56 CURVE",
"-120 -33 OFFCURVE",
"-88 -8 OFFCURVE",
"-64 12 CURVE",
"-96 55 LINE",
"-119 33 OFFCURVE",
"-252 -60 OFFCURVE",
"-292 -80 CURVE",
"-265 -126 LINE",
"-255 -122 OFFCURVE",
"-243 -116 OFFCURVE",
"-228 -107 CURVE",
"-204 -194 OFFCURVE",
"-140 -240 OFFCURVE",
"-45 -240 CURVE SMOOTH",
"-23 -240 OFFCURVE",
"29 -214 OFFCURVE",
"62 -193 CURVE",
"74 -218 OFFCURVE",
"84 -240 OFFCURVE",
"87 -251 CURVE"
);
}
);
width = 0;
}
);
},
{
glyphname = Ya.blw;
lastChange = "2017-07-03 19:48:37 +0000";
layers = (
{
layerId = UUID0;
paths = (
{
closed = 1;
nodes = (
"-169 -239 OFFCURVE",
"-87 -172 OFFCURVE",
"-47 -123 CURVE",
"-78 -101 LINE",
"-124 -151 OFFCURVE",
"-194 -174 OFFCURVE",
"-282 -174 CURVE SMOOTH",
"-358 -174 OFFCURVE",
"-431 -155 OFFCURVE",
"-431 -105 CURVE SMOOTH",
"-431 -84 OFFCURVE",
"-419 -76 OFFCURVE",
"-405 -76 CURVE SMOOTH",
"-386 -76 OFFCURVE",
"-359 -87 OFFCURVE",
"-330 -87 CURVE SMOOTH",
"-286 -87 OFFCURVE",
"-227 -71 OFFCURVE",
"-227 -5 CURVE SMOOTH",
"-227 4 OFFCURVE",
"-228 14 OFFCURVE",
"-230 24 CURVE",
"-305 31 LINE",
"-303 22 OFFCURVE",
"-302 14 OFFCURVE",
"-302 8 CURVE SMOOTH",
"-302 -17 OFFCURVE",
"-318 -27 OFFCURVE",
"-339 -27 CURVE SMOOTH",
"-362 -27 OFFCURVE",
"-392 -19 OFFCURVE",
"-413 -19 CURVE SMOOTH",
"-442 -19 OFFCURVE",
"-506 -36 OFFCURVE",
"-506 -107 CURVE SMOOTH",
"-506 -180 OFFCURVE",
"-437 -239 OFFCURVE",
"-286 -239 CURVE SMOOTH"
);
}
);
width = 0;
}
);
},
{
glyphname = Repha;
lastChange = "2017-07-03 19:48:37 +0000";
layers = (
{
layerId = UUID0;
paths = (
{
closed = 1;
nodes = (
"44 508 OFFCURVE",
"47 531 OFFCURVE",
"47 544 CURVE SMOOTH",
"47 556 OFFCURVE",
"44 568 OFFCURVE",
"39 580 CURVE",
"173 580 LINE",
"173 600 LINE",
"12 742 LINE",
"-10 742 LINE",
"-173 600 LINE",
"-173 580 LINE",
"-38 580 LINE",
"-33 569 OFFCURVE",
"-31 558 OFFCURVE",
"-31 548 CURVE SMOOTH",
"-31 536 OFFCURVE",
"-36 516 OFFCURVE",
"-43 499 CURVE",
"38 490 LINE"
);
}
);
width = 0;
}
);
},
{
glyphname = Pe;
lastChange = "2017-07-03 19:48:37 +0000";
layers = (
{
layerId = UUID0;
paths = (
{
closed = 1;
nodes = (
"619 -10 OFFCURVE",
"717 127 OFFCURVE",
"717 176 CURVE SMOOTH",
"717 253 OFFCURVE",
"686 340 OFFCURVE",
"653 388 CURVE",
"778 388 LINE",
"778 408 LINE",
"617 560 LINE",
"595 560 LINE",
"432 408 LINE",
"432 388 LINE",
"564 388 LINE",
"609 337 OFFCURVE",
"635 228 OFFCURVE",
"635 164 CURVE SMOOTH",
"635 121 OFFCURVE",
"590 60 OFFCURVE",
"523 60 CURVE SMOOTH",
"426 60 OFFCURVE",
"361 122 OFFCURVE",
"327 203 CURVE",
"359 238 OFFCURVE",
"378 286 OFFCURVE",
"378 340 CURVE SMOOTH",
"378 419 OFFCURVE",
"326 488 OFFCURVE",
"258 560 CURVE",
"240 560 LINE",
"112 497 OFFCURVE",
"40 433 OFFCURVE",
"40 402 CURVE SMOOTH",
"40 381 OFFCURVE",
"61 347 OFFCURVE",
"89 322 CURVE",
"108 349 OFFCURVE",
"133 373 OFFCURVE",
"168 389 CURVE",
"154 399 OFFCURVE",
"144 410 OFFCURVE",
"144 423 CURVE SMOOTH",
"144 436 OFFCURVE",
"180 476 OFFCURVE",
"224 496 CURVE",
"282 451 OFFCURVE",
"294 363 OFFCURVE",
"294 326 CURVE SMOOTH",
"294 233 OFFCURVE",
"241 202 OFFCURVE",
"197 187 CURVE",
"212 141 LINE",
"225 144 OFFCURVE",
"238 148 OFFCURVE",
"250 152 CURVE",
"298 62 OFFCURVE",
"387 -10 OFFCURVE",
"515 -10 CURVE SMOOTH"
);
}
);
width = 798;
}
);
},
{
glyphname = Pau;
lastChange = "2017-07-03 19:48:37 +0000";
layers = (
{
layerId = UUID0;
paths = (
{
closed = 1;
nodes = (
"619 -10 OFFCURVE",
"717 127 OFFCURVE",
"717 176 CURVE SMOOTH",
"717 253 OFFCURVE",
"686 340 OFFCURVE",
"653 388 CURVE",
"564 388 LINE",
"609 337 OFFCURVE",
"635 228 OFFCURVE",
"635 164 CURVE SMOOTH",
"635 121 OFFCURVE",
"590 60 OFFCURVE",
"523 60 CURVE SMOOTH",
"426 60 OFFCURVE",
"361 122 OFFCURVE",
"327 203 CURVE",
"359 238 OFFCURVE",
"378 286 OFFCURVE",
"378 340 CURVE SMOOTH",
"378 419 OFFCURVE",
"326 488 OFFCURVE",
"258 560 CURVE",
"240 560 LINE",
"112 497 OFFCURVE",
"40 433 OFFCURVE",
"40 402 CURVE SMOOTH",
"40 381 OFFCURVE",
"61 348 OFFCURVE",
"89 323 CURVE",
"113 354 OFFCURVE",
"141 374 OFFCURVE",
"168 389 CURVE",
"153 399 OFFCURVE",
"144 410 OFFCURVE",
"144 423 CURVE SMOOTH",
"144 436 OFFCURVE",
"180 476 OFFCURVE",
"224 496 CURVE",
"282 451 OFFCURVE",
"294 363 OFFCURVE",
"294 326 CURVE SMOOTH",
"294 233 OFFCURVE",
"241 202 OFFCURVE",
"197 187 CURVE",
"212 141 LINE",
"225 144 OFFCURVE",
"238 148 OFFCURVE",
"250 152 CURVE",
"298 62 OFFCURVE",
"387 -10 OFFCURVE",
"515 -10 CURVE SMOOTH"
);
},
{
closed = 1;
nodes = (
"756 354 LINE",
"756 374 LINE",
"619 506 LINE",
"597 506 LINE",
"450 374 LINE",
"450 354 LINE"
);
},
{
closed = 1;
nodes = (
"900 277 OFFCURVE",
"916 309 OFFCURVE",
"916 328 CURVE SMOOTH",
"916 399 OFFCURVE",
"769 535 OFFCURVE",
"591 720 CURVE",
"569 720 LINE",
"377 572 LINE",
"395 551 LINE",
"560 660 LINE",
"726 492 OFFCURVE",
"829 379 OFFCURVE",
"829 347 CURVE SMOOTH",
"829 329 OFFCURVE",
"822 299 OFFCURVE",
"806 283 CURVE",
"876 251 LINE"
);
},
{
closed = 1;
nodes = (
"788 367 OFFCURVE",
"799 372 OFFCURVE",
"831 389 CURVE",
"789 447 LINE",
"766 428 OFFCURVE",
"741 413 OFFCURVE",
"714 400 CURVE",
"756 354 LINE"
);
}
);
width = 936;
}
);
},
{
glyphname = Pi_bhks;
lastChange = "2017-07-03 19:48:37 +0000";
layers = (
{
layerId = UUID0;
paths = (
{
closed = 1;
nodes = (
"479 -2 OFFCURVE",
"506 10 OFFCURVE",
"531 18 CURVE",
"520 70 OFFCURVE",
"474 158 OFFCURVE",
"439 176 CURVE",
"410 169 OFFCURVE",
"385 155 OFFCURVE",
"359 137 CURVE",
"369 130 OFFCURVE",
"385 109 OFFCURVE",
"401 83 CURVE",
"378 72 OFFCURVE",
"350 60 OFFCURVE",
"329 60 CURVE SMOOTH",
"262 60 OFFCURVE",
"204 90 OFFCURVE",
"196 202 CURVE",
"267 241 OFFCURVE",
"331 295 OFFCURVE",
"331 345 CURVE SMOOTH",
"331 357 OFFCURVE",
"327 372 OFFCURVE",
"319 388 CURVE",
"466 388 LINE",
"466 410 LINE",
"265 577 LINE",
"245 577 LINE",
"55 410 LINE",
"55 388 LINE",
"219 388 LINE",
"240 377 OFFCURVE",
"249 361 OFFCURVE",
"249 345 CURVE SMOOTH",
"249 280 OFFCURVE",
"105 209 OFFCURVE",
"57 188 CURVE",
"65 150 LINE",
"80 153 OFFCURVE",
"97 158 OFFCURVE",
"115 165 CURVE",
"129 50 OFFCURVE",
"210 -10 OFFCURVE",
"320 -10 CURVE SMOOTH",
"342 -10 OFFCURVE",
"394 16 OFFCURVE",
"427 36 CURVE",
"439 12 OFFCURVE",
"449 -10 OFFCURVE",
"452 -21 CURVE"
);
},
{
closed = 1;
nodes = (
"179 448 LINE",
"252 510 LINE",
"260 510 LINE",
"332 448 LINE",
"332 441 LINE",
"179 441 LINE"
);
}
);
width = 551;
}
);
},
{
glyphname = Ye;
lastChange = "2017-07-03 19:48:37 +0000";
layers = (
{
layerId = UUID0;
paths = (
{
closed = 1;
nodes = (
"656 -10 OFFCURVE",
"734 127 OFFCURVE",
"734 176 CURVE SMOOTH",
"734 235 OFFCURVE",
"721 325 OFFCURVE",
"696 388 CURVE",
"816 388 LINE",
"816 408 LINE",
"655 560 LINE",
"633 560 LINE",
"470 408 LINE",
"470 388 LINE",
"610 388 LINE",
"641 325 OFFCURVE",
"652 219 OFFCURVE",
"652 164 CURVE SMOOTH",
"652 121 OFFCURVE",
"627 60 OFFCURVE",
"560 60 CURVE SMOOTH",
"494 60 OFFCURVE",
"446 135 OFFCURVE",
"419 234 CURVE",
"419 238 LINE SMOOTH",
"419 303 OFFCURVE",
"336 520 OFFCURVE",
"296 560 CURVE",
"278 560 LINE",
"150 497 OFFCURVE",
"40 424 OFFCURVE",
"40 393 CURVE SMOOTH",
"40 372 OFFCURVE",
"60 339 OFFCURVE",
"90 313 CURVE",
"106 341 OFFCURVE",
"130 365 OFFCURVE",
"165 382 CURVE",
"152 392 OFFCURVE",
"144 402 OFFCURVE",
"144 414 CURVE SMOOTH",
"144 427 OFFCURVE",
"204 463 OFFCURVE",
"248 483 CURVE",
"283 430 OFFCURVE",
"343 256 OFFCURVE",
"343 214 CURVE SMOOTH",
"343 203 OFFCURVE",
"309 151 OFFCURVE",
"259 151 CURVE SMOOTH",
"228 151 OFFCURVE",
"183 170 OFFCURVE",
"157 228 CURVE",
"91 181 LINE",
"125 108 OFFCURVE",
"203 81 OFFCURVE",
"249 81 CURVE SMOOTH",
"282 81 OFFCURVE",
"327 112 OFFCURVE",
"363 149 CURVE",
"406 48 OFFCURVE",
"472 -10 OFFCURVE",
"552 -10 CURVE SMOOTH"
);
}
);
width = 836;
}
);
},
{
glyphname = Yau;
lastChange = "2017-07-03 19:48:37 +0000";
layers = (
{
layerId = UUID0;
paths = (
{
closed = 1;
nodes = (
"656 -10 OFFCURVE",
"734 127 OFFCURVE",
"734 176 CURVE SMOOTH",
"734 219 OFFCURVE",
"727 279 OFFCURVE",
"714 332 CURVE",
"744 340 OFFCURVE",
"781 348 OFFCURVE",
"825 355 CURVE",
"825 352 OFFCURVE",
"826 349 OFFCURVE",
"826 347 CURVE SMOOTH",
"826 329 OFFCURVE",
"819 299 OFFCURVE",
"803 283 CURVE",
"873 251 LINE",
"897 277 OFFCURVE",
"913 309 OFFCURVE",
"913 328 CURVE SMOOTH",
"913 399 OFFCURVE",
"809 535 OFFCURVE",
"631 720 CURVE",
"609 720 LINE",
"417 572 LINE",
"435 551 LINE",
"600 660 LINE",
"710 548 OFFCURVE",
"774 461 OFFCURVE",
"804 406 CURVE",
"756 402 LINE",
"649 506 LINE",
"627 506 LINE",
"480 374 LINE",
"480 354 LINE",
"624 354 LINE",
"645 291 OFFCURVE",
"652 210 OFFCURVE",
"652 164 CURVE SMOOTH",
"652 121 OFFCURVE",
"627 60 OFFCURVE",
"560 60 CURVE SMOOTH",
"494 60 OFFCURVE",
"446 135 OFFCURVE",
"419 234 CURVE",
"419 238 LINE SMOOTH",
"419 303 OFFCURVE",
"336 520 OFFCURVE",
"296 560 CURVE",
"278 560 LINE",
"150 497 OFFCURVE",
"40 424 OFFCURVE",
"40 393 CURVE SMOOTH",
"40 367 OFFCURVE",
"73 321 OFFCURVE",
"112 296 CURVE",
"137 325 OFFCURVE",
"163 344 OFFCURVE",
"193 365 CURVE",
"165 380 OFFCURVE",
"144 395 OFFCURVE",
"144 414 CURVE SMOOTH",
"144 427 OFFCURVE",
"204 463 OFFCURVE",
"248 483 CURVE",
"283 430 OFFCURVE",
"343 256 OFFCURVE",
"343 214 CURVE SMOOTH",
"343 203 OFFCURVE",
"309 151 OFFCURVE",
"259 151 CURVE SMOOTH",
"228 151 OFFCURVE",
"183 170 OFFCURVE",
"157 228 CURVE",
"91 181 LINE",
"125 108 OFFCURVE",
"203 81 OFFCURVE",
"249 81 CURVE SMOOTH",
"282 81 OFFCURVE",
"327 112 OFFCURVE",
"363 149 CURVE",
"406 48 OFFCURVE",
"472 -10 OFFCURVE",
"552 -10 CURVE SMOOTH"
);
}
);
width = 933;
}
);
},
{
glyphname = Re;
lastChange = "2017-07-03 19:48:37 +0000";
layers = (
{
layerId = UUID0;
paths = (
{
closed = 1;
nodes = (
"510 -10 OFFCURVE",
"585 94 OFFCURVE",
"585 158 CURVE SMOOTH",
"585 208 OFFCURVE",
"569 292 OFFCURVE",
"561 340 CURVE",
"846 340 LINE",
"846 360 LINE",
"685 512 LINE",
"663 512 LINE",
"546 403 LINE",
"525 464 OFFCURVE",
"488 532 OFFCURVE",
"461 560 CURVE",
"443 560 LINE",
"315 497 OFFCURVE",
"205 424 OFFCURVE",
"205 393 CURVE SMOOTH",
"205 372 OFFCURVE",
"226 339 OFFCURVE",
"254 314 CURVE",
"276 348 OFFCURVE",
"302 371 OFFCURVE",
"332 381 CURVE",
"318 391 OFFCURVE",
"309 402 OFFCURVE",
"309 414 CURVE SMOOTH",
"309 427 OFFCURVE",
"369 463 OFFCURVE",
"413 483 CURVE",
"448 430 OFFCURVE",
"486 345 OFFCURVE",
"486 303 CURVE SMOOTH",
"486 278 OFFCURVE",
"437 266 OFFCURVE",
"396 266 CURVE SMOOTH",
"374 266 OFFCURVE",
"355 269 OFFCURVE",
"347 276 CURVE",
"316 214 LINE",
"333 198 OFFCURVE",
"357 191 OFFCURVE",
"383 191 CURVE SMOOTH",
"420 191 OFFCURVE",
"462 205 OFFCURVE",
"496 228 CURVE",
"501 201 OFFCURVE",
"503 160 OFFCURVE",
"503 143 CURVE SMOOTH",
"503 98 OFFCURVE",
"450 60 OFFCURVE",
"395 60 CURVE SMOOTH",
"322 60 OFFCURVE",
"128 145 OFFCURVE",
"128 362 CURVE SMOOTH",
"128 411 OFFCURVE",
"140 453 OFFCURVE",
"187 495 CURVE",
"151 514 OFFCURVE",
"119 535 OFFCURVE",
"94 560 CURVE",
"75 544 OFFCURVE",
"40 473 OFFCURVE",
"40 375 CURVE SMOOTH",
"40 175 OFFCURVE",
"220 -10 OFFCURVE",
"391 -10 CURVE SMOOTH"
);
}
);
width = 866;
}
);
},
{
glyphname = Ta_virama;
lastChange = "2017-07-03 19:48:37 +0000";
layers = (
{
layerId = UUID0;
paths = (
{
closed = 1;
nodes = (
"330 12 OFFCURVE",
"455 75 OFFCURVE",
"455 141 CURVE SMOOTH",
"455 179 OFFCURVE",
"358 330 OFFCURVE",
"301 388 CURVE",
"473 388 LINE",
"473 410 LINE",
"279 560 LINE",
"257 560 LINE",
"52 410 LINE",
"52 388 LINE",
"222 388 LINE",
"158 349 OFFCURVE",
"40 268 OFFCURVE",
"40 234 CURVE SMOOTH",
"40 203 OFFCURVE",
"59 168 OFFCURVE",
"106 130 CURVE",
"130 159 OFFCURVE",
"158 183 OFFCURVE",
"192 202 CURVE",
"157 218 OFFCURVE",
"144 234 OFFCURVE",
"144 256 CURVE SMOOTH",
"144 284 OFFCURVE",
"225 341 OFFCURVE",
"252 341 CURVE SMOOTH",
"272 341 OFFCURVE",
"373 172 OFFCURVE",
"373 156 CURVE SMOOTH",
"373 125 OFFCURVE",
"250 76 OFFCURVE",
"200 68 CURVE",
"212 53 OFFCURVE",
"237 10 OFFCURVE",
"244 -13 CURVE"
);
},
{
closed = 1;
nodes = (
"614 348 OFFCURVE",
"626 390 OFFCURVE",
"626 420 CURVE SMOOTH",
"626 489 OFFCURVE",
"411 639 OFFCURVE",
"303 720 CURVE",
"287 720 LINE",
"78 565 LINE",
"99 544 LINE",
"274 660 LINE",
"372 589 OFFCURVE",
"540 468 OFFCURVE",
"540 422 CURVE SMOOTH",
"540 389 OFFCURVE",
"520 372 OFFCURVE",
"498 360 CURVE",
"527 347 OFFCURVE",
"553 332 OFFCURVE",
"571 314 CURVE"
);
}
);
width = 666;
}
);
},
{
glyphname = Na_virama;
lastChange = "2017-07-03 19:48:37 +0000";
layers = (
{
layerId = UUID0;
paths = (
{
closed = 1;
nodes = (
"346 5 OFFCURVE",
"425 77 OFFCURVE",
"425 157 CURVE SMOOTH",
"425 249 OFFCURVE",
"359 305 OFFCURVE",
"295 324 CURVE",
"298 337 OFFCURVE",
"300 351 OFFCURVE",
"300 360 CURVE SMOOTH",
"300 369 OFFCURVE",
"299 378 OFFCURVE",
"296 388 CURVE",
"461 388 LINE",
"461 410 LINE",
"267 560 LINE",
"245 560 LINE",
"40 410 LINE",
"40 388 LINE",
"204 388 LINE",
"209 380 OFFCURVE",
"211 372 OFFCURVE",
"211 364 CURVE SMOOTH",
"211 354 OFFCURVE",
"208 339 OFFCURVE",
"202 325 CURVE",
"183 321 OFFCURVE",
"166 314 OFFCURVE",
"157 308 CURVE",
"177 252 LINE",
"199 254 OFFCURVE",
"206 255 OFFCURVE",
"229 255 CURVE SMOOTH",
"285 255 OFFCURVE",
"341 237 OFFCURVE",
"341 168 CURVE SMOOTH",
"341 105 OFFCURVE",
"218 73 OFFCURVE",
"182 73 CURVE",
"212 45 OFFCURVE",
"229 18 OFFCURVE",
"237 -10 CURVE"
);
},
{
closed = 1;
nodes = (
"604 328 OFFCURVE",
"616 370 OFFCURVE",
"616 400 CURVE SMOOTH",
"616 469 OFFCURVE",
"401 619 OFFCURVE",
"293 700 CURVE",
"277 700 LINE",
"58 547 LINE",
"83 519 LINE",
"264 640 LINE",
"362 569 OFFCURVE",
"530 448 OFFCURVE",
"530 402 CURVE SMOOTH",
"530 369 OFFCURVE",
"510 352 OFFCURVE",
"488 340 CURVE",
"517 327 OFFCURVE",
"543 312 OFFCURVE",
"561 294 CURVE"
);
}
);
width = 656;
}
);
},
{
glyphname = Ma_virama;
lastChange = "2017-07-03 19:48:37 +0000";
layers = (
{
layerId = UUID0;
paths = (
{
closed = 1;
nodes = (
"225 -156 OFFCURVE",
"620 39 OFFCURVE",
"620 217 CURVE SMOOTH",
"620 379 OFFCURVE",
"528 560 OFFCURVE",
"417 560 CURVE SMOOTH",
"320 560 OFFCURVE",
"128 426 OFFCURVE",
"128 372 CURVE SMOOTH",
"128 358 OFFCURVE",
"136 339 OFFCURVE",
"149 319 CURVE",
"97 307 OFFCURVE",
"20 229 OFFCURVE",
"20 188 CURVE SMOOTH",
"20 125 OFFCURVE",
"104 35 OFFCURVE",
"153 35 CURVE SMOOTH",
"213 35 OFFCURVE",
"312 105 OFFCURVE",
"322 168 CURVE",
"370 168 OFFCURVE",
"442 222 OFFCURVE",
"442 265 CURVE SMOOTH",
"442 323 OFFCURVE",
"400 365 OFFCURVE",
"372 388 CURVE",
"330 354 LINE",
"338 344 OFFCURVE",
"378 312 OFFCURVE",
"378 278 CURVE SMOOTH",
"378 254 OFFCURVE",
"350 233 OFFCURVE",
"331 233 CURVE SMOOTH",
"307 233 OFFCURVE",
"206 339 OFFCURVE",
"206 374 CURVE SMOOTH",
"206 409 OFFCURVE",
"346 495 OFFCURVE",
"397 495 CURVE SMOOTH",
"477 495 OFFCURVE",
"542 350 OFFCURVE",
"542 205 CURVE SMOOTH",
"542 91 OFFCURVE",
"221 -102 OFFCURVE",
"23 -184 CURVE",
"39 -218 LINE"
);
},
{
closed = 1;
nodes = (
"143 100 OFFCURVE",
"91 167 OFFCURVE",
"91 204 CURVE SMOOTH",
"91 216 OFFCURVE",
"121 263 OFFCURVE",
"158 263 CURVE SMOOTH",
"173 263 OFFCURVE",
"196 254 OFFCURVE",
"217 239 CURVE",
"239 218 LINE",
"249 206 OFFCURVE",
"256 192 OFFCURVE",
"256 178 CURVE SMOOTH",
"256 135 OFFCURVE",
"197 100 OFFCURVE",
"170 100 CURVE SMOOTH"
);
}
);
width = 660;
}
);
},
{
glyphname = Khaa;
lastChange = "2017-07-03 19:48:37 +0000";
layers = (
{
components = (
{
name = Kha;
}
);
layerId = UUID0;
paths = (
{
closed = 1;
nodes = (
"654 -6 OFFCURVE",
"699 -1 OFFCURVE",
"727 0 CURVE",
"720 74 OFFCURVE",
"627 367 OFFCURVE",
"604 410 CURVE",
"501 407 OFFCURVE",
"422 399 OFFCURVE",
"385 383 CURVE",
"389 302 LINE",
"403 322 OFFCURVE",
"470 340 OFFCURVE",
"547 352 CURVE",
"579 255 OFFCURVE",
"630 34 OFFCURVE",
"630 -10 CURVE"
);
}
);
width = 754;
}
);
},
{
glyphname = Nyaa;
lastChange = "2017-07-03 19:48:37 +0000";
layers = (
{
layerId = UUID0;
paths = (
{
closed = 1;
nodes = (
"356 -35 OFFCURVE",
"391 -31 OFFCURVE",
"414 -30 CURVE",
"412 -2 OFFCURVE",
"398 55 OFFCURVE",
"384 99 CURVE",
"439 138 OFFCURVE",
"490 195 OFFCURVE",
"490 223 CURVE SMOOTH",
"490 253 OFFCURVE",
"462 321 OFFCURVE",
"429 388 CURVE",
"531 388 LINE",
"562 290 OFFCURVE",
"610 35 OFFCURVE",
"610 -10 CURVE",
"634 -6 OFFCURVE",
"679 -1 OFFCURVE",
"707 0 CURVE",
"701 63 OFFCURVE",
"631 296 OFFCURVE",
"597 388 CURVE",
"736 388 LINE",
"736 408 LINE",
"575 560 LINE",
"553 560 LINE",
"409 426 LINE",
"377 487 OFFCURVE",
"343 542 OFFCURVE",
"326 560 CURVE",
"308 560 LINE",
"180 497 OFFCURVE",
"40 405 OFFCURVE",
"40 374 CURVE SMOOTH",
"40 348 OFFCURVE",
"73 302 OFFCURVE",
"112 277 CURVE",
"137 306 OFFCURVE",
"163 325 OFFCURVE",
"193 346 CURVE",
"165 361 OFFCURVE",
"144 376 OFFCURVE",
"144 395 CURVE SMOOTH",
"144 408 OFFCURVE",
"239 467 OFFCURVE",
"283 487 CURVE",
"324 438 OFFCURVE",
"408 255 OFFCURVE",
"408 213 CURVE SMOOTH",
"408 193 OFFCURVE",
"349 130 OFFCURVE",
"309 130 CURVE SMOOTH",
"239 130 OFFCURVE",
"180 169 OFFCURVE",
"154 227 CURVE",
"133 202 OFFCURVE",
"109 181 OFFCURVE",
"82 166 CURVE",
"122 110 OFFCURVE",
"184 60 OFFCURVE",
"289 60 CURVE SMOOTH",
"300 60 OFFCURVE",
"312 63 OFFCURVE",
"324 67 CURVE",
"331 26 OFFCURVE",
"336 -15 OFFCURVE",
"336 -39 CURVE"
);
}
);
width = 756;
}
);
},
{
glyphname = Ki;
lastChange = "2017-07-03 19:48:37 +0000";
layers = (
{
layerId = UUID0;
paths = (
{
closed = 1;
nodes = (
"490 -77 OFFCURVE",
"522 -66 OFFCURVE",
"555 -62 CURVE",
"547 29 OFFCURVE",
"502 133 OFFCURVE",
"462 208 CURVE",
"445 279 OFFCURVE",
"377 314 OFFCURVE",
"317 326 CURVE",
"320 340 OFFCURVE",
"322 355 OFFCURVE",
"322 364 CURVE SMOOTH",
"322 372 OFFCURVE",
"321 380 OFFCURVE",
"319 388 CURVE",
"483 388 LINE",
"483 410 LINE",
"282 577 LINE",
"262 577 LINE",
"72 410 LINE",
"72 388 LINE",
"235 388 LINE",
"239 382 OFFCURVE",
"240 375 OFFCURVE",
"240 368 CURVE SMOOTH",
"240 358 OFFCURVE",
"237 343 OFFCURVE",
"232 329 CURVE",
"134 318 OFFCURVE",
"69 267 OFFCURVE",
"52 254 CURVE",
"68 229 LINE",
"112 245 OFFCURVE",
"179 255 OFFCURVE",
"251 255 CURVE SMOOTH",
"307 255 OFFCURVE",
"383 237 OFFCURVE",
"383 153 CURVE SMOOTH",
"383 105 OFFCURVE",
"311 60 OFFCURVE",
"275 60 CURVE SMOOTH",
"205 60 OFFCURVE",
"148 96 OFFCURVE",
"138 151 CURVE",
"114 137 OFFCURVE",
"89 123 OFFCURVE",
"40 114 CURVE",
"82 17 OFFCURVE",
"175 -10 OFFCURVE",
"254 -10 CURVE SMOOTH",
"327 -10 OFFCURVE",
"391 40 OFFCURVE",
"430 90 CURVE",
"450 27 OFFCURVE",
"459 -33 OFFCURVE",
"459 -95 CURVE"
);
},
{
closed = 1;
nodes = (
"196 448 LINE",
"269 510 LINE",
"277 510 LINE",
"349 448 LINE",
"349 441 LINE",
"196 441 LINE"
);
}
);
width = 575;
}
);
},
{
glyphname = Gi;
lastChange = "2017-07-03 19:48:37 +0000";
layers = (
{
layerId = UUID0;
paths = (
{
closed = 1;
nodes = (
"394 28 OFFCURVE",
"478 95 OFFCURVE",
"478 141 CURVE SMOOTH",
"478 147 OFFCURVE",
"456 237 OFFCURVE",
"416 340 CURVE",
"740 340 LINE",
"740 362 LINE",
"539 529 LINE",
"519 529 LINE",
"385 411 LINE",
"361 464 OFFCURVE",
"332 517 OFFCURVE",
"299 560 CURVE",
"277 560 LINE",
"221 532 OFFCURVE",
"40 409 OFFCURVE",
"40 352 CURVE SMOOTH",
"40 322 OFFCURVE",
"61 296 OFFCURVE",
"107 259 CURVE",
"130 283 OFFCURVE",
"156 306 OFFCURVE",
"193 322 CURVE",
"171 339 OFFCURVE",
"146 353 OFFCURVE",
"146 372 CURVE SMOOTH",
"146 391 OFFCURVE",
"177 435 OFFCURVE",
"254 477 CURVE",
"293 450 OFFCURVE",
"387 197 OFFCURVE",
"387 155 CURVE SMOOTH",
"387 132 OFFCURVE",
"318 98 OFFCURVE",
"258 73 CURVE",
"288 49 OFFCURVE",
"309 21 OFFCURVE",
"320 -14 CURVE"
);
},
{
closed = 1;
nodes = (
"453 400 LINE",
"526 462 LINE",
"534 462 LINE",
"606 400 LINE",
"606 393 LINE",
"453 393 LINE"
);
}
);
width = 766;
}
);
},
{
glyphname = Ghi;
lastChange = "2017-07-03 19:48:37 +0000";
layers = (
{
layerId = UUID0;
paths = (
{
closed = 1;
nodes = (
"536 -10 OFFCURVE",
"672 144 OFFCURVE",
"672 167 CURVE SMOOTH",
"672 206 OFFCURVE",
"622 253 OFFCURVE",
"574 290 CURVE",
"584 301 OFFCURVE",
"606 316 OFFCURVE",
"606 337 CURVE SMOOTH",
"606 349 OFFCURVE",
"602 369 OFFCURVE",
"591 388 CURVE",
"742 388 LINE",
"742 410 LINE",
"541 577 LINE",
"521 577 LINE",
"358 434 LINE",
"225 560 LINE",
"203 560 LINE",
"40 408 LINE",
"40 388 LINE",
"186 388 LINE",
"194 380 OFFCURVE",
"198 370 OFFCURVE",
"198 360 CURVE SMOOTH",
"198 302 OFFCURVE",
"94 242 OFFCURVE",
"46 221 CURVE",
"54 183 LINE",
"66 187 OFFCURVE",
"77 191 OFFCURVE",
"86 196 CURVE",
"97 148 OFFCURVE",
"136 33 OFFCURVE",
"233 33 CURVE SMOOTH",
"255 33 OFFCURVE",
"316 89 OFFCURVE",
"334 89 CURVE SMOOTH",
"347 89 OFFCURVE",
"419 -10 OFFCURVE",
"473 -10 CURVE SMOOTH"
);
},
{
closed = 1;
nodes = (
"449 60 OFFCURVE",
"381 165 OFFCURVE",
"358 165 CURVE SMOOTH",
"343 165 OFFCURVE",
"269 103 OFFCURVE",
"242 103 CURVE SMOOTH",
"220 103 OFFCURVE",
"164 165 OFFCURVE",
"160 222 CURVE",
"203 249 OFFCURVE",
"280 307 OFFCURVE",
"280 360 CURVE SMOOTH",
"280 368 OFFCURVE",
"278 378 OFFCURVE",
"274 388 CURVE",
"494 388 LINE",
"509 372 OFFCURVE",
"517 353 OFFCURVE",
"517 339 CURVE SMOOTH",
"517 314 OFFCURVE",
"484 296 OFFCURVE",
"454 291 CURVE",
"460 267 LINE",
"502 256 OFFCURVE",
"589 190 OFFCURVE",
"589 142 CURVE SMOOTH",
"589 124 OFFCURVE",
"532 60 OFFCURVE",
"494 60 CURVE SMOOTH"
);
},
{
closed = 1;
nodes = (
"455 448 LINE",
"528 510 LINE",
"536 510 LINE",
"608 448 LINE",
"608 441 LINE",
"455 441 LINE"
);
}
);
width = 762;
}
);
},
{
glyphname = Ngi;
lastChange = "2017-07-03 19:48:37 +0000";
layers = (
{
layerId = UUID0;
paths = (
{
closed = 1;
nodes = (
"483 5 OFFCURVE",
"565 69 OFFCURVE",
"565 93 CURVE SMOOTH",
"565 115 OFFCURVE",
"437 232 OFFCURVE",
"416 232 CURVE SMOOTH",
"390 232 OFFCURVE",
"255 156 OFFCURVE",
"238 156 CURVE SMOOTH",
"217 156 OFFCURVE",
"160 205 OFFCURVE",
"160 224 CURVE SMOOTH",
"160 244 OFFCURVE",
"347 302 OFFCURVE",
"347 345 CURVE SMOOTH",
"347 363 OFFCURVE",
"342 384 OFFCURVE",
"335 406 CURVE",
"244 403 LINE",
"251 384 OFFCURVE",
"255 364 OFFCURVE",
"255 348 CURVE SMOOTH",
"255 318 OFFCURVE",
"74 242 OFFCURVE",
"40 231 CURVE",
"45 196 LINE",
"58 197 OFFCURVE",
"72 201 OFFCURVE",
"85 205 CURVE",
"85 180 OFFCURVE",
"158 86 OFFCURVE",
"219 86 CURVE SMOOTH",
"235 86 OFFCURVE",
"369 159 OFFCURVE",
"391 159 CURVE SMOOTH",
"406 159 OFFCURVE",
"456 115 OFFCURVE",
"456 103 CURVE SMOOTH",
"456 90 OFFCURVE",
"399 68 OFFCURVE",
"374 61 CURVE",
"396 45 OFFCURVE",
"418 17 OFFCURVE",
"435 -13 CURVE"
);
},
{
closed = 1;
nodes = (
"488 384 LINE",
"488 406 LINE",
"294 560 LINE",
"272 560 LINE",
"67 406 LINE",
"67 384 LINE"
);
},
{
closed = 1;
nodes = (
"697 312 OFFCURVE",
"739 362 OFFCURVE",
"739 388 CURVE SMOOTH",
"739 429 OFFCURVE",
"726 467 OFFCURVE",
"602 560 CURVE",
"579 560 LINE",
"396 427 LINE",
"420 398 LINE",
"567 495 LINE",
"605 468 OFFCURVE",
"649 422 OFFCURVE",
"649 409 CURVE SMOOTH",
"649 390 OFFCURVE",
"628 358 OFFCURVE",
"600 343 CURVE",
"630 322 OFFCURVE",
"633 316 OFFCURVE",
"658 287 CURVE"
);
},
{
closed = 1;
nodes = (
"811 400 LINE",
"884 462 LINE",
"892 462 LINE",
"964 400 LINE",
"964 393 LINE",
"811 393 LINE"
);
},
{
closed = 1;
nodes = (
"1098 340 LINE",
"1098 362 LINE",
"897 529 LINE",
"877 529 LINE",
"687 362 LINE",
"687 340 LINE"
);
}
);
width = 1118;
}
);
},
{
glyphname = Ci;
lastChange = "2017-07-03 19:48:37 +0000";
layers = (
{
layerId = UUID0;
paths = (
{
closed = 1;
nodes = (
"382 -10 OFFCURVE",
"499 116 OFFCURVE",
"499 146 CURVE SMOOTH",
"499 204 OFFCURVE",
"454 275 OFFCURVE",
"389 299 CURVE",
"395 316 OFFCURVE",
"399 337 OFFCURVE",
"399 350 CURVE SMOOTH",
"399 362 OFFCURVE",
"396 375 OFFCURVE",
"391 388 CURVE",
"534 388 LINE",
"534 410 LINE",
"333 577 LINE",
"313 577 LINE",
"123 410 LINE",
"123 388 LINE",
"304 388 LINE",
"313 379 OFFCURVE",
"317 369 OFFCURVE",
"317 358 CURVE SMOOTH",
"317 344 OFFCURVE",
"311 320 OFFCURVE",
"302 302 CURVE",
"205 280 OFFCURVE",
"85 196 OFFCURVE",
"20 151 CURVE",
"42 113 LINE",
"66 118 OFFCURVE",
"86 127 OFFCURVE",
"99 127 CURVE SMOOTH",
"116 127 OFFCURVE",
"135 106 OFFCURVE",
"167 77 CURVE SMOOTH",
"204 45 OFFCURVE",
"253 -10 OFFCURVE",
"319 -10 CURVE SMOOTH"
);
},
{
closed = 1;
nodes = (
"290 60 OFFCURVE",
"207 142 OFFCURVE",
"178 176 CURVE",
"228 205 OFFCURVE",
"279 238 OFFCURVE",
"325 238 CURVE SMOOTH",
"367 238 OFFCURVE",
"417 174 OFFCURVE",
"417 141 CURVE SMOOTH",
"417 126 OFFCURVE",
"353 60 OFFCURVE",
"330 60 CURVE SMOOTH"
);
},
{
closed = 1;
nodes = (
"247 448 LINE",
"320 510 LINE",
"328 510 LINE",
"400 448 LINE",
"400 441 LINE",
"247 441 LINE"
);
}
);
width = 554;
}
);
},
{
glyphname = Chi_bhks;
lastChange = "2017-07-03 19:48:37 +0000";
layers = (
{
layerId = UUID0;
paths = (
{
closed = 1;
nodes = (
"478 -10 OFFCURVE",
"558 104 OFFCURVE",
"558 118 CURVE SMOOTH",
"558 223 OFFCURVE",
"466 298 OFFCURVE",
"323 308 CURVE",
"325 337 OFFCURVE",
"332 364 OFFCURVE",
"341 388 CURVE",
"515 388 LINE",
"515 410 LINE",
"314 577 LINE",
"294 577 LINE",
"104 410 LINE",
"104 388 LINE",
"258 388 LINE",
"250 361 OFFCURVE",
"244 330 OFFCURVE",
"241 303 CURVE",
"133 279 OFFCURVE",
"40 184 OFFCURVE",
"40 131 CURVE SMOOTH",
"40 45 OFFCURVE",
"108 0 OFFCURVE",
"183 0 CURVE SMOOTH",
"209 0 OFFCURVE",
"260 27 OFFCURVE",
"294 57 CURVE",
"320 18 OFFCURVE",
"358 -10 OFFCURVE",
"413 -10 CURVE SMOOTH"
);
},
{
closed = 1;
nodes = (
"170 70 OFFCURVE",
"122 89 OFFCURVE",
"122 141 CURVE SMOOTH",
"122 167 OFFCURVE",
"159 218 OFFCURVE",
"242 235 CURVE",
"245 196 OFFCURVE",
"253 146 OFFCURVE",
"272 100 CURVE",
"245 82 OFFCURVE",
"208 70 OFFCURVE",
"200 70 CURVE SMOOTH"
);
},
{
closed = 1;
nodes = (
"360 60 OFFCURVE",
"331 153 OFFCURVE",
"324 239 CURVE",
"421 232 OFFCURVE",
"476 187 OFFCURVE",
"476 115 CURVE SMOOTH",
"476 95 OFFCURVE",
"451 60 OFFCURVE",
"432 60 CURVE SMOOTH"
);
},
{
closed = 1;
nodes = (
"228 448 LINE",
"301 510 LINE",
"309 510 LINE",
"381 448 LINE",
"381 441 LINE",
"228 441 LINE"
);
}
);
width = 598;
}
);
rightKerningGroup = Kappa;
},
{
glyphname = Ji;
lastChange = "2017-07-03 19:48:37 +0000";
layers = (
{
layerId = UUID0;
paths = (
{
closed = 1;
nodes = (
"547 -10 OFFCURVE",
"670 67 OFFCURVE",
"670 117 CURVE SMOOTH",
"670 144 OFFCURVE",
"643 305 OFFCURVE",
"605 388 CURVE",
"752 388 LINE",
"752 410 LINE",
"551 577 LINE",
"531 577 LINE",
"379 443 LINE",
"256 560 LINE",
"234 560 LINE",
"71 408 LINE",
"71 388 LINE",
"193 388 LINE",
"222 378 OFFCURVE",
"233 363 OFFCURVE",
"233 345 CURVE SMOOTH",
"233 287 OFFCURVE",
"74 219 OFFCURVE",
"40 206 CURVE",
"48 168 LINE",
"60 172 OFFCURVE",
"81 176 OFFCURVE",
"90 181 CURVE",
"98 144 OFFCURVE",
"127 60 OFFCURVE",
"182 28 CURVE",
"202 51 OFFCURVE",
"224 71 OFFCURVE",
"247 89 CURVE",
"206 101 OFFCURVE",
"169 150 OFFCURVE",
"164 207 CURVE",
"187 221 OFFCURVE",
"230 245 OFFCURVE",
"264 272 CURVE",
"272 235 OFFCURVE",
"276 196 OFFCURVE",
"280 161 CURVE",
"309 182 OFFCURVE",
"339 196 OFFCURVE",
"372 204 CURVE",
"361 254 OFFCURVE",
"339 307 OFFCURVE",
"314 357 CURVE",
"312 366 OFFCURVE",
"308 377 OFFCURVE",
"301 388 CURVE",
"520 388 LINE",
"554 321 OFFCURVE",
"588 153 OFFCURVE",
"588 101 CURVE SMOOTH",
"588 90 OFFCURVE",
"567 60 OFFCURVE",
"546 60 CURVE SMOOTH",
"502 60 OFFCURVE",
"463 77 OFFCURVE",
"430 99 CURVE",
"412 67 OFFCURVE",
"392 48 OFFCURVE",
"371 32 CURVE",
"413 8 OFFCURVE",
"462 -10 OFFCURVE",
"515 -10 CURVE SMOOTH"
);
},
{
closed = 1;
nodes = (
"465 448 LINE",
"538 510 LINE",
"546 510 LINE",
"618 448 LINE",
"618 441 LINE",
"465 441 LINE"
);
}
);
width = 772;
}
);
},
{
glyphname = Jhi;
lastChange = "2017-07-03 19:48:37 +0000";
layers = (
{
layerId = UUID0;
paths = (
{
closed = 1;
nodes = (
"548 -52 OFFCURVE",
"575 -40 OFFCURVE",
"600 -32 CURVE",
"589 20 OFFCURVE",
"543 108 OFFCURVE",
"508 126 CURVE",
"479 119 OFFCURVE",
"454 105 OFFCURVE",
"428 87 CURVE",
"438 80 OFFCURVE",
"454 59 OFFCURVE",
"470 33 CURVE",
"447 22 OFFCURVE",
"419 10 OFFCURVE",
"398 10 CURVE SMOOTH",
"346 10 OFFCURVE",
"302 43 OFFCURVE",
"283 85 CURVE",
"319 88 OFFCURVE",
"436 153 OFFCURVE",
"436 202 CURVE SMOOTH",
"436 228 OFFCURVE",
"403 321 OFFCURVE",
"358 388 CURVE",
"515 388 LINE",
"515 410 LINE",
"314 577 LINE",
"294 577 LINE",
"104 410 LINE",
"104 388 LINE",
"270 388 LINE",
"306 333 OFFCURVE",
"354 238 OFFCURVE",
"354 186 CURVE SMOOTH",
"354 175 OFFCURVE",
"333 155 OFFCURVE",
"312 155 CURVE SMOOTH",
"210 155 OFFCURVE",
"134 243 OFFCURVE",
"101 289 CURVE",
"77 256 OFFCURVE",
"49 240 OFFCURVE",
"20 220 CURVE",
"43 195 OFFCURVE",
"109 130 OFFCURVE",
"194 100 CURVE",
"208 8 OFFCURVE",
"281 -60 OFFCURVE",
"389 -60 CURVE SMOOTH",
"411 -60 OFFCURVE",
"463 -34 OFFCURVE",
"496 -13 CURVE",
"508 -38 OFFCURVE",
"518 -60 OFFCURVE",
"521 -71 CURVE"
);
},
{
closed = 1;
nodes = (
"228 448 LINE",
"301 510 LINE",
"309 510 LINE",
"381 448 LINE",
"381 441 LINE",
"228 441 LINE"
);
}
);
width = 620;
}
);
},
{
glyphname = Nyi;
lastChange = "2017-07-03 19:48:37 +0000";
layers = (
{
layerId = UUID0;
paths = (
{
closed = 1;
nodes = (
"634 -6 OFFCURVE",
"679 -1 OFFCURVE",
"707 0 CURVE",
"701 63 OFFCURVE",
"631 296 OFFCURVE",
"597 388 CURVE",
"755 388 LINE",
"755 410 LINE",
"554 577 LINE",
"534 577 LINE",
"394 454 LINE",
"367 504 OFFCURVE",
"341 545 OFFCURVE",
"326 560 CURVE",
"308 560 LINE",
"180 497 OFFCURVE",
"40 405 OFFCURVE",
"40 374 CURVE SMOOTH",
"40 348 OFFCURVE",
"73 302 OFFCURVE",
"112 277 CURVE",
"137 306 OFFCURVE",
"163 325 OFFCURVE",
"193 346 CURVE",
"165 361 OFFCURVE",
"144 376 OFFCURVE",
"144 395 CURVE SMOOTH",
"144 408 OFFCURVE",
"239 467 OFFCURVE",
"283 487 CURVE",
"324 438 OFFCURVE",
"408 255 OFFCURVE",
"408 213 CURVE SMOOTH",
"408 193 OFFCURVE",
"349 130 OFFCURVE",
"309 130 CURVE SMOOTH",
"239 130 OFFCURVE",
"180 169 OFFCURVE",
"154 227 CURVE",
"133 202 OFFCURVE",
"109 181 OFFCURVE",
"82 166 CURVE",
"122 110 OFFCURVE",
"184 60 OFFCURVE",
"289 60 CURVE SMOOTH",
"362 60 OFFCURVE",
"490 179 OFFCURVE",
"490 223 CURVE SMOOTH",
"490 253 OFFCURVE",
"462 321 OFFCURVE",
"429 388 CURVE",
"531 388 LINE",
"562 290 OFFCURVE",
"610 35 OFFCURVE",
"610 -10 CURVE"
);
},
{
closed = 1;
nodes = (
"468 448 LINE",
"541 510 LINE",
"549 510 LINE",
"621 448 LINE",
"621 441 LINE",
"468 441 LINE"
);
}
);
width = 775;
}
);
},
{
glyphname = Tti;
lastChange = "2017-07-03 19:48:37 +0000";
layers = (
{
layerId = UUID0;
paths = (
{
closed = 1;
nodes = (
"599 65 OFFCURVE",
"710 181 OFFCURVE",
"710 225 CURVE SMOOTH",
"710 251 OFFCURVE",
"696 294 OFFCURVE",
"676 340 CURVE",
"1005 340 LINE",
"1005 362 LINE",
"804 529 LINE",
"784 529 LINE",
"644 406 LINE",
"620 452 OFFCURVE",
"595 491 OFFCURVE",
"579 508 CURVE",
"561 508 LINE",
"505 480 OFFCURVE",
"424 405 OFFCURVE",
"408 405 CURVE SMOOTH",
"397 405 OFFCURVE",
"323 541 OFFCURVE",
"305 560 CURVE",
"287 560 LINE",
"159 497 OFFCURVE",
"40 339 OFFCURVE",
"40 308 CURVE SMOOTH",
"40 282 OFFCURVE",
"160 131 OFFCURVE",
"199 106 CURVE",
"261 183 LINE",
"233 198 OFFCURVE",
"122 284 OFFCURVE",
"122 329 CURVE SMOOTH",
"122 342 OFFCURVE",
"188 436 OFFCURVE",
"262 487 CURVE",
"276 452 OFFCURVE",
"348 319 OFFCURVE",
"371 319 CURVE SMOOTH",
"394 319 OFFCURVE",
"506 422 OFFCURVE",
"536 435 CURVE",
"577 386 OFFCURVE",
"628 257 OFFCURVE",
"628 215 CURVE SMOOTH",
"628 195 OFFCURVE",
"533 118 OFFCURVE",
"478 101 CURVE",
"515 30 LINE"
);
},
{
closed = 1;
nodes = (
"718 400 LINE",
"791 462 LINE",
"799 462 LINE",
"871 400 LINE",
"871 393 LINE",
"718 393 LINE"
);
}
);
width = 1025;
}
);
},
{
glyphname = Tthi;
lastChange = "2017-07-03 19:48:37 +0000";
layers = (
{
layerId = UUID0;
paths = (
{
closed = 1;
nodes = (
"455 95 OFFCURVE",
"600 241 OFFCURVE",
"600 290 CURVE SMOOTH",
"600 305 OFFCURVE",
"596 322 OFFCURVE",
"589 340 CURVE",
"912 340 LINE",
"912 362 LINE",
"711 529 LINE",
"691 529 LINE",
"553 407 LINE",
"511 469 OFFCURVE",
"447 528 OFFCURVE",
"388 550 CURVE",
"355 550 LINE",
"232 532 OFFCURVE",
"40 425 OFFCURVE",
"40 351 CURVE SMOOTH",
"40 273 OFFCURVE",
"113 95 OFFCURVE",
"351 95 CURVE SMOOTH"
);
},
{
closed = 1;
nodes = (
"216 165 OFFCURVE",
"122 250 OFFCURVE",
"122 352 CURVE SMOOTH",
"122 401 OFFCURVE",
"254 474 OFFCURVE",
"348 482 CURVE",
"415 470 OFFCURVE",
"518 353 OFFCURVE",
"518 281 CURVE SMOOTH",
"518 238 OFFCURVE",
"426 165 OFFCURVE",
"359 165 CURVE SMOOTH"
);
},
{
closed = 1;
nodes = (
"625 400 LINE",
"698 462 LINE",
"706 462 LINE",
"778 400 LINE",
"778 393 LINE",
"625 393 LINE"
);
}
);
width = 932;
}
);
},
{
glyphname = Ddi;
lastChange = "2017-07-03 19:48:37 +0000";
layers = (
{
layerId = UUID0;
paths = (
{
closed = 1;
nodes = (
"339 -10 OFFCURVE",
"426 56 OFFCURVE",
"470 96 CURVE",
"439 127 LINE",
"370 66 OFFCURVE",
"325 60 OFFCURVE",
"275 60 CURVE SMOOTH",
"246 60 OFFCURVE",
"201 76 OFFCURVE",
"194 126 CURVE",
"239 149 OFFCURVE",
"343 213 OFFCURVE",
"344 278 CURVE SMOOTH",
"344 307 OFFCURVE",
"333 340 OFFCURVE",
"300 354 CURVE",
"300 360 LINE SMOOTH",
"300 369 OFFCURVE",
"299 378 OFFCURVE",
"296 388 CURVE",
"453 388 LINE",
"453 410 LINE",
"252 577 LINE",
"232 577 LINE",
"42 410 LINE",
"42 388 LINE",
"204 388 LINE",
"209 380 OFFCURVE",
"211 372 OFFCURVE",
"211 364 CURVE SMOOTH",
"211 360 OFFCURVE",
"210 356 OFFCURVE",
"210 352 CURVE",
"136 326 OFFCURVE",
"48 256 OFFCURVE",
"30 244 CURVE",
"49 217 LINE",
"132 267 OFFCURVE",
"186 292 OFFCURVE",
"227 292 CURVE SMOOTH",
"249 292 OFFCURVE",
"262 286 OFFCURVE",
"262 265 CURVE SMOOTH",
"262 226 OFFCURVE",
"174 151 OFFCURVE",
"57 108 CURVE",
"63 70 LINE",
"82 74 OFFCURVE",
"99 81 OFFCURVE",
"116 89 CURVE",
"134 44 OFFCURVE",
"169 -10 OFFCURVE",
"256 -10 CURVE SMOOTH"
);
},
{
closed = 1;
nodes = (
"166 448 LINE",
"239 510 LINE",
"247 510 LINE",
"319 448 LINE",
"319 441 LINE",
"166 441 LINE"
);
}
);
width = 490;
}
);
},
{
glyphname = Ddhi;
lastChange = "2017-07-03 19:48:37 +0000";
layers = (
{
layerId = UUID0;
paths = (
{
closed = 1;
nodes = (
"332 -10 OFFCURVE",
"482 100 OFFCURVE",
"482 148 CURVE SMOOTH",
"482 204 OFFCURVE",
"438 270 OFFCURVE",
"407 283 CURVE",
"388 261 OFFCURVE",
"355 236 OFFCURVE",
"325 225 CURVE",
"375 208 OFFCURVE",
"400 164 OFFCURVE",
"400 129 CURVE SMOOTH",
"400 109 OFFCURVE",
"335 60 OFFCURVE",
"300 60 CURVE SMOOTH",
"263 60 OFFCURVE",
"174 102 OFFCURVE",
"167 202 CURVE",
"228 240 OFFCURVE",
"316 296 OFFCURVE",
"317 348 CURVE SMOOTH",
"317 359 OFFCURVE",
"313 373 OFFCURVE",
"306 388 CURVE",
"461 388 LINE",
"461 410 LINE",
"260 577 LINE",
"240 577 LINE",
"50 410 LINE",
"50 388 LINE",
"210 388 LINE",
"228 377 OFFCURVE",
"235 363 OFFCURVE",
"235 348 CURVE SMOOTH",
"235 309 OFFCURVE",
"136 226 OFFCURVE",
"20 189 CURVE",
"28 144 LINE",
"47 148 OFFCURVE",
"64 155 OFFCURVE",
"81 163 CURVE",
"107 80 OFFCURVE",
"171 -10 OFFCURVE",
"280 -10 CURVE SMOOTH"
);
},
{
closed = 1;
nodes = (
"174 448 LINE",
"247 510 LINE",
"255 510 LINE",
"327 448 LINE",
"327 441 LINE",
"174 441 LINE"
);
}
);
width = 522;
}
);
},
{
glyphname = Nni;
lastChange = "2017-07-03 19:48:37 +0000";
layers = (
{
layerId = UUID0;
paths = (
{
closed = 1;
nodes = (
"420 38 OFFCURVE",
"454 109 OFFCURVE",
"454 171 CURVE SMOOTH",
"454 193 OFFCURVE",
"427 272 OFFCURVE",
"318 291 CURVE",
"372 314 OFFCURVE",
"428 345 OFFCURVE",
"428 382 CURVE SMOOTH",
"428 393 OFFCURVE",
"421 408 OFFCURVE",
"411 425 CURVE",
"517 495 LINE",
"555 468 OFFCURVE",
"599 422 OFFCURVE",
"599 409 CURVE SMOOTH",
"599 390 OFFCURVE",
"578 358 OFFCURVE",
"550 343 CURVE",
"580 322 OFFCURVE",
"583 316 OFFCURVE",
"608 287 CURVE",
"628 300 OFFCURVE",
"650 320 OFFCURVE",
"665 340 CURVE",
"998 340 LINE",
"998 362 LINE",
"797 529 LINE",
"777 529 LINE",
"676 440 LINE",
"660 469 OFFCURVE",
"625 505 OFFCURVE",
"552 560 CURVE",
"529 560 LINE",
"387 457 LINE",
"354 498 OFFCURVE",
"308 541 OFFCURVE",
"279 560 CURVE",
"262 560 LINE",
"219 543 OFFCURVE",
"73 462 OFFCURVE",
"20 375 CURVE",
"60 366 OFFCURVE",
"95 353 OFFCURVE",
"122 331 CURVE",
"140 421 OFFCURVE",
"227 469 OFFCURVE",
"261 482 CURVE",
"282 472 OFFCURVE",
"336 416 OFFCURVE",
"336 381 CURVE SMOOTH",
"336 344 OFFCURVE",
"282 306 OFFCURVE",
"171 263 CURVE",
"183 248 OFFCURVE",
"193 226 OFFCURVE",
"200 203 CURVE",
"243 220 OFFCURVE",
"265 225 OFFCURVE",
"292 225 CURVE SMOOTH",
"337 225 OFFCURVE",
"372 194 OFFCURVE",
"372 167 CURVE SMOOTH",
"372 125 OFFCURVE",
"313 69 OFFCURVE",
"246 49 CURVE",
"275 32 OFFCURVE",
"298 12 OFFCURVE",
"320 -10 CURVE"
);
},
{
closed = 1;
nodes = (
"711 400 LINE",
"784 462 LINE",
"792 462 LINE",
"864 400 LINE",
"864 393 LINE",
"711 393 LINE"
);
}
);
width = 1018;
}
);
},
{
glyphname = Ti;
lastChange = "2017-07-03 19:48:37 +0000";
layers = (
{
layerId = UUID0;
paths = (
{
closed = 1;
nodes = (
"330 12 OFFCURVE",
"455 75 OFFCURVE",
"455 141 CURVE SMOOTH",
"455 179 OFFCURVE",
"358 330 OFFCURVE",
"301 388 CURVE",
"468 388 LINE",
"468 410 LINE",
"267 577 LINE",
"247 577 LINE",
"57 410 LINE",
"57 388 LINE",
"222 388 LINE",
"158 349 OFFCURVE",
"40 268 OFFCURVE",
"40 234 CURVE SMOOTH",
"40 203 OFFCURVE",
"59 168 OFFCURVE",
"106 130 CURVE",
"130 159 OFFCURVE",
"158 183 OFFCURVE",
"192 202 CURVE",
"157 218 OFFCURVE",
"144 234 OFFCURVE",
"144 256 CURVE SMOOTH",
"144 284 OFFCURVE",
"225 341 OFFCURVE",
"252 341 CURVE SMOOTH",
"272 341 OFFCURVE",
"373 172 OFFCURVE",
"373 156 CURVE SMOOTH",
"373 125 OFFCURVE",
"250 76 OFFCURVE",
"200 68 CURVE",
"212 53 OFFCURVE",
"237 10 OFFCURVE",
"244 -13 CURVE"
);
},
{
closed = 1;
nodes = (
"181 448 LINE",
"254 510 LINE",
"262 510 LINE",
"334 448 LINE",
"334 441 LINE",
"181 441 LINE"
);
}
);
width = 513;
}
);
},
{
glyphname = Thi;
lastChange = "2017-07-03 19:48:37 +0000";
layers = (
{
layerId = UUID0;
paths = (
{
closed = 1;
nodes = (
"418 -10 OFFCURVE",
"502 137 OFFCURVE",
"502 162 CURVE SMOOTH",
"502 203 OFFCURVE",
"479 271 OFFCURVE",
"447 340 CURVE",
"768 340 LINE",
"768 362 LINE",
"567 529 LINE",
"547 529 LINE",
"411 409 LINE",
"373 476 OFFCURVE",
"329 535 OFFCURVE",
"294 560 CURVE",
"258 560 LINE",
"219 541 OFFCURVE",
"40 421 OFFCURVE",
"40 379 CURVE SMOOTH",
"40 348 OFFCURVE",
"71 301 OFFCURVE",
"118 263 CURVE",
"142 292 OFFCURVE",
"170 316 OFFCURVE",
"204 335 CURVE",
"169 351 OFFCURVE",
"144 379 OFFCURVE",
"144 401 CURVE SMOOTH",
"144 428 OFFCURVE",
"222 490 OFFCURVE",
"252 495 CURVE",
"285 467 OFFCURVE",
"332 390 OFFCURVE",
"368 313 CURVE",
"352 316 OFFCURVE",
"335 318 OFFCURVE",
"322 318 CURVE SMOOTH",
"219 318 OFFCURVE",
"114 241 OFFCURVE",
"114 170 CURVE SMOOTH",
"114 107 OFFCURVE",
"275 -10 OFFCURVE",
"331 -10 CURVE SMOOTH"
);
},
{
closed = 1;
nodes = (
"300 60 OFFCURVE",
"197 145 OFFCURVE",
"197 180 CURVE SMOOTH",
"197 210 OFFCURVE",
"239 246 OFFCURVE",
"308 246 CURVE SMOOTH",
"341 246 OFFCURVE",
"376 240 OFFCURVE",
"402 231 CURVE",
"413 199 OFFCURVE",
"420 170 OFFCURVE",
"420 151 CURVE SMOOTH",
"420 128 OFFCURVE",
"371 60 OFFCURVE",
"344 60 CURVE SMOOTH"
);
},
{
closed = 1;
nodes = (
"481 400 LINE",
"554 462 LINE",
"562 462 LINE",
"634 400 LINE",
"634 393 LINE",
"481 393 LINE"
);
}
);
width = 788;
}
);
},
{
glyphname = Di;
lastChange = "2017-07-03 19:48:37 +0000";
layers = (
{
layerId = UUID0;
paths = (
{
closed = 1;
nodes = (
"354 -10 OFFCURVE",
"443 62 OFFCURVE",
"487 102 CURVE",
"458 135 LINE",
"389 74 OFFCURVE",
"337 60 OFFCURVE",
"295 60 CURVE SMOOTH",
"258 60 OFFCURVE",
"174 102 OFFCURVE",
"167 202 CURVE",
"228 240 OFFCURVE",
"316 296 OFFCURVE",
"317 348 CURVE SMOOTH",
"317 359 OFFCURVE",
"313 373 OFFCURVE",
"306 388 CURVE",
"462 388 LINE",
"462 410 LINE",
"261 577 LINE",
"241 577 LINE",
"51 410 LINE",
"51 388 LINE",
"210 388 LINE",
"228 377 OFFCURVE",
"235 363 OFFCURVE",
"235 348 CURVE SMOOTH",
"235 309 OFFCURVE",
"136 226 OFFCURVE",
"20 189 CURVE",
"28 144 LINE",
"47 148 OFFCURVE",
"64 155 OFFCURVE",
"81 163 CURVE",
"107 80 OFFCURVE",
"171 -10 OFFCURVE",
"280 -10 CURVE SMOOTH"
);
},
{
closed = 1;
nodes = (
"175 448 LINE",
"248 510 LINE",
"256 510 LINE",
"328 448 LINE",
"328 441 LINE",
"175 441 LINE"
);
}
);
width = 507;
}
);
},
{
glyphname = Dhi;
lastChange = "2017-07-03 19:48:37 +0000";
layers = (
{
layerId = UUID0;
paths = (
{
closed = 1;
nodes = (
"450 -10 OFFCURVE",
"548 130 OFFCURVE",
"548 166 CURVE SMOOTH",
"548 211 OFFCURVE",
"525 273 OFFCURVE",
"490 340 CURVE",
"808 340 LINE",
"808 362 LINE",
"607 529 LINE",
"587 529 LINE",
"451 410 LINE",
"424 455 OFFCURVE",
"393 502 OFFCURVE",
"363 545 CURVE",
"341 545 LINE",
"285 517 OFFCURVE",
"40 385 OFFCURVE",
"40 328 CURVE SMOOTH",
"40 305 OFFCURVE",
"52 285 OFFCURVE",
"77 260 CURVE",
"107 142 OFFCURVE",
"180 -10 OFFCURVE",
"346 -10 CURVE SMOOTH"
);
},
{
closed = 1;
nodes = (
"241 60 OFFCURVE",
"183 165 OFFCURVE",
"164 277 CURVE",
"193 298 LINE",
"171 315 OFFCURVE",
"146 329 OFFCURVE",
"146 348 CURVE SMOOTH",
"146 367 OFFCURVE",
"241 420 OFFCURVE",
"318 462 CURVE",
"335 450 OFFCURVE",
"367 398 OFFCURVE",
"397 340 CURVE SMOOTH",
"433 269 OFFCURVE",
"466 187 OFFCURVE",
"466 154 CURVE SMOOTH",
"466 111 OFFCURVE",
"421 60 OFFCURVE",
"354 60 CURVE SMOOTH"
);
},
{
closed = 1;
nodes = (
"521 400 LINE",
"594 462 LINE",
"602 462 LINE",
"674 400 LINE",
"674 393 LINE",
"521 393 LINE"
);
}
);
width = 828;
}
);
},
{
glyphname = Ni;
lastChange = "2017-07-03 19:48:37 +0000";
layers = (
{
layerId = UUID0;
paths = (
{
closed = 1;
nodes = (
"341 5 OFFCURVE",
"420 86 OFFCURVE",
"420 178 CURVE SMOOTH",
"420 281 OFFCURVE",
"330 331 OFFCURVE",
"250 331 CURVE SMOOTH",
"182 331 OFFCURVE",
"118 290 OFFCURVE",
"81 258 CURVE",
"103 203 LINE",
"139 233 OFFCURVE",
"179 255 OFFCURVE",
"234 255 CURVE SMOOTH",
"290 255 OFFCURVE",
"336 235 OFFCURVE",
"336 185 CURVE SMOOTH",
"336 103 OFFCURVE",
"213 73 OFFCURVE",
"177 73 CURVE",
"207 45 OFFCURVE",
"224 18 OFFCURVE",
"232 -10 CURVE"
);
},
{
closed = 1;
nodes = (
"294 306 OFFCURVE",
"300 339 OFFCURVE",
"300 356 CURVE SMOOTH",
"300 380 OFFCURVE",
"290 408 OFFCURVE",
"270 431 CURVE",
"160 413 LINE",
"197 403 OFFCURVE",
"211 382 OFFCURVE",
"211 360 CURVE SMOOTH",
"211 346 OFFCURVE",
"205 324 OFFCURVE",
"195 306 CURVE",
"283 290 LINE"
);
},
{
closed = 1;
nodes = (
"165 448 LINE",
"238 510 LINE",
"246 510 LINE",
"318 448 LINE",
"318 441 LINE",
"165 441 LINE"
);
},
{
closed = 1;
nodes = (
"452 388 LINE",
"452 410 LINE",
"251 577 LINE",
"231 577 LINE",
"41 410 LINE",
"41 388 LINE"
);
}
);
width = 501;
}
);
},
{
glyphname = Phi_bhks;
lastChange = "2017-07-03 19:48:37 +0000";
layers = (
{
layerId = UUID0;
paths = (
{
closed = 1;
nodes = (
"547 -10 OFFCURVE",
"683 144 OFFCURVE",
"683 167 CURVE SMOOTH",
"683 206 OFFCURVE",
"620 275 OFFCURVE",
"572 312 CURVE",
"552 289 OFFCURVE",
"525 271 OFFCURVE",
"486 256 CURVE",
"528 245 OFFCURVE",
"600 190 OFFCURVE",
"600 142 CURVE SMOOTH",
"600 124 OFFCURVE",
"543 60 OFFCURVE",
"505 60 CURVE SMOOTH",
"460 60 OFFCURVE",
"392 165 OFFCURVE",
"369 165 CURVE SMOOTH",
"354 165 OFFCURVE",
"280 103 OFFCURVE",
"253 103 CURVE SMOOTH",
"231 103 OFFCURVE",
"175 160 OFFCURVE",
"171 217 CURVE",
"214 244 OFFCURVE",
"291 292 OFFCURVE",
"291 345 CURVE SMOOTH",
"291 357 OFFCURVE",
"287 372 OFFCURVE",
"279 388 CURVE",
"431 388 LINE",
"431 410 LINE",
"230 577 LINE",
"210 577 LINE",
"20 410 LINE",
"20 388 LINE",
"179 388 LINE",
"200 377 OFFCURVE",
"209 361 OFFCURVE",
"209 345 CURVE SMOOTH",
"209 287 OFFCURVE",
"105 237 OFFCURVE",
"57 216 CURVE",
"65 178 LINE",
"77 182 OFFCURVE",
"88 186 OFFCURVE",
"97 191 CURVE",
"108 143 OFFCURVE",
"147 33 OFFCURVE",
"244 33 CURVE SMOOTH",
"266 33 OFFCURVE",
"327 89 OFFCURVE",
"345 89 CURVE SMOOTH",
"358 89 OFFCURVE",
"430 -10 OFFCURVE",
"484 -10 CURVE SMOOTH"
);
},
{
closed = 1;
nodes = (
"144 448 LINE",
"217 510 LINE",
"225 510 LINE",
"297 448 LINE",
"297 441 LINE",
"144 441 LINE"
);
}
);
width = 723;
}
);
},
{
glyphname = Bi;
lastChange = "2017-07-03 19:48:37 +0000";
layers = (
{
layerId = UUID0;
paths = (
{
closed = 1;
nodes = (
"547 -10 OFFCURVE",
"645 127 OFFCURVE",
"645 176 CURVE SMOOTH",
"645 253 OFFCURVE",
"614 340 OFFCURVE",
"581 388 CURVE",
"711 388 LINE",
"711 410 LINE",
"510 577 LINE",
"490 577 LINE",
"333 439 LINE",
"205 560 LINE",
"183 560 LINE",
"20 408 LINE",
"20 388 LINE",
"192 388 LINE",
"203 364 OFFCURVE",
"208 334 OFFCURVE",
"208 303 CURVE SMOOTH",
"208 237 OFFCURVE",
"142 202 OFFCURVE",
"98 187 CURVE",
"113 141 LINE",
"128 144 OFFCURVE",
"143 149 OFFCURVE",
"157 154 CURVE",
"204 63 OFFCURVE",
"314 -10 OFFCURVE",
"443 -10 CURVE SMOOTH"
);
},
{
closed = 1;
nodes = (
"355 60 OFFCURVE",
"270 122 OFFCURVE",
"236 202 CURVE",
"270 232 OFFCURVE",
"292 268 OFFCURVE",
"292 303 CURVE SMOOTH",
"292 335 OFFCURVE",
"286 364 OFFCURVE",
"277 388 CURVE",
"492 388 LINE",
"537 337 OFFCURVE",
"563 228 OFFCURVE",
"563 164 CURVE SMOOTH",
"563 121 OFFCURVE",
"518 60 OFFCURVE",
"451 60 CURVE SMOOTH"
);
},
{
closed = 1;
nodes = (
"424 448 LINE",
"497 510 LINE",
"505 510 LINE",
"577 448 LINE",
"577 441 LINE",
"424 441 LINE"
);
}
);
width = 726;
}
);
},
{
glyphname = Bhi;
lastChange = "2017-07-03 19:48:37 +0000";
layers = (
{
layerId = UUID0;
paths = (
{
closed = 1;
nodes = (
"446 -33 OFFCURVE",
"497 25 OFFCURVE",
"497 81 CURVE SMOOTH",
"497 172 OFFCURVE",
"368 277 OFFCURVE",
"315 339 CURVE",
"314 351 OFFCURVE",
"311 370 OFFCURVE",
"305 388 CURVE",
"472 388 LINE",
"472 410 LINE",
"271 577 LINE",
"251 577 LINE",
"61 410 LINE",
"61 388 LINE",
"217 388 LINE",
"228 370 OFFCURVE",
"233 347 OFFCURVE",
"233 335 CURVE SMOOTH",
"233 262 OFFCURVE",
"97 219 OFFCURVE",
"20 196 CURVE",
"28 158 LINE",
"45 160 OFFCURVE",
"63 163 OFFCURVE",
"83 168 CURVE",
"92 91 OFFCURVE",
"157 27 OFFCURVE",
"213 27 CURVE SMOOTH",
"252 27 OFFCURVE",
"376 93 OFFCURVE",
"395 149 CURVE",
"408 125 OFFCURVE",
"413 105 OFFCURVE",
"413 92 CURVE SMOOTH",
"413 52 OFFCURVE",
"363 26 OFFCURVE",
"317 12 CURVE",
"348 -16 OFFCURVE",
"365 -42 OFFCURVE",
"374 -68 CURVE"
);
},
{
closed = 1;
nodes = (
"204 97 OFFCURVE",
"164 144 OFFCURVE",
"155 191 CURVE",
"206 211 OFFCURVE",
"255 238 OFFCURVE",
"285 270 CURVE",
"322 225 OFFCURVE",
"325 176 OFFCURVE",
"325 155 CURVE SMOOTH",
"325 113 OFFCURVE",
"255 97 OFFCURVE",
"231 97 CURVE SMOOTH"
);
},
{
closed = 1;
nodes = (
"185 448 LINE",
"258 510 LINE",
"266 510 LINE",
"338 448 LINE",
"338 441 LINE",
"185 441 LINE"
);
}
);
width = 537;
}
);
},
{
glyphname = Mi;
lastChange = "2017-07-03 19:48:37 +0000";
layers = (
{
layerId = UUID0;
paths = (
{
closed = 1;
nodes = (
"275 -10 OFFCURVE",
"402 83 OFFCURVE",
"402 159 CURVE SMOOTH",
"402 164 OFFCURVE",
"401 169 OFFCURVE",
"401 174 CURVE",
"410 173 OFFCURVE",
"419 173 OFFCURVE",
"429 173 CURVE SMOOTH",
"518 173 OFFCURVE",
"597 265 OFFCURVE",
"597 310 CURVE SMOOTH",
"597 334 OFFCURVE",
"591 362 OFFCURVE",
"582 388 CURVE",
"722 388 LINE",
"722 410 LINE",
"521 577 LINE",
"501 577 LINE",
"348 443 LINE",
"225 560 LINE",
"203 560 LINE",
"40 408 LINE",
"40 388 LINE",
"179 388 LINE",
"184 381 OFFCURVE",
"187 373 OFFCURVE",
"187 364 CURVE SMOOTH",
"187 352 OFFCURVE",
"183 336 OFFCURVE",
"176 320 CURVE",
"117 294 OFFCURVE",
"43 216 OFFCURVE",
"43 172 CURVE SMOOTH",
"43 97 OFFCURVE",
"142 -10 OFFCURVE",
"201 -10 CURVE SMOOTH"
);
},
{
closed = 1;
nodes = (
"186 60 OFFCURVE",
"125 140 OFFCURVE",
"125 183 CURVE SMOOTH",
"125 198 OFFCURVE",
"160 259 OFFCURVE",
"204 259 CURVE SMOOTH",
"241 259 OFFCURVE",
"320 223 OFFCURVE",
"320 153 CURVE SMOOTH",
"320 101 OFFCURVE",
"250 60 OFFCURVE",
"218 60 CURVE SMOOTH"
);
},
{
closed = 1;
nodes = (
"413 243 OFFCURVE",
"386 252 OFFCURVE",
"357 271 CURVE",
"330 298 OFFCURVE",
"294 313 OFFCURVE",
"263 321 CURVE",
"266 335 OFFCURVE",
"269 350 OFFCURVE",
"269 360 CURVE SMOOTH",
"269 369 OFFCURVE",
"267 378 OFFCURVE",
"264 388 CURVE",
"495 388 LINE",
"506 355 OFFCURVE",
"515 321 OFFCURVE",
"515 295 CURVE SMOOTH",
"515 250 OFFCURVE",
"467 243 OFFCURVE",
"443 243 CURVE SMOOTH"
);
},
{
closed = 1;
nodes = (
"435 448 LINE",
"508 510 LINE",
"516 510 LINE",
"588 448 LINE",
"588 441 LINE",
"435 441 LINE"
);
}
);
width = 736;
}
);
},
{
glyphname = Yi;
lastChange = "2017-07-03 19:48:37 +0000";
layers = (
{
layerId = UUID0;
paths = (
{
closed = 1;
nodes = (
"726 -10 OFFCURVE",
"804 127 OFFCURVE",
"804 176 CURVE SMOOTH",
"804 235 OFFCURVE",
"790 326 OFFCURVE",
"766 388 CURVE",
"912 388 LINE",
"912 410 LINE",
"711 577 LINE",
"691 577 LINE",
"538 443 LINE",
"415 560 LINE",
"393 560 LINE",
"230 408 LINE",
"230 388 LINE",
"365 388 LINE",
"368 313 OFFCURVE",
"377 251 OFFCURVE",
"391 199 CURVE",
"366 181 OFFCURVE",
"334 168 OFFCURVE",
"304 168 CURVE SMOOTH",
"161 168 OFFCURVE",
"130 305 OFFCURVE",
"130 407 CURVE SMOOTH",
"130 457 OFFCURVE",
"144 525 OFFCURVE",
"191 562 CURVE",
"153 584 OFFCURVE",
"121 605 OFFCURVE",
"96 628 CURVE",
"69 601 OFFCURVE",
"40 528 OFFCURVE",
"40 442 CURVE SMOOTH",
"40 376 OFFCURVE",
"49 98 OFFCURVE",
"296 98 CURVE SMOOTH",
"332 98 OFFCURVE",
"374 117 OFFCURVE",
"409 143 CURVE",
"453 34 OFFCURVE",
"527 -10 OFFCURVE",
"622 -10 CURVE SMOOTH"
);
},
{
closed = 1;
nodes = (
"511 60 OFFCURVE",
"454 183 OFFCURVE",
"447 388 CURVE",
"680 388 LINE",
"711 325 OFFCURVE",
"722 219 OFFCURVE",
"722 164 CURVE SMOOTH",
"722 121 OFFCURVE",
"697 60 OFFCURVE",
"630 60 CURVE SMOOTH"
);
},
{
closed = 1;
nodes = (
"625 448 LINE",
"698 510 LINE",
"706 510 LINE",
"778 448 LINE",
"778 441 LINE",
"625 441 LINE"
);
}
);
width = 932;
}
);
},
{
glyphname = Ri;
lastChange = "2017-07-03 19:48:37 +0000";
layers = (
{
layerId = UUID0;
paths = (
{
closed = 1;
nodes = (
"371 -10 OFFCURVE",
"459 127 OFFCURVE",
"459 176 CURVE SMOOTH",
"459 251 OFFCURVE",
"422 339 OFFCURVE",
"388 388 CURVE",
"523 388 LINE",
"523 410 LINE",
"322 577 LINE",
"302 577 LINE",
"112 410 LINE",
"112 388 LINE",
"299 388 LINE",
"344 335 OFFCURVE",
"377 226 OFFCURVE",
"377 164 CURVE SMOOTH",
"377 121 OFFCURVE",
"342 60 OFFCURVE",
"275 60 CURVE SMOOTH",
"204 60 OFFCURVE",
"128 136 OFFCURVE",
"102 227 CURVE",
"85 208 OFFCURVE",
"58 193 OFFCURVE",
"20 182 CURVE",
"58 79 OFFCURVE",
"157 -10 OFFCURVE",
"267 -10 CURVE SMOOTH"
);
},
{
closed = 1;
nodes = (
"236 448 LINE",
"309 510 LINE",
"317 510 LINE",
"389 448 LINE",
"389 441 LINE",
"236 441 LINE"
);
}
);
width = 548;
}
);
},
{
glyphname = Li;
lastChange = "2017-07-03 19:48:37 +0000";
layers = (
{
layerId = UUID0;
paths = (
{
closed = 1;
nodes = (
"326 -10 OFFCURVE",
"402 34 OFFCURVE",
"437 61 CURVE",
"415 88 LINE",
"380 72 OFFCURVE",
"312 60 OFFCURVE",
"244 60 CURVE SMOOTH",
"163 60 OFFCURVE",
"122 131 OFFCURVE",
"122 154 CURVE SMOOTH",
"122 202 OFFCURVE",
"161 236 OFFCURVE",
"197 236 CURVE SMOOTH",
"281 236 OFFCURVE",
"337 190 OFFCURVE",
"377 156 CURVE",
"396 163 OFFCURVE",
"442 204 OFFCURVE",
"448 227 CURVE",
"448 246 OFFCURVE",
"435 290 OFFCURVE",
"415 340 CURVE",
"748 340 LINE",
"748 362 LINE",
"547 529 LINE",
"527 529 LINE",
"387 406 LINE",
"359 467 OFFCURVE",
"325 527 OFFCURVE",
"295 560 CURVE",
"268 560 LINE",
"173 520 OFFCURVE",
"91 463 OFFCURVE",
"86 432 CURVE",
"122 421 OFFCURVE",
"153 403 OFFCURVE",
"181 379 CURVE",
"193 414 OFFCURVE",
"217 458 OFFCURVE",
"257 487 CURVE",
"273 477 OFFCURVE",
"360 310 OFFCURVE",
"366 238 CURVE",
"325 287 OFFCURVE",
"248 305 OFFCURVE",
"211 305 CURVE SMOOTH",
"128 305 OFFCURVE",
"40 190 OFFCURVE",
"40 143 CURVE SMOOTH",
"40 64 OFFCURVE",
"135 -10 OFFCURVE",
"242 -10 CURVE SMOOTH"
);
},
{
closed = 1;
nodes = (
"461 400 LINE",
"534 462 LINE",
"542 462 LINE",
"614 400 LINE",
"614 393 LINE",
"461 393 LINE"
);
}
);
width = 768;
}
);
},
{
glyphname = Vi;
lastChange = "2017-07-03 19:48:37 +0000";
layers = (
{
layerId = UUID0;
paths = (
{
closed = 1;
nodes = (
"314 -10 OFFCURVE",
"458 99 OFFCURVE",
"458 146 CURVE SMOOTH",
"458 205 OFFCURVE",
"384 290 OFFCURVE",
"313 316 CURVE",
"311 326 OFFCURVE",
"310 335 OFFCURVE",
"310 340 CURVE SMOOTH",
"310 353 OFFCURVE",
"314 373 OFFCURVE",
"326 388 CURVE",
"503 388 LINE",
"503 410 LINE",
"302 577 LINE",
"282 577 LINE",
"92 410 LINE",
"92 388 LINE",
"242 388 LINE",
"232 370 OFFCURVE",
"228 352 OFFCURVE",
"228 336 CURVE SMOOTH",
"228 331 OFFCURVE",
"228 325 OFFCURVE",
"229 318 CURVE",
"149 294 OFFCURVE",
"40 217 OFFCURVE",
"40 169 CURVE SMOOTH",
"40 79 OFFCURVE",
"164 -10 OFFCURVE",
"251 -10 CURVE SMOOTH"
);
},
{
closed = 1;
nodes = (
"214 60 OFFCURVE",
"122 124 OFFCURVE",
"122 174 CURVE SMOOTH",
"122 216 OFFCURVE",
"210 256 OFFCURVE",
"257 256 CURVE SMOOTH",
"299 256 OFFCURVE",
"376 174 OFFCURVE",
"376 141 CURVE SMOOTH",
"376 114 OFFCURVE",
"303 60 OFFCURVE",
"253 60 CURVE SMOOTH"
);
},
{
closed = 1;
nodes = (
"216 448 LINE",
"289 510 LINE",
"297 510 LINE",
"369 448 LINE",
"369 441 LINE",
"216 441 LINE"
);
}
);
width = 543;
}
);
},
{
glyphname = Shi;
lastChange = "2017-07-03 19:48:37 +0000";
layers = (
{
layerId = UUID0;
paths = (
{
closed = 1;
nodes = (
"503 -10 OFFCURVE",
"598 130 OFFCURVE",
"598 166 CURVE SMOOTH",
"598 211 OFFCURVE",
"573 273 OFFCURVE",
"536 340 CURVE",
"855 340 LINE",
"855 362 LINE",
"654 529 LINE",
"634 529 LINE",
"496 408 LINE",
"467 454 OFFCURVE",
"435 501 OFFCURVE",
"404 545 CURVE",
"382 545 LINE",
"350 529 OFFCURVE",
"244 463 OFFCURVE",
"159 409 CURVE SMOOTH",
"98 370 OFFCURVE",
"40 318 OFFCURVE",
"40 299 CURVE SMOOTH",
"40 273 OFFCURVE",
"73 222 OFFCURVE",
"112 197 CURVE",
"137 226 OFFCURVE",
"163 245 OFFCURVE",
"193 266 CURVE",
"165 281 OFFCURVE",
"144 296 OFFCURVE",
"144 315 CURVE SMOOTH",
"144 349 OFFCURVE",
"268 409 OFFCURVE",
"359 462 CURVE",
"398 435 OFFCURVE",
"516 215 OFFCURVE",
"516 154 CURVE SMOOTH",
"516 111 OFFCURVE",
"474 60 OFFCURVE",
"407 60 CURVE SMOOTH",
"393 60 OFFCURVE",
"377 65 OFFCURVE",
"365 68 CURVE",
"355 -7 LINE",
"368 -9 OFFCURVE",
"385 -10 OFFCURVE",
"399 -10 CURVE SMOOTH"
);
},
{
closed = 1;
nodes = (
"351 192 OFFCURVE",
"378 204 OFFCURVE",
"403 212 CURVE",
"392 264 OFFCURVE",
"348 328 OFFCURVE",
"313 346 CURVE",
"284 339 OFFCURVE",
"259 325 OFFCURVE",
"233 307 CURVE",
"260 290 OFFCURVE",
"317 203 OFFCURVE",
"324 173 CURVE"
);
},
{
closed = 1;
nodes = (
"568 400 LINE",
"641 462 LINE",
"649 462 LINE",
"721 400 LINE",
"721 393 LINE",
"568 393 LINE"
);
}
);
width = 875;
}
);
},
{
glyphname = Ssi;
lastChange = "2017-07-03 19:48:37 +0000";
layers = (
{
layerId = UUID0;
paths = (
{
closed = 1;
nodes = (
"507 -10 OFFCURVE",
"625 127 OFFCURVE",
"625 176 CURVE SMOOTH",
"625 214 OFFCURVE",
"571 265 OFFCURVE",
"528 296 CURVE",
"555 320 OFFCURVE",
"574 345 OFFCURVE",
"574 365 CURVE SMOOTH",
"574 372 OFFCURVE",
"572 380 OFFCURVE",
"569 388 CURVE",
"719 388 LINE",
"719 410 LINE",
"518 577 LINE",
"498 577 LINE",
"337 435 LINE",
"205 560 LINE",
"183 560 LINE",
"20 408 LINE",
"20 388 LINE",
"170 388 LINE",
"185 376 OFFCURVE",
"192 359 OFFCURVE",
"192 345 CURVE SMOOTH",
"192 275 OFFCURVE",
"82 212 OFFCURVE",
"48 199 CURVE",
"56 161 LINE",
"69 163 OFFCURVE",
"93 173 OFFCURVE",
"121 187 CURVE",
"167 89 OFFCURVE",
"304 -10 OFFCURVE",
"403 -10 CURVE SMOOTH"
);
},
{
closed = 1;
nodes = (
"343 60 OFFCURVE",
"228 146 OFFCURVE",
"193 232 CURVE",
"237 265 OFFCURVE",
"274 306 OFFCURVE",
"274 345 CURVE SMOOTH",
"274 358 OFFCURVE",
"269 373 OFFCURVE",
"260 388 CURVE",
"486 388 LINE",
"490 379 OFFCURVE",
"492 369 OFFCURVE",
"492 359 CURVE SMOOTH",
"492 329 OFFCURVE",
"457 296 OFFCURVE",
"418 267 CURVE",
"440 234 LINE",
"448 238 OFFCURVE",
"455 243 OFFCURVE",
"463 248 CURVE",
"497 224 OFFCURVE",
"543 189 OFFCURVE",
"543 164 CURVE SMOOTH",
"543 121 OFFCURVE",
"478 60 OFFCURVE",
"411 60 CURVE SMOOTH"
);
},
{
closed = 1;
nodes = (
"432 448 LINE",
"505 510 LINE",
"513 510 LINE",
"585 448 LINE",
"585 441 LINE",
"432 441 LINE"
);
}
);
width = 734;
}
);
leftMetricsKey = Si;
rightMetricsKey = Si;
},
{
glyphname = Si;
lastChange = "2017-07-03 19:48:37 +0000";
layers = (
{
layerId = UUID0;
paths = (
{
closed = 1;
nodes = (
"587 -10 OFFCURVE",
"676 123 OFFCURVE",
"676 172 CURVE SMOOTH",
"676 210 OFFCURVE",
"657 313 OFFCURVE",
"615 388 CURVE",
"761 388 LINE",
"761 410 LINE",
"560 577 LINE",
"540 577 LINE",
"388 443 LINE",
"265 560 LINE",
"243 560 LINE",
"80 408 LINE",
"80 388 LINE",
"198 388 LINE",
"223 373 OFFCURVE",
"233 335 OFFCURVE",
"233 318 CURVE SMOOTH",
"233 245 OFFCURVE",
"97 202 OFFCURVE",
"20 179 CURVE",
"28 141 LINE",
"45 143 OFFCURVE",
"63 146 OFFCURVE",
"83 151 CURVE",
"92 74 OFFCURVE",
"157 10 OFFCURVE",
"213 10 CURVE SMOOTH",
"247 10 OFFCURVE",
"304 46 OFFCURVE",
"344 87 CURVE",
"379 39 OFFCURVE",
"430 -10 OFFCURVE",
"483 -10 CURVE SMOOTH"
);
},
{
closed = 1;
nodes = (
"204 80 OFFCURVE",
"164 127 OFFCURVE",
"155 174 CURVE",
"199 191 OFFCURVE",
"241 213 OFFCURVE",
"271 240 CURVE",
"309 201 OFFCURVE",
"315 179 OFFCURVE",
"315 158 CURVE SMOOTH",
"315 116 OFFCURVE",
"255 80 OFFCURVE",
"231 80 CURVE SMOOTH"
);
},
{
closed = 1;
nodes = (
"460 60 OFFCURVE",
"411 103 OFFCURVE",
"388 170 CURVE",
"387 206 OFFCURVE",
"374 264 OFFCURVE",
"315 322 CURVE",
"314 338 OFFCURVE",
"308 367 OFFCURVE",
"296 388 CURVE",
"518 388 LINE",
"584 304 OFFCURVE",
"594 187 OFFCURVE",
"594 160 CURVE SMOOTH",
"594 117 OFFCURVE",
"558 60 OFFCURVE",
"491 60 CURVE SMOOTH"
);
},
{
closed = 1;
nodes = (
"474 448 LINE",
"547 510 LINE",
"555 510 LINE",
"627 448 LINE",
"627 441 LINE",
"474 441 LINE"
);
}
);
width = 776;
}
);
},
{
glyphname = Hi;
lastChange = "2017-07-03 19:48:37 +0000";
layers = (
{
layerId = UUID0;
paths = (
{
closed = 1;
nodes = (
"463 5 OFFCURVE",
"545 69 OFFCURVE",
"545 93 CURVE SMOOTH",
"545 115 OFFCURVE",
"417 232 OFFCURVE",
"396 232 CURVE SMOOTH",
"370 232 OFFCURVE",
"235 156 OFFCURVE",
"218 156 CURVE SMOOTH",
"197 156 OFFCURVE",
"140 205 OFFCURVE",
"140 224 CURVE SMOOTH",
"140 244 OFFCURVE",
"327 302 OFFCURVE",
"327 345 CURVE SMOOTH",
"327 357 OFFCURVE",
"323 372 OFFCURVE",
"320 388 CURVE",
"467 388 LINE",
"467 410 LINE",
"266 577 LINE",
"246 577 LINE",
"56 410 LINE",
"56 388 LINE",
"230 388 LINE",
"233 374 OFFCURVE",
"235 359 OFFCURVE",
"235 348 CURVE SMOOTH",
"235 318 OFFCURVE",
"54 242 OFFCURVE",
"20 231 CURVE",
"25 196 LINE",
"38 197 OFFCURVE",
"52 201 OFFCURVE",
"65 205 CURVE",
"65 180 OFFCURVE",
"138 86 OFFCURVE",
"199 86 CURVE SMOOTH",
"215 86 OFFCURVE",
"349 159 OFFCURVE",
"371 159 CURVE SMOOTH",
"386 159 OFFCURVE",
"436 115 OFFCURVE",
"436 103 CURVE SMOOTH",
"436 90 OFFCURVE",
"379 68 OFFCURVE",
"354 61 CURVE",
"376 45 OFFCURVE",
"398 17 OFFCURVE",
"415 -13 CURVE"
);
},
{
closed = 1;
nodes = (
"180 448 LINE",
"253 510 LINE",
"261 510 LINE",
"333 448 LINE",
"333 441 LINE",
"180 441 LINE"
);
}
);
width = 585;
}
);
},
{
glyphname = Rtta;
lastChange = "2017-07-03 19:48:37 +0000";
layers = (
{
layerId = UUID0;
paths = (
{
closed = 1;
nodes = (
"330 13 OFFCURVE",
"433 54 OFFCURVE",
"433 116 CURVE SMOOTH",
"433 181 OFFCURVE",
"354 335 OFFCURVE",
"308 388 CURVE",
"461 388 LINE",
"461 410 LINE",
"280 550 LINE",
"461 550 LINE",
"461 572 LINE",
"267 722 LINE",
"245 722 LINE",
"40 572 LINE",
"40 550 LINE",
"231 550 LINE",
"40 410 LINE",
"40 388 LINE",
"226 388 LINE",
"169 362 OFFCURVE",
"79 318 OFFCURVE",
"79 276 CURVE SMOOTH",
"79 257 OFFCURVE",
"87 234 OFFCURVE",
"109 209 CURVE",
"133 235 OFFCURVE",
"160 254 OFFCURVE",
"190 267 CURVE",
"180 276 OFFCURVE",
"170 289 OFFCURVE",
"170 297 CURVE SMOOTH",
"170 311 OFFCURVE",
"213 332 OFFCURVE",
"241 342 CURVE",
"262 332 OFFCURVE",
"282 304 OFFCURVE",
"282 279 CURVE SMOOTH",
"282 260 OFFCURVE",
"221 217 OFFCURVE",
"160 189 CURVE",
"172 174 OFFCURVE",
"182 152 OFFCURVE",
"189 129 CURVE",
"250 158 OFFCURVE",
"293 183 OFFCURVE",
"322 206 CURVE",
"338 174 OFFCURVE",
"353 139 OFFCURVE",
"353 128 CURVE SMOOTH",
"353 100 OFFCURVE",
"231 72 OFFCURVE",
"186 70 CURVE",
"203 46 OFFCURVE",
"213 22 OFFCURVE",
"222 -10 CURVE"
);
}
);
width = 501;
}
);
},
{
glyphname = Rtti;
lastChange = "2017-07-03 19:48:37 +0000";
layers = (
{
layerId = UUID0;
paths = (
{
closed = 1;
nodes = (
"330 13 OFFCURVE",
"433 54 OFFCURVE",
"433 116 CURVE SMOOTH",
"433 181 OFFCURVE",
"354 335 OFFCURVE",
"308 388 CURVE",
"461 388 LINE",
"461 410 LINE",
"280 550 LINE",
"456 550 LINE",
"456 572 LINE",
"255 739 LINE",
"235 739 LINE",
"45 572 LINE",
"45 550 LINE",
"231 550 LINE",
"40 410 LINE",
"40 388 LINE",
"226 388 LINE",
"169 362 OFFCURVE",
"79 318 OFFCURVE",
"79 276 CURVE SMOOTH",
"79 257 OFFCURVE",
"87 234 OFFCURVE",
"109 209 CURVE",
"133 235 OFFCURVE",
"160 254 OFFCURVE",
"190 267 CURVE",
"180 276 OFFCURVE",
"170 289 OFFCURVE",
"170 297 CURVE SMOOTH",
"170 311 OFFCURVE",
"213 332 OFFCURVE",
"241 342 CURVE",
"262 332 OFFCURVE",
"282 304 OFFCURVE",
"282 279 CURVE SMOOTH",
"282 260 OFFCURVE",
"221 217 OFFCURVE",
"160 189 CURVE",
"172 174 OFFCURVE",
"182 152 OFFCURVE",
"189 129 CURVE",
"250 158 OFFCURVE",
"293 183 OFFCURVE",
"322 206 CURVE",
"338 174 OFFCURVE",
"353 139 OFFCURVE",
"353 128 CURVE SMOOTH",
"353 100 OFFCURVE",
"231 72 OFFCURVE",
"186 70 CURVE",
"203 46 OFFCURVE",
"213 22 OFFCURVE",
"222 -10 CURVE"
);
},
{
closed = 1;
nodes = (
"169 610 LINE",
"242 672 LINE",
"250 672 LINE",
"322 610 LINE",
"322 603 LINE",
"169 603 LINE"
);
}
);
width = 501;
}
);
},
{
glyphname = Rya;
lastChange = "2017-07-03 19:48:37 +0000";
layers = (
{
layerId = UUID0;
paths = (
{
closed = 1;
nodes = (
"726 -10 OFFCURVE",
"804 127 OFFCURVE",
"804 176 CURVE SMOOTH",
"804 235 OFFCURVE",
"791 325 OFFCURVE",
"766 388 CURVE",
"886 388 LINE",
"886 408 LINE",
"735 550 LINE",
"886 550 LINE",
"886 570 LINE",
"725 722 LINE",
"703 722 LINE",
"540 570 LINE",
"540 550 LINE",
"692 550 LINE",
"558 425 LINE",
"415 560 LINE",
"393 560 LINE",
"230 408 LINE",
"230 388 LINE",
"365 388 LINE",
"368 313 OFFCURVE",
"377 251 OFFCURVE",
"391 199 CURVE",
"366 181 OFFCURVE",
"334 168 OFFCURVE",
"304 168 CURVE SMOOTH",
"161 168 OFFCURVE",
"130 305 OFFCURVE",
"130 407 CURVE SMOOTH",
"130 457 OFFCURVE",
"144 525 OFFCURVE",
"191 562 CURVE",
"153 584 OFFCURVE",
"121 605 OFFCURVE",
"96 628 CURVE",
"69 601 OFFCURVE",
"40 528 OFFCURVE",
"40 442 CURVE SMOOTH",
"40 376 OFFCURVE",
"49 98 OFFCURVE",
"296 98 CURVE SMOOTH",
"332 98 OFFCURVE",
"374 117 OFFCURVE",
"409 143 CURVE",
"453 34 OFFCURVE",
"527 -10 OFFCURVE",
"622 -10 CURVE SMOOTH"
);
},
{
closed = 1;
nodes = (
"511 60 OFFCURVE",
"454 183 OFFCURVE",
"447 388 CURVE",
"680 388 LINE",
"711 325 OFFCURVE",
"722 219 OFFCURVE",
"722 164 CURVE SMOOTH",
"722 121 OFFCURVE",
"697 60 OFFCURVE",
"630 60 CURVE SMOOTH"
);
}
);
width = 926;
}
);
},
{
glyphname = Ryi;
lastChange = "2017-07-03 19:48:37 +0000";
layers = (
{
layerId = UUID0;
paths = (
{
closed = 1;
nodes = (
"726 -10 OFFCURVE",
"804 127 OFFCURVE",
"804 176 CURVE SMOOTH",
"804 235 OFFCURVE",
"791 325 OFFCURVE",
"766 388 CURVE",
"886 388 LINE",
"886 408 LINE",
"735 550 LINE",
"916 550 LINE",
"916 572 LINE",
"715 739 LINE",
"695 739 LINE",
"505 572 LINE",
"505 550 LINE",
"692 550 LINE",
"558 425 LINE",
"415 560 LINE",
"393 560 LINE",
"230 408 LINE",
"230 388 LINE",
"365 388 LINE",
"368 313 OFFCURVE",
"377 251 OFFCURVE",
"391 199 CURVE",
"366 181 OFFCURVE",
"334 168 OFFCURVE",
"304 168 CURVE SMOOTH",
"161 168 OFFCURVE",
"130 305 OFFCURVE",
"130 407 CURVE SMOOTH",
"130 457 OFFCURVE",
"144 525 OFFCURVE",
"191 562 CURVE",
"153 584 OFFCURVE",
"121 605 OFFCURVE",
"96 628 CURVE",
"69 601 OFFCURVE",
"40 528 OFFCURVE",
"40 442 CURVE SMOOTH",
"40 376 OFFCURVE",
"49 98 OFFCURVE",
"296 98 CURVE SMOOTH",
"332 98 OFFCURVE",
"374 117 OFFCURVE",
"409 143 CURVE",
"453 34 OFFCURVE",
"527 -10 OFFCURVE",
"622 -10 CURVE SMOOTH"
);
},
{
closed = 1;
nodes = (
"511 60 OFFCURVE",
"454 183 OFFCURVE",
"447 388 CURVE",
"680 388 LINE",
"711 325 OFFCURVE",
"722 219 OFFCURVE",
"722 164 CURVE SMOOTH",
"722 121 OFFCURVE",
"697 60 OFFCURVE",
"630 60 CURVE SMOOTH"
);
},
{
closed = 1;
nodes = (
"629 610 LINE",
"702 672 LINE",
"710 672 LINE",
"782 610 LINE",
"782 603 LINE",
"629 603 LINE"
);
}
);
width = 926;
}
);
},
{
glyphname = Gii;
lastChange = "2017-07-03 19:48:37 +0000";
layers = (
{
layerId = UUID0;
paths = (
{
closed = 1;
nodes = (
"394 28 OFFCURVE",
"478 95 OFFCURVE",
"478 141 CURVE SMOOTH",
"478 147 OFFCURVE",
"456 237 OFFCURVE",
"416 340 CURVE",
"785 340 LINE",
"785 372 LINE",
"722 474 OFFCURVE",
"646 564 OFFCURVE",
"538 662 CURVE",
"516 662 LINE",
"361 537 LINE",
"380 512 LINE",
"507 602 LINE",
"599 519 OFFCURVE",
"656 448 OFFCURVE",
"702 380 CURVE",
"687 380 LINE",
"519 529 LINE",
"499 529 LINE",
"383 416 LINE",
"359 467 OFFCURVE",
"331 518 OFFCURVE",
"299 560 CURVE",
"277 560 LINE",
"221 532 OFFCURVE",
"40 409 OFFCURVE",
"40 352 CURVE SMOOTH",
"40 322 OFFCURVE",
"61 296 OFFCURVE",
"107 259 CURVE",
"133 285 OFFCURVE",
"161 306 OFFCURVE",
"193 322 CURVE",
"171 339 OFFCURVE",
"146 353 OFFCURVE",
"146 372 CURVE SMOOTH",
"146 391 OFFCURVE",
"177 435 OFFCURVE",
"254 477 CURVE",
"293 450 OFFCURVE",
"387 197 OFFCURVE",
"387 155 CURVE SMOOTH",
"387 132 OFFCURVE",
"318 98 OFFCURVE",
"258 73 CURVE",
"288 49 OFFCURVE",
"309 21 OFFCURVE",
"320 -14 CURVE"
);
},
{
closed = 1;
nodes = (
"438 400 LINE",
"506 462 LINE",
"514 462 LINE",
"583 400 LINE",
"583 393 LINE",
"438 393 LINE"
);
}
);
width = 805;
}
);
},
{
glyphname = Ngii;
lastChange = "2017-07-03 19:48:37 +0000";
layers = (
{
layerId = UUID0;
paths = (
{
closed = 1;
nodes = (
"483 5 OFFCURVE",
"565 69 OFFCURVE",
"565 93 CURVE SMOOTH",
"565 115 OFFCURVE",
"437 232 OFFCURVE",
"416 232 CURVE SMOOTH",
"390 232 OFFCURVE",
"255 156 OFFCURVE",
"238 156 CURVE SMOOTH",
"217 156 OFFCURVE",
"160 205 OFFCURVE",
"160 224 CURVE SMOOTH",
"160 244 OFFCURVE",
"347 302 OFFCURVE",
"347 345 CURVE SMOOTH",
"347 357 OFFCURVE",
"345 370 OFFCURVE",
"341 384 CURVE",
"488 384 LINE",
"488 406 LINE",
"462 426 LINE",
"567 495 LINE",
"605 468 OFFCURVE",
"649 422 OFFCURVE",
"649 409 CURVE SMOOTH",
"649 390 OFFCURVE",
"628 358 OFFCURVE",
"600 343 CURVE",
"630 322 OFFCURVE",
"633 316 OFFCURVE",
"658 287 CURVE",
"678 300 OFFCURVE",
"700 320 OFFCURVE",
"715 340 CURVE",
"1098 340 LINE",
"1098 372 LINE",
"1035 474 OFFCURVE",
"959 564 OFFCURVE",
"851 662 CURVE",
"829 662 LINE",
"674 537 LINE",
"693 512 LINE",
"820 602 LINE",
"912 519 OFFCURVE",
"969 448 OFFCURVE",
"1015 380 CURVE",
"1000 380 LINE",
"832 529 LINE",
"812 529 LINE",
"724 443 LINE",
"708 471 OFFCURVE",
"673 506 OFFCURVE",
"602 560 CURVE",
"579 560 LINE",
"430 452 LINE",
"294 560 LINE",
"272 560 LINE",
"67 406 LINE",
"67 384 LINE",
"250 384 LINE",
"253 371 OFFCURVE",
"255 358 OFFCURVE",
"255 348 CURVE SMOOTH",
"255 318 OFFCURVE",
"74 242 OFFCURVE",
"40 231 CURVE",
"45 196 LINE",
"58 197 OFFCURVE",
"72 201 OFFCURVE",
"85 205 CURVE",
"85 180 OFFCURVE",
"158 86 OFFCURVE",
"219 86 CURVE SMOOTH",
"235 86 OFFCURVE",
"369 159 OFFCURVE",
"391 159 CURVE SMOOTH",
"406 159 OFFCURVE",
"456 115 OFFCURVE",
"456 103 CURVE SMOOTH",
"456 90 OFFCURVE",
"399 68 OFFCURVE",
"374 61 CURVE",
"396 45 OFFCURVE",
"418 17 OFFCURVE",
"435 -13 CURVE"
);
},
{
closed = 1;
nodes = (
"751 400 LINE",
"819 462 LINE",
"827 462 LINE",
"896 400 LINE",
"896 393 LINE",
"751 393 LINE"
);
}
);
width = 1118;
}
);
},
{
glyphname = Nyii;
lastChange = "2017-07-03 19:48:37 +0000";
layers = (
{
layerId = UUID0;
paths = (
{
closed = 1;
nodes = (
"634 -6 OFFCURVE",
"679 -1 OFFCURVE",
"707 0 CURVE",
"701 63 OFFCURVE",
"631 296 OFFCURVE",
"597 388 CURVE",
"820 388 LINE",
"820 420 LINE",
"757 522 OFFCURVE",
"681 612 OFFCURVE",
"573 710 CURVE",
"551 710 LINE",
"396 585 LINE",
"415 560 LINE",
"542 650 LINE",
"634 567 OFFCURVE",
"691 496 OFFCURVE",
"737 428 CURVE",
"722 428 LINE",
"554 577 LINE",
"534 577 LINE",
"399 445 LINE",
"370 499 OFFCURVE",
"341 544 OFFCURVE",
"326 560 CURVE",
"308 560 LINE",
"180 497 OFFCURVE",
"40 405 OFFCURVE",
"40 374 CURVE SMOOTH",
"40 348 OFFCURVE",
"73 302 OFFCURVE",
"112 277 CURVE",
"137 306 OFFCURVE",
"163 325 OFFCURVE",
"193 346 CURVE",
"165 361 OFFCURVE",
"144 376 OFFCURVE",
"144 395 CURVE SMOOTH",
"144 408 OFFCURVE",
"239 467 OFFCURVE",
"283 487 CURVE",
"324 438 OFFCURVE",
"408 255 OFFCURVE",
"408 213 CURVE SMOOTH",
"408 193 OFFCURVE",
"349 130 OFFCURVE",
"309 130 CURVE SMOOTH",
"239 130 OFFCURVE",
"180 169 OFFCURVE",
"154 227 CURVE",
"133 202 OFFCURVE",
"109 181 OFFCURVE",
"82 166 CURVE",
"122 110 OFFCURVE",
"184 60 OFFCURVE",
"289 60 CURVE SMOOTH",
"362 60 OFFCURVE",
"490 179 OFFCURVE",
"490 223 CURVE SMOOTH",
"490 253 OFFCURVE",
"462 321 OFFCURVE",
"429 388 CURVE",
"531 388 LINE",
"562 290 OFFCURVE",
"610 35 OFFCURVE",
"610 -10 CURVE"
);
},
{
closed = 1;
nodes = (
"473 448 LINE",
"541 510 LINE",
"549 510 LINE",
"618 448 LINE",
"618 441 LINE",
"473 441 LINE"
);
}
);
width = 840;
}
);
},
{
glyphname = Ttii;
lastChange = "2017-07-03 19:48:37 +0000";
layers = (
{
layerId = UUID0;
paths = (
{
closed = 1;
nodes = (
"599 65 OFFCURVE",
"710 181 OFFCURVE",
"710 225 CURVE SMOOTH",
"710 251 OFFCURVE",
"696 294 OFFCURVE",
"676 340 CURVE",
"1052 340 LINE",
"1052 372 LINE",
"989 474 OFFCURVE",
"913 564 OFFCURVE",
"805 662 CURVE",
"783 662 LINE",
"628 537 LINE",
"647 512 LINE",
"774 602 LINE",
"866 519 OFFCURVE",
"923 448 OFFCURVE",
"969 380 CURVE",
"954 380 LINE",
"786 529 LINE",
"766 529 LINE",
"643 409 LINE",
"619 453 OFFCURVE",
"595 492 OFFCURVE",
"579 508 CURVE",
"561 508 LINE",
"505 480 OFFCURVE",
"424 405 OFFCURVE",
"408 405 CURVE SMOOTH",
"397 405 OFFCURVE",
"323 541 OFFCURVE",
"305 560 CURVE",
"287 560 LINE",
"159 497 OFFCURVE",
"40 339 OFFCURVE",
"40 308 CURVE SMOOTH",
"40 282 OFFCURVE",
"160 131 OFFCURVE",
"199 106 CURVE",
"261 183 LINE",
"233 198 OFFCURVE",
"122 284 OFFCURVE",
"122 329 CURVE SMOOTH",
"122 342 OFFCURVE",
"188 436 OFFCURVE",
"262 487 CURVE",
"276 452 OFFCURVE",
"348 319 OFFCURVE",
"371 319 CURVE SMOOTH",
"394 319 OFFCURVE",
"506 422 OFFCURVE",
"536 435 CURVE",
"577 386 OFFCURVE",
"628 257 OFFCURVE",
"628 215 CURVE SMOOTH",
"628 195 OFFCURVE",
"533 118 OFFCURVE",
"478 101 CURVE",
"515 30 LINE"
);
},
{
closed = 1;
nodes = (
"705 400 LINE",
"773 462 LINE",
"781 462 LINE",
"850 400 LINE",
"850 393 LINE",
"705 393 LINE"
);
}
);
width = 1072;
}
);
},
{
glyphname = Tthii;
lastChange = "2017-07-03 19:48:37 +0000";
layers = (
{
layerId = UUID0;
paths = (
{
closed = 1;
nodes = (
"455 95 OFFCURVE",
"600 241 OFFCURVE",
"600 290 CURVE SMOOTH",
"600 305 OFFCURVE",
"596 322 OFFCURVE",
"589 340 CURVE",
"959 340 LINE",
"959 372 LINE",
"896 474 OFFCURVE",
"820 564 OFFCURVE",
"712 662 CURVE",
"690 662 LINE",
"535 537 LINE",
"554 512 LINE",
"681 602 LINE",
"773 519 OFFCURVE",
"830 448 OFFCURVE",
"876 380 CURVE",
"861 380 LINE",
"693 529 LINE",
"673 529 LINE",
"551 410 LINE",
"509 470 OFFCURVE",
"446 528 OFFCURVE",
"388 550 CURVE",
"355 550 LINE",
"232 532 OFFCURVE",
"40 425 OFFCURVE",
"40 351 CURVE SMOOTH",
"40 273 OFFCURVE",
"113 95 OFFCURVE",
"351 95 CURVE SMOOTH"
);
},
{
closed = 1;
nodes = (
"216 165 OFFCURVE",
"122 250 OFFCURVE",
"122 352 CURVE SMOOTH",
"122 401 OFFCURVE",
"254 474 OFFCURVE",
"348 482 CURVE",
"415 470 OFFCURVE",
"518 353 OFFCURVE",
"518 281 CURVE SMOOTH",
"518 238 OFFCURVE",
"426 165 OFFCURVE",
"359 165 CURVE SMOOTH"
);
},
{
closed = 1;
nodes = (
"612 400 LINE",
"680 462 LINE",
"688 462 LINE",
"757 400 LINE",
"757 393 LINE",
"612 393 LINE"
);
}
);
width = 979;
}
);
},
{
glyphname = Nnii;
lastChange = "2017-07-03 19:48:37 +0000";
layers = (
{
layerId = UUID0;
paths = (
{
closed = 1;
nodes = (
"420 38 OFFCURVE",
"454 109 OFFCURVE",
"454 171 CURVE SMOOTH",
"454 193 OFFCURVE",
"427 272 OFFCURVE",
"318 291 CURVE",
"372 314 OFFCURVE",
"428 345 OFFCURVE",
"428 382 CURVE SMOOTH",
"428 393 OFFCURVE",
"421 408 OFFCURVE",
"411 425 CURVE",
"517 495 LINE",
"555 468 OFFCURVE",
"599 422 OFFCURVE",
"599 409 CURVE SMOOTH",
"599 390 OFFCURVE",
"578 358 OFFCURVE",
"550 343 CURVE",
"580 322 OFFCURVE",
"583 316 OFFCURVE",
"608 287 CURVE",
"628 300 OFFCURVE",
"650 320 OFFCURVE",
"665 340 CURVE",
"1048 340 LINE",
"1048 372 LINE",
"985 474 OFFCURVE",
"909 564 OFFCURVE",
"801 662 CURVE",
"779 662 LINE",
"624 537 LINE",
"643 512 LINE",
"770 602 LINE",
"862 519 OFFCURVE",
"919 448 OFFCURVE",
"965 380 CURVE",
"950 380 LINE",
"782 529 LINE",
"762 529 LINE",
"674 443 LINE",
"658 471 OFFCURVE",
"623 506 OFFCURVE",
"552 560 CURVE",
"529 560 LINE",
"387 457 LINE",
"354 498 OFFCURVE",
"308 541 OFFCURVE",
"279 560 CURVE",
"262 560 LINE",
"219 543 OFFCURVE",
"73 462 OFFCURVE",
"20 375 CURVE",
"60 366 OFFCURVE",
"95 353 OFFCURVE",
"122 331 CURVE",
"140 421 OFFCURVE",
"227 469 OFFCURVE",
"261 482 CURVE",
"282 472 OFFCURVE",
"336 416 OFFCURVE",
"336 381 CURVE SMOOTH",
"336 344 OFFCURVE",
"282 306 OFFCURVE",
"171 263 CURVE",
"183 248 OFFCURVE",
"193 226 OFFCURVE",
"200 203 CURVE",
"243 220 OFFCURVE",
"265 225 OFFCURVE",
"292 225 CURVE SMOOTH",
"337 225 OFFCURVE",
"372 194 OFFCURVE",
"372 167 CURVE SMOOTH",
"372 125 OFFCURVE",
"313 69 OFFCURVE",
"246 49 CURVE",
"275 32 OFFCURVE",
"298 12 OFFCURVE",
"320 -10 CURVE"
);
},
{
closed = 1;
nodes = (
"701 400 LINE",
"769 462 LINE",
"777 462 LINE",
"846 400 LINE",
"846 393 LINE",
"701 393 LINE"
);
}
);
width = 1068;
}
);
},
